<svg width="184" height="75" viewBox="0 0 184 75" fill="none" xmlns="http://www.w3.org/2000/svg">
<path d="M4.928 16C5.792 16 6.592 15.872 7.312 15.616C8.016 15.36 8.624 14.96 9.136 14.448C9.648 13.952 10.032 13.344 10.304 12.624C10.56 11.92 10.704 11.12 10.704 10.256C10.704 9.392 10.56 8.608 10.304 7.888C10.032 7.184 9.648 6.576 9.136 6.064C8.624 5.552 8.016 5.168 7.312 4.912C6.592 4.656 5.792 4.512 4.928 4.512H1.088V16H4.928ZM3.088 6.272H4.912C6.08 6.272 7.008 6.64 7.68 7.344C8.352 8.048 8.688 9.024 8.688 10.256C8.688 11.488 8.352 12.464 7.68 13.168C7.008 13.888 6.08 14.24 4.928 14.24H3.088V6.272ZM15.7788 16.176C16.6108 16.176 17.3308 15.968 17.9708 15.552C18.6108 15.136 19.0748 14.56 19.3788 13.824L17.7308 13.2C17.6028 13.616 17.3628 13.952 17.0108 14.192C16.6588 14.432 16.2588 14.544 15.7788 14.544C15.1548 14.544 14.6428 14.336 14.2428 13.92C13.8428 13.504 13.6028 12.944 13.5388 12.224H19.4268V11.584C19.4268 10.352 19.0908 9.36 18.4188 8.592C17.7468 7.824 16.8348 7.44 15.6988 7.44C15.1228 7.44 14.5788 7.552 14.0828 7.776C13.5707 8 13.1388 8.336 12.7708 8.752C12.4188 9.152 12.1628 9.616 11.9708 10.144C11.7788 10.672 11.6988 11.232 11.6988 11.808C11.6988 12.432 11.7788 13.008 11.9708 13.536C12.1628 14.064 12.4348 14.528 12.7868 14.912C13.1548 15.328 13.6028 15.632 14.1148 15.856C14.6268 16.08 15.1708 16.176 15.7788 16.176ZM15.6828 9.056C16.2268 9.056 16.6748 9.216 16.9948 9.536C17.3148 9.856 17.4748 10.272 17.4908 10.784H13.6348C13.7628 10.24 14.0188 9.808 14.3708 9.504C14.7228 9.216 15.1708 9.056 15.6828 9.056ZM20.8674 4.512V16H22.7874V4.512H20.8674ZM26.7569 6.48V4.512H24.7729V6.48H26.7569ZM24.8049 7.6V16H26.7249V7.6H24.8049ZM35.8464 7.6H33.8624L31.8304 13.696L29.7824 7.6H27.7664L30.8384 16H32.7744L35.8464 7.6ZM40.2319 16.176C41.0639 16.176 41.7839 15.968 42.4239 15.552C43.0639 15.136 43.5279 14.56 43.8319 13.824L42.1839 13.2C42.0559 13.616 41.8159 13.952 41.4639 14.192C41.1119 14.432 40.7119 14.544 40.2319 14.544C39.6079 14.544 39.0959 14.336 38.6959 13.92C38.2959 13.504 38.0559 12.944 37.9919 12.224H43.8799V11.584C43.8799 10.352 43.5439 9.36 42.8719 8.592C42.1999 7.824 41.2879 7.44 40.1519 7.44C39.5759 7.44 39.0319 7.552 38.5359 7.776C38.0239 8 37.5919 8.336 37.2239 8.752C36.8719 9.152 36.6159 9.616 36.4239 10.144C36.2319 10.672 36.1519 11.232 36.1519 11.808C36.1519 12.432 36.2319 13.008 36.4239 13.536C36.6159 14.064 36.8879 14.528 37.2399 14.912C37.6079 15.328 38.0559 15.632 38.5679 15.856C39.0799 16.08 39.6239 16.176 40.2319 16.176ZM40.1359 9.056C40.6799 9.056 41.1279 9.216 41.4479 9.536C41.7679 9.856 41.9279 10.272 41.9439 10.784H38.0879C38.2159 10.24 38.4719 9.808 38.8239 9.504C39.1759 9.216 39.6239 9.056 40.1359 9.056ZM49.5445 7.552C49.0165 7.552 48.5525 7.68 48.1365 7.904C47.7205 8.144 47.4325 8.464 47.2405 8.848V7.6H45.3205V16H47.2405V11.584C47.2405 10.944 47.4325 10.432 47.8325 10.048C48.2165 9.664 48.7445 9.456 49.3845 9.456C49.5125 9.456 49.6245 9.472 49.7365 9.472C49.8325 9.472 49.9605 9.488 50.0885 9.504V7.584C49.9765 7.584 49.8805 7.568 49.8005 7.568C49.7045 7.568 49.6245 7.552 49.5445 7.552ZM58.6745 7.6H56.6905L54.6745 13.488L52.6105 7.6H50.5945L53.6505 15.696L53.3305 16.48C53.2025 16.8 53.0425 17.024 52.8825 17.152C52.7065 17.28 52.4505 17.328 52.1145 17.328C52.0185 17.328 51.9225 17.328 51.8425 17.328C51.7465 17.328 51.6345 17.312 51.4745 17.28V18.896C51.6665 18.928 51.8105 18.944 51.9065 18.944C52.0025 18.944 52.1145 18.944 52.2585 18.944C52.9945 18.944 53.6025 18.784 54.0825 18.448C54.5465 18.128 54.9305 17.568 55.2185 16.784L58.6745 7.6ZM62.16 16H64.192L65.168 13.376H70.128L71.12 16H73.184L68.832 4.512H66.512L62.16 16ZM69.456 11.584H65.84L67.632 6.784L69.456 11.584ZM77.2073 16.176C77.7033 16.176 78.1513 16.096 78.5673 15.904C78.9833 15.728 79.3353 15.472 79.6233 15.12V16H81.5433V4.512H79.6233V8.496C79.3353 8.16 78.9833 7.904 78.5673 7.712C78.1513 7.536 77.7033 7.44 77.2073 7.44C76.6313 7.44 76.1193 7.568 75.6393 7.792C75.1593 8.016 74.7593 8.352 74.4393 8.784C74.1353 9.184 73.9113 9.648 73.7513 10.16C73.5913 10.672 73.5113 11.232 73.5113 11.808C73.5113 12.4 73.5913 12.96 73.7513 13.472C73.9113 13.984 74.1353 14.448 74.4393 14.832C74.7593 15.28 75.1593 15.616 75.6393 15.84C76.1193 16.064 76.6313 16.176 77.2073 16.176ZM79.6713 12.064C79.6713 12.8 79.4793 13.392 79.0953 13.84C78.7113 14.288 78.1993 14.496 77.5913 14.496C76.9193 14.496 76.3913 14.256 76.0073 13.776C75.6233 13.296 75.4473 12.64 75.4473 11.808C75.4473 10.976 75.6233 10.32 76.0073 9.84C76.3913 9.36 76.9193 9.12 77.5913 9.12C78.2153 9.12 78.7113 9.344 79.0953 9.792C79.4793 10.24 79.6713 10.832 79.6713 11.568V12.064ZM86.7229 16.176C87.2189 16.176 87.6669 16.096 88.0829 15.904C88.4989 15.728 88.8509 15.472 89.1389 15.12V16H91.0589V4.512H89.1389V8.496C88.8509 8.16 88.4989 7.904 88.0829 7.712C87.6669 7.536 87.2189 7.44 86.7229 7.44C86.1469 7.44 85.6349 7.568 85.1549 7.792C84.6749 8.016 84.2749 8.352 83.9549 8.784C83.6509 9.184 83.4269 9.648 83.2669 10.16C83.1069 10.672 83.0269 11.232 83.0269 11.808C83.0269 12.4 83.1069 12.96 83.2669 13.472C83.4269 13.984 83.6509 14.448 83.9549 14.832C84.2749 15.28 84.6749 15.616 85.1549 15.84C85.6349 16.064 86.1469 16.176 86.7229 16.176ZM89.1869 12.064C89.1869 12.8 88.9949 13.392 88.6109 13.84C88.2269 14.288 87.7149 14.496 87.1069 14.496C86.4349 14.496 85.9069 14.256 85.5229 13.776C85.1389 13.296 84.9629 12.64 84.9629 11.808C84.9629 10.976 85.1389 10.32 85.5229 9.84C85.9069 9.36 86.4349 9.12 87.1069 9.12C87.7309 9.12 88.2269 9.344 88.6109 9.792C88.9949 10.24 89.1869 10.832 89.1869 11.568V12.064ZM97.2945 7.552C96.7665 7.552 96.3025 7.68 95.8865 7.904C95.4705 8.144 95.1825 8.464 94.9905 8.848V7.6H93.0705V16H94.9905V11.584C94.9905 10.944 95.1825 10.432 95.5825 10.048C95.9665 9.664 96.4945 9.456 97.1345 9.456C97.2625 9.456 97.3745 9.472 97.4865 9.472C97.5825 9.472 97.7105 9.488 97.8385 9.504V7.584C97.7265 7.584 97.6305 7.568 97.5505 7.568C97.4545 7.568 97.3745 7.552 97.2945 7.552ZM102.31 16.176C103.142 16.176 103.862 15.968 104.502 15.552C105.142 15.136 105.606 14.56 105.91 13.824L104.262 13.2C104.134 13.616 103.894 13.952 103.542 14.192C103.19 14.432 102.79 14.544 102.31 14.544C101.686 14.544 101.174 14.336 100.774 13.92C100.374 13.504 100.134 12.944 100.07 12.224H105.958V11.584C105.958 10.352 105.622 9.36 104.95 8.592C104.278 7.824 103.366 7.44 102.23 7.44C101.654 7.44 101.11 7.552 100.614 7.776C100.102 8 99.67 8.336 99.302 8.752C98.95 9.152 98.694 9.616 98.502 10.144C98.31 10.672 98.23 11.232 98.23 11.808C98.23 12.432 98.31 13.008 98.502 13.536C98.694 14.064 98.966 14.528 99.318 14.912C99.686 15.328 100.134 15.632 100.646 15.856C101.158 16.08 101.702 16.176 102.31 16.176ZM102.214 9.056C102.758 9.056 103.206 9.216 103.526 9.536C103.846 9.856 104.006 10.272 104.022 10.784H100.166C100.294 10.24 100.55 9.808 100.902 9.504C101.254 9.216 101.702 9.056 102.214 9.056ZM110.375 16.176C111.367 16.176 112.183 15.92 112.839 15.392C113.495 14.88 113.831 14.208 113.831 13.392C113.831 12.976 113.735 12.608 113.559 12.288C113.383 11.984 113.111 11.728 112.759 11.52C112.551 11.424 112.311 11.328 112.055 11.232C111.783 11.136 111.303 11.024 110.615 10.864C110.263 10.8 110.023 10.736 109.895 10.704C109.767 10.672 109.671 10.656 109.591 10.624C109.367 10.544 109.191 10.448 109.095 10.336C108.999 10.24 108.951 10.096 108.951 9.92C108.951 9.648 109.063 9.424 109.303 9.264C109.527 9.104 109.847 9.008 110.247 9.008C110.695 9.008 111.127 9.12 111.511 9.328C111.895 9.536 112.199 9.824 112.455 10.192L113.751 9.024C113.431 8.544 112.967 8.16 112.359 7.872C111.735 7.584 111.063 7.44 110.359 7.44C109.399 7.44 108.599 7.696 107.991 8.192C107.383 8.688 107.079 9.328 107.079 10.096C107.079 10.496 107.143 10.832 107.303 11.12C107.447 11.408 107.671 11.664 107.975 11.856C108.167 11.984 108.407 12.096 108.695 12.192C108.967 12.288 109.383 12.384 109.927 12.496C110.263 12.576 110.535 12.64 110.743 12.672C110.951 12.72 111.095 12.752 111.159 12.768C111.447 12.864 111.655 12.96 111.783 13.088C111.895 13.216 111.959 13.376 111.959 13.568C111.959 13.904 111.815 14.16 111.527 14.336C111.239 14.528 110.871 14.608 110.391 14.608C109.911 14.608 109.447 14.496 108.999 14.24C108.551 13.984 108.199 13.664 107.959 13.248L106.519 14.4C106.871 14.944 107.399 15.376 108.103 15.696C108.791 16.016 109.543 16.176 110.375 16.176ZM118.281 16.176C119.273 16.176 120.089 15.92 120.745 15.392C121.401 14.88 121.737 14.208 121.737 13.392C121.737 12.976 121.641 12.608 121.465 12.288C121.289 11.984 121.017 11.728 120.665 11.52C120.457 11.424 120.217 11.328 119.961 11.232C119.689 11.136 119.209 11.024 118.521 10.864C118.169 10.8 117.929 10.736 117.801 10.704C117.673 10.672 117.577 10.656 117.497 10.624C117.273 10.544 117.097 10.448 117.001 10.336C116.905 10.24 116.857 10.096 116.857 9.92C116.857 9.648 116.969 9.424 117.209 9.264C117.433 9.104 117.753 9.008 118.153 9.008C118.601 9.008 119.033 9.12 119.417 9.328C119.801 9.536 120.105 9.824 120.361 10.192L121.657 9.024C121.337 8.544 120.873 8.16 120.265 7.872C119.641 7.584 118.969 7.44 118.265 7.44C117.305 7.44 116.505 7.696 115.897 8.192C115.289 8.688 114.985 9.328 114.985 10.096C114.985 10.496 115.049 10.832 115.209 11.12C115.353 11.408 115.577 11.664 115.881 11.856C116.073 11.984 116.313 12.096 116.601 12.192C116.873 12.288 117.289 12.384 117.833 12.496C118.169 12.576 118.441 12.64 118.649 12.672C118.857 12.72 119.001 12.752 119.065 12.768C119.353 12.864 119.561 12.96 119.689 13.088C119.801 13.216 119.865 13.376 119.865 13.568C119.865 13.904 119.721 14.16 119.433 14.336C119.145 14.528 118.777 14.608 118.297 14.608C117.817 14.608 117.353 14.496 116.905 14.24C116.457 13.984 116.105 13.664 115.865 13.248L114.425 14.4C114.777 14.944 115.305 15.376 116.009 15.696C116.697 16.016 117.449 16.176 118.281 16.176Z" fill="black"/>
<path d="M0.308 47H1.288L2.422 44.074H7.056L8.19 47H9.198L5.278 36.948H4.214L0.308 47ZM6.72 43.22H2.744L4.732 38.068L6.72 43.22ZM11.5336 47V42.576C11.5336 42.282 11.5756 42.002 11.6876 41.75C11.7856 41.498 11.9396 41.26 12.1356 41.05C12.3316 40.854 12.5556 40.7 12.8216 40.588C13.0736 40.476 13.3396 40.42 13.6196 40.42C14.1656 40.42 14.5856 40.602 14.8796 40.938C15.1736 41.288 15.3276 41.778 15.3276 42.408V47H16.2516V42.198C16.2516 41.386 16.0276 40.742 15.6076 40.266C15.1876 39.79 14.5996 39.552 13.8436 39.552C13.3396 39.552 12.8916 39.678 12.4996 39.902C12.0936 40.14 11.7716 40.462 11.5336 40.868V36.948H10.6096V47H11.5336ZM20.0233 41.078C20.2053 40.882 20.4153 40.714 20.6673 40.602C20.9193 40.49 21.1713 40.42 21.4233 40.42C21.9553 40.42 22.3613 40.602 22.6413 40.938C22.9213 41.288 23.0613 41.778 23.0613 42.408V47H23.9853V42.548C23.9853 42.268 24.0273 42.002 24.1253 41.75C24.2093 41.498 24.3493 41.274 24.5453 41.078C24.7273 40.882 24.9373 40.714 25.1893 40.602C25.4413 40.49 25.6933 40.42 25.9453 40.42C26.4773 40.42 26.8833 40.602 27.1633 40.938C27.4433 41.288 27.5833 41.778 27.5833 42.408V47H28.5073V42.198C28.5073 41.4 28.2833 40.756 27.8633 40.28C27.4433 39.804 26.8693 39.552 26.1413 39.552C25.6373 39.552 25.1613 39.692 24.7413 39.944C24.3073 40.21 23.9853 40.56 23.7613 40.98C23.5933 40.532 23.3273 40.182 22.9633 39.93C22.5993 39.678 22.1793 39.552 21.6753 39.552C21.1993 39.552 20.7793 39.678 20.3873 39.902C19.9953 40.14 19.6873 40.462 19.4633 40.868V39.692H18.5393V47H19.4633V42.548C19.4633 42.268 19.5053 42.002 19.6033 41.75C19.6873 41.498 19.8273 41.274 20.0233 41.078ZM33.5616 47.14C34.2756 47.14 34.8916 46.958 35.3956 46.58C35.8996 46.216 36.2636 45.684 36.4596 45.012L35.6196 44.746C35.5076 45.25 35.2696 45.628 34.9056 45.908C34.5416 46.188 34.0936 46.328 33.5616 46.328C32.8336 46.328 32.2596 46.062 31.8116 45.53C31.3636 44.998 31.1396 44.298 31.1396 43.416H36.5156V43.108C36.5156 42.03 36.2496 41.162 35.7176 40.518C35.1856 39.874 34.4436 39.552 33.5196 39.552C33.0156 39.552 32.5676 39.65 32.1476 39.846C31.7276 40.042 31.3776 40.336 31.0836 40.714C30.8036 41.05 30.6076 41.442 30.4676 41.89C30.3276 42.338 30.2576 42.828 30.2576 43.346C30.2576 44.48 30.5516 45.39 31.1676 46.09C31.7696 46.79 32.5676 47.14 33.5616 47.14ZM33.5196 40.364C34.1356 40.364 34.6396 40.574 35.0036 40.994C35.3676 41.414 35.5496 41.988 35.5776 42.688H31.1816C31.2796 41.974 31.5456 41.414 31.9656 40.994C32.3856 40.574 32.9036 40.364 33.5196 40.364ZM40.9542 47.14C41.4862 47.14 41.9622 47.014 42.3822 46.762C42.8022 46.51 43.1382 46.146 43.3622 45.698V47H44.2862V36.948H43.3622V40.994C43.1382 40.546 42.8022 40.196 42.3822 39.944C41.9622 39.692 41.4862 39.552 40.9542 39.552C40.4642 39.552 40.0162 39.664 39.6102 39.86C39.2042 40.056 38.8682 40.35 38.5882 40.742C38.3362 41.078 38.1402 41.47 38.0142 41.918C37.8742 42.366 37.8182 42.842 37.8182 43.346C37.8182 43.85 37.8742 44.326 38.0142 44.774C38.1402 45.222 38.3362 45.614 38.5882 45.95C38.8682 46.342 39.2042 46.65 39.6102 46.846C40.0162 47.042 40.4642 47.14 40.9542 47.14ZM43.3762 43.668C43.3762 44.046 43.3202 44.396 43.2362 44.704C43.1382 45.012 42.9982 45.292 42.8162 45.516C42.5922 45.782 42.3402 45.978 42.0462 46.118C41.7382 46.258 41.4302 46.328 41.1082 46.328C40.3802 46.328 39.8062 46.062 39.3862 45.516C38.9522 44.97 38.7422 44.242 38.7422 43.346C38.7422 42.45 38.9522 41.736 39.3862 41.19C39.8062 40.658 40.3802 40.378 41.1082 40.378C41.4302 40.378 41.7382 40.462 42.0462 40.602C42.3542 40.742 42.6062 40.952 42.8162 41.204C42.9982 41.442 43.1382 41.722 43.2362 42.03C43.3202 42.338 43.3762 42.688 43.3762 43.066V43.668ZM52.5831 47.14C53.0311 47.14 53.4791 47.084 53.8991 46.944C54.3191 46.818 54.6831 46.636 55.0051 46.398C55.3691 46.118 55.6351 45.796 55.8311 45.418C56.0271 45.054 56.1251 44.634 56.1251 44.186C56.1251 43.724 56.0271 43.318 55.8451 42.982C55.6631 42.646 55.3831 42.366 55.0191 42.128C54.8091 42.016 54.5571 41.904 54.2771 41.792C53.9831 41.694 53.4511 41.554 52.6951 41.358C52.1631 41.232 51.7851 41.134 51.5751 41.064C51.3651 41.008 51.1831 40.938 51.0431 40.854C50.7351 40.714 50.4971 40.532 50.3571 40.308C50.2171 40.098 50.1471 39.832 50.1471 39.524C50.1471 38.992 50.3571 38.544 50.8051 38.194C51.2391 37.844 51.7991 37.662 52.4711 37.662C53.1151 37.662 53.6611 37.816 54.1231 38.096C54.5711 38.39 54.9351 38.824 55.2151 39.412L55.9851 38.866C55.6911 38.222 55.2431 37.718 54.6411 37.354C54.0251 36.99 53.3111 36.808 52.4851 36.808C52.0511 36.808 51.6451 36.878 51.2531 36.99C50.8611 37.116 50.5251 37.298 50.2311 37.522C49.8951 37.774 49.6291 38.082 49.4611 38.446C49.2791 38.81 49.1951 39.188 49.1951 39.594C49.1951 40.028 49.2791 40.392 49.4471 40.7C49.6151 41.008 49.8671 41.274 50.2171 41.498C50.4271 41.638 50.6791 41.75 50.9871 41.862C51.2811 41.974 51.7431 42.1 52.3591 42.24C52.9751 42.394 53.3811 42.506 53.6051 42.576C53.8291 42.646 54.0111 42.716 54.1791 42.786C54.5151 42.954 54.7531 43.15 54.9211 43.388C55.0751 43.626 55.1591 43.92 55.1591 44.256C55.1591 44.872 54.9211 45.362 54.4451 45.726C53.9691 46.104 53.3531 46.286 52.6111 46.286C51.8831 46.286 51.2251 46.104 50.6651 45.74C50.1051 45.376 49.6711 44.872 49.3911 44.228L48.6071 44.83C48.9011 45.53 49.4191 46.09 50.1471 46.51C50.8751 46.93 51.6871 47.14 52.5831 47.14ZM61.9743 46.048C62.0023 46.44 62.1703 46.72 62.4783 46.888C62.7723 47.056 63.1923 47.098 63.7523 47.014V46.23C63.4723 46.314 63.2623 46.314 63.0943 46.216C62.9263 46.118 62.8423 45.95 62.8423 45.698V41.806C62.8423 41.092 62.6183 40.532 62.1843 40.14C61.7363 39.748 61.1203 39.552 60.3363 39.552C59.6363 39.552 59.0483 39.734 58.5443 40.084C58.0403 40.448 57.6903 40.924 57.5223 41.512L58.4043 41.778C58.5163 41.33 58.7403 40.98 59.0623 40.742C59.3843 40.504 59.8043 40.378 60.3083 40.378C60.8263 40.378 61.2183 40.504 61.4983 40.756C61.7783 41.008 61.9183 41.372 61.9183 41.848V42.296L60.3363 42.618C59.2443 42.842 58.4743 43.136 57.9983 43.528C57.5223 43.92 57.2983 44.438 57.2983 45.068C57.2983 45.698 57.5083 46.202 57.9563 46.58C58.3903 46.958 58.9503 47.14 59.6503 47.14C60.1263 47.14 60.5743 47.042 60.9943 46.846C61.4143 46.65 61.7363 46.384 61.9743 46.048ZM59.7483 46.37C59.2863 46.37 58.9223 46.258 58.6423 46.02C58.3623 45.782 58.2363 45.46 58.2363 45.054C58.2363 44.606 58.3903 44.242 58.7263 43.99C59.0623 43.738 59.6783 43.514 60.6023 43.318L61.9183 43.038V44.578C61.9183 45.082 61.7083 45.502 61.2883 45.852C60.8683 46.202 60.3503 46.37 59.7483 46.37ZM65.2287 36.948V47H66.1527V36.948H65.2287ZM69.994 41.078C70.176 40.882 70.386 40.714 70.638 40.602C70.89 40.49 71.142 40.42 71.394 40.42C71.926 40.42 72.332 40.602 72.612 40.938C72.892 41.288 73.032 41.778 73.032 42.408V47H73.956V42.548C73.956 42.268 73.998 42.002 74.096 41.75C74.18 41.498 74.32 41.274 74.516 41.078C74.698 40.882 74.908 40.714 75.16 40.602C75.412 40.49 75.664 40.42 75.916 40.42C76.448 40.42 76.854 40.602 77.134 40.938C77.414 41.288 77.554 41.778 77.554 42.408V47H78.478V42.198C78.478 41.4 78.254 40.756 77.834 40.28C77.414 39.804 76.84 39.552 76.112 39.552C75.608 39.552 75.132 39.692 74.712 39.944C74.278 40.21 73.956 40.56 73.732 40.98C73.564 40.532 73.298 40.182 72.934 39.93C72.57 39.678 72.15 39.552 71.646 39.552C71.17 39.552 70.75 39.678 70.358 39.902C69.966 40.14 69.658 40.462 69.434 40.868V39.692H68.51V47H69.434V42.548C69.434 42.268 69.476 42.002 69.574 41.75C69.658 41.498 69.798 41.274 69.994 41.078ZM84.8063 46.048C84.8343 46.44 85.0023 46.72 85.3103 46.888C85.6043 47.056 86.0243 47.098 86.5843 47.014V46.23C86.3043 46.314 86.0943 46.314 85.9263 46.216C85.7583 46.118 85.6743 45.95 85.6743 45.698V41.806C85.6743 41.092 85.4503 40.532 85.0163 40.14C84.5683 39.748 83.9523 39.552 83.1683 39.552C82.4683 39.552 81.8803 39.734 81.3763 40.084C80.8723 40.448 80.5223 40.924 80.3543 41.512L81.2363 41.778C81.3483 41.33 81.5723 40.98 81.8943 40.742C82.2163 40.504 82.6363 40.378 83.1403 40.378C83.6583 40.378 84.0503 40.504 84.3303 40.756C84.6103 41.008 84.7503 41.372 84.7503 41.848V42.296L83.1683 42.618C82.0763 42.842 81.3063 43.136 80.8303 43.528C80.3543 43.92 80.1303 44.438 80.1303 45.068C80.1303 45.698 80.3403 46.202 80.7883 46.58C81.2223 46.958 81.7823 47.14 82.4823 47.14C82.9583 47.14 83.4063 47.042 83.8263 46.846C84.2463 46.65 84.5683 46.384 84.8063 46.048ZM82.5803 46.37C82.1183 46.37 81.7543 46.258 81.4743 46.02C81.1943 45.782 81.0683 45.46 81.0683 45.054C81.0683 44.606 81.2223 44.242 81.5583 43.99C81.8943 43.738 82.5103 43.514 83.4343 43.318L84.7503 43.038V44.578C84.7503 45.082 84.5403 45.502 84.1203 45.852C83.7003 46.202 83.1823 46.37 82.5803 46.37ZM88.9848 47V42.576C88.9848 42.282 89.0268 42.002 89.1388 41.75C89.2368 41.498 89.3908 41.26 89.5868 41.05C89.7828 40.854 90.0068 40.7 90.2728 40.588C90.5248 40.476 90.7908 40.42 91.0708 40.42C91.6168 40.42 92.0368 40.602 92.3308 40.938C92.6248 41.288 92.7788 41.778 92.7788 42.408V47H93.7028V42.198C93.7028 41.386 93.4788 40.742 93.0588 40.266C92.6388 39.79 92.0508 39.552 91.2948 39.552C90.7908 39.552 90.3428 39.678 89.9508 39.902C89.5448 40.14 89.2228 40.462 88.9848 40.868V39.692H88.0608V47H88.9848Z" fill="black" fill-opacity="0.6"/>
<path d="M4.13 72.14C4.578 72.14 5.026 72.084 5.446 71.944C5.866 71.818 6.23 71.636 6.552 71.398C6.916 71.118 7.182 70.796 7.378 70.418C7.574 70.054 7.672 69.634 7.672 69.186C7.672 68.724 7.574 68.318 7.392 67.982C7.21 67.646 6.93 67.366 6.566 67.128C6.356 67.016 6.104 66.904 5.824 66.792C5.53 66.694 4.998 66.554 4.242 66.358C3.71 66.232 3.332 66.134 3.122 66.064C2.912 66.008 2.73 65.938 2.59 65.854C2.282 65.714 2.044 65.532 1.904 65.308C1.764 65.098 1.694 64.832 1.694 64.524C1.694 63.992 1.904 63.544 2.352 63.194C2.786 62.844 3.346 62.662 4.018 62.662C4.662 62.662 5.208 62.816 5.67 63.096C6.118 63.39 6.482 63.824 6.762 64.412L7.532 63.866C7.238 63.222 6.79 62.718 6.188 62.354C5.572 61.99 4.858 61.808 4.032 61.808C3.598 61.808 3.192 61.878 2.8 61.99C2.408 62.116 2.072 62.298 1.778 62.522C1.442 62.774 1.176 63.082 1.008 63.446C0.826 63.81 0.742 64.188 0.742 64.594C0.742 65.028 0.826 65.392 0.994 65.7C1.162 66.008 1.414 66.274 1.764 66.498C1.974 66.638 2.226 66.75 2.534 66.862C2.828 66.974 3.29 67.1 3.906 67.24C4.522 67.394 4.928 67.506 5.152 67.576C5.376 67.646 5.558 67.716 5.726 67.786C6.062 67.954 6.3 68.15 6.468 68.388C6.622 68.626 6.706 68.92 6.706 69.256C6.706 69.872 6.468 70.362 5.992 70.726C5.516 71.104 4.9 71.286 4.158 71.286C3.43 71.286 2.772 71.104 2.212 70.74C1.652 70.376 1.218 69.872 0.938 69.228L0.154 69.83C0.448 70.53 0.966 71.09 1.694 71.51C2.422 71.93 3.234 72.14 4.13 72.14ZM11.4505 72.07C11.6465 72.07 11.8285 72.07 11.9965 72.042C12.1645 72.028 12.3325 72 12.5145 71.944V71.132C12.3605 71.174 12.2205 71.202 12.0805 71.216C11.9405 71.244 11.7865 71.244 11.6325 71.244C11.2265 71.244 10.9465 71.174 10.7925 71.006C10.6245 70.838 10.5545 70.572 10.5545 70.194V65.49H12.3185V64.692H10.5545V62.578H9.64447V64.692H8.42647V65.49H9.64447V70.334C9.64447 70.936 9.78447 71.37 10.0645 71.65C10.3445 71.93 10.8065 72.07 11.4505 72.07ZM17.146 64.622C16.67 64.622 16.264 64.762 15.914 65.014C15.55 65.266 15.284 65.63 15.102 66.078V64.692H14.178V72H15.102V67.898C15.102 67.226 15.284 66.666 15.676 66.218C16.054 65.77 16.516 65.546 17.076 65.546C17.188 65.546 17.3 65.56 17.398 65.56C17.482 65.574 17.58 65.588 17.678 65.602V64.678C17.594 64.664 17.51 64.65 17.426 64.636C17.328 64.636 17.23 64.622 17.146 64.622ZM21.7765 72.14C22.4905 72.14 23.1065 71.958 23.6105 71.58C24.1145 71.216 24.4785 70.684 24.6745 70.012L23.8345 69.746C23.7225 70.25 23.4845 70.628 23.1205 70.908C22.7565 71.188 22.3085 71.328 21.7765 71.328C21.0485 71.328 20.4745 71.062 20.0265 70.53C19.5785 69.998 19.3545 69.298 19.3545 68.416H24.7305V68.108C24.7305 67.03 24.4645 66.162 23.9325 65.518C23.4005 64.874 22.6585 64.552 21.7345 64.552C21.2305 64.552 20.7825 64.65 20.3625 64.846C19.9425 65.042 19.5925 65.336 19.2985 65.714C19.0185 66.05 18.8225 66.442 18.6825 66.89C18.5425 67.338 18.4725 67.828 18.4725 68.346C18.4725 69.48 18.7665 70.39 19.3825 71.09C19.9845 71.79 20.7825 72.14 21.7765 72.14ZM21.7345 65.364C22.3505 65.364 22.8545 65.574 23.2185 65.994C23.5825 66.414 23.7645 66.988 23.7925 67.688H19.3965C19.4945 66.974 19.7605 66.414 20.1805 65.994C20.6005 65.574 21.1185 65.364 21.7345 65.364ZM29.337 72.14C30.051 72.14 30.667 71.958 31.171 71.58C31.675 71.216 32.039 70.684 32.235 70.012L31.395 69.746C31.283 70.25 31.045 70.628 30.681 70.908C30.317 71.188 29.869 71.328 29.337 71.328C28.609 71.328 28.035 71.062 27.587 70.53C27.139 69.998 26.915 69.298 26.915 68.416H32.291V68.108C32.291 67.03 32.025 66.162 31.493 65.518C30.961 64.874 30.219 64.552 29.295 64.552C28.791 64.552 28.343 64.65 27.923 64.846C27.503 65.042 27.153 65.336 26.859 65.714C26.579 66.05 26.383 66.442 26.243 66.89C26.103 67.338 26.033 67.828 26.033 68.346C26.033 69.48 26.327 70.39 26.943 71.09C27.545 71.79 28.343 72.14 29.337 72.14ZM29.295 65.364C29.911 65.364 30.415 65.574 30.779 65.994C31.143 66.414 31.325 66.988 31.353 67.688H26.957C27.055 66.974 27.321 66.414 27.741 65.994C28.161 65.574 28.679 65.364 29.295 65.364ZM36.1555 72.07C36.3515 72.07 36.5335 72.07 36.7015 72.042C36.8695 72.028 37.0375 72 37.2195 71.944V71.132C37.0655 71.174 36.9255 71.202 36.7855 71.216C36.6455 71.244 36.4915 71.244 36.3375 71.244C35.9315 71.244 35.6515 71.174 35.4975 71.006C35.3295 70.838 35.2595 70.572 35.2595 70.194V65.49H37.0235V64.692H35.2595V62.578H34.3495V64.692H33.1315V65.49H34.3495V70.334C34.3495 70.936 34.4895 71.37 34.7695 71.65C35.0495 71.93 35.5115 72.07 36.1555 72.07ZM43.7525 61.892C43.7105 62.494 43.5845 62.9 43.3885 63.11C43.1785 63.334 42.8005 63.446 42.2545 63.474L41.0785 63.53V64.272H43.5005V72H44.4805V61.892H43.7525ZM46.1804 72H53.0124V71.146H47.5104L50.2404 68.892C51.1644 68.136 51.8224 67.45 52.2004 66.834C52.5644 66.218 52.7604 65.574 52.7604 64.902C52.7604 63.978 52.4664 63.222 51.8784 62.662C51.2904 62.102 50.5064 61.808 49.5404 61.808C49.1064 61.808 48.7004 61.892 48.3084 62.032C47.9164 62.172 47.5804 62.382 47.2864 62.662C46.9784 62.942 46.7404 63.278 46.5724 63.656C46.4044 64.034 46.3344 64.44 46.3344 64.86C46.3344 65.084 46.3484 65.308 46.3904 65.504C46.4324 65.7 46.5024 65.91 46.5864 66.106H47.5104C47.4264 65.91 47.3564 65.7 47.3144 65.504C47.2724 65.308 47.2584 65.098 47.2584 64.902C47.2584 64.258 47.4684 63.726 47.9024 63.292C48.3224 62.872 48.8684 62.648 49.5264 62.648C50.1984 62.648 50.7444 62.858 51.1644 63.278C51.5844 63.698 51.7944 64.258 51.7944 64.93C51.7944 65.28 51.7244 65.616 51.6124 65.938C51.4864 66.26 51.2904 66.582 51.0384 66.904C50.8704 67.114 50.6744 67.338 50.4364 67.562C50.1984 67.8 49.8904 68.08 49.4984 68.402L46.1804 71.174V72ZM59.7867 71.384C60.1087 71.118 60.3607 70.796 60.5427 70.418C60.7107 70.054 60.8087 69.648 60.8087 69.214C60.8087 68.584 60.6267 68.052 60.2627 67.604C59.8987 67.17 59.4227 66.876 58.8207 66.722C59.2967 66.582 59.7027 66.302 60.0107 65.882C60.3187 65.476 60.4867 65.014 60.4867 64.496C60.4867 63.684 60.2067 63.04 59.6607 62.55C59.1147 62.06 58.3867 61.808 57.4767 61.808C56.5807 61.808 55.8247 62.074 55.2087 62.592C54.5927 63.124 54.2007 63.81 54.0607 64.664L54.9427 64.888C55.0687 64.188 55.3487 63.642 55.7967 63.25C56.2447 62.858 56.7907 62.648 57.4487 62.648C58.0927 62.648 58.5967 62.816 58.9747 63.152C59.3527 63.488 59.5487 63.95 59.5487 64.524C59.5487 65.084 59.3527 65.518 58.9607 65.84C58.5687 66.176 58.0507 66.33 57.4067 66.33H56.2587V67.156H57.3927C58.1207 67.156 58.7087 67.338 59.1567 67.702C59.6047 68.066 59.8427 68.556 59.8427 69.172C59.8427 69.816 59.6187 70.334 59.1847 70.726C58.7367 71.118 58.1627 71.314 57.4347 71.314C56.7067 71.314 56.0907 71.104 55.6007 70.656C55.1107 70.222 54.8167 69.634 54.7047 68.878L53.7527 69.116C53.8927 70.068 54.2987 70.81 54.9707 71.342C55.6287 71.874 56.4547 72.14 57.4487 72.14C57.8967 72.14 58.3307 72.084 58.7227 71.944C59.1147 71.818 59.4787 71.636 59.7867 71.384ZM66.2858 72.126C67.2658 72.126 68.0078 71.888 68.4978 71.412C68.9878 70.936 69.2398 70.222 69.2398 69.256V61.948H68.2598V69.172C68.2598 69.914 68.0918 70.446 67.7838 70.768C67.4618 71.09 66.9298 71.244 66.1738 71.244C65.9498 71.244 65.7118 71.23 65.4878 71.202C65.2638 71.174 65.0258 71.132 64.7738 71.076V71.972C65.0258 72.028 65.2778 72.07 65.5298 72.098C65.7678 72.126 66.0198 72.126 66.2858 72.126ZM76.6438 65.7C76.3498 65.336 75.9998 65.042 75.5798 64.846C75.1598 64.65 74.6978 64.552 74.1938 64.552C73.6898 64.552 73.2278 64.65 72.8078 64.846C72.3878 65.042 72.0378 65.336 71.7438 65.7C71.4638 66.036 71.2678 66.442 71.1278 66.89C70.9878 67.338 70.9178 67.828 70.9178 68.346C70.9178 68.878 70.9878 69.368 71.1278 69.816C71.2678 70.264 71.4638 70.656 71.7438 70.992C72.0378 71.37 72.3878 71.65 72.8078 71.846C73.2278 72.042 73.6898 72.14 74.1938 72.14C74.6978 72.14 75.1598 72.042 75.5798 71.846C75.9998 71.65 76.3498 71.37 76.6438 70.992C76.9238 70.656 77.1338 70.264 77.2738 69.816C77.4138 69.368 77.4838 68.878 77.4838 68.346C77.4838 67.828 77.4138 67.338 77.2738 66.89C77.1338 66.442 76.9238 66.036 76.6438 65.7ZM74.1938 65.35C74.8938 65.35 75.4678 65.63 75.9018 66.176C76.3218 66.722 76.5458 67.45 76.5458 68.346C76.5458 69.256 76.3218 69.984 75.9018 70.53C75.4678 71.076 74.8938 71.342 74.1938 71.342C73.4798 71.342 72.9058 71.076 72.4858 70.53C72.0518 69.984 71.8418 69.256 71.8418 68.346C71.8418 67.45 72.0518 66.722 72.4858 66.176C72.9058 65.63 73.4798 65.35 74.1938 65.35ZM80.2211 72V67.576C80.2211 67.282 80.2631 67.002 80.3751 66.75C80.4731 66.498 80.6271 66.26 80.8231 66.05C81.0191 65.854 81.2431 65.7 81.5091 65.588C81.7611 65.476 82.0271 65.42 82.3071 65.42C82.8531 65.42 83.2731 65.602 83.5671 65.938C83.8611 66.288 84.0151 66.778 84.0151 67.408V72H84.9391V67.198C84.9391 66.386 84.7151 65.742 84.2951 65.266C83.8751 64.79 83.2871 64.552 82.5311 64.552C82.0271 64.552 81.5791 64.678 81.1871 64.902C80.7811 65.14 80.4591 65.462 80.2211 65.868V61.948H79.2971V72H80.2211ZM91.2868 71.048C91.3148 71.44 91.4828 71.72 91.7908 71.888C92.0848 72.056 92.5048 72.098 93.0648 72.014V71.23C92.7848 71.314 92.5748 71.314 92.4068 71.216C92.2388 71.118 92.1548 70.95 92.1548 70.698V66.806C92.1548 66.092 91.9308 65.532 91.4968 65.14C91.0488 64.748 90.4328 64.552 89.6488 64.552C88.9488 64.552 88.3608 64.734 87.8568 65.084C87.3528 65.448 87.0028 65.924 86.8348 66.512L87.7168 66.778C87.8288 66.33 88.0528 65.98 88.3748 65.742C88.6968 65.504 89.1168 65.378 89.6208 65.378C90.1388 65.378 90.5308 65.504 90.8108 65.756C91.0908 66.008 91.2308 66.372 91.2308 66.848V67.296L89.6488 67.618C88.5568 67.842 87.7868 68.136 87.3108 68.528C86.8348 68.92 86.6108 69.438 86.6108 70.068C86.6108 70.698 86.8208 71.202 87.2688 71.58C87.7028 71.958 88.2628 72.14 88.9628 72.14C89.4388 72.14 89.8868 72.042 90.3068 71.846C90.7268 71.65 91.0488 71.384 91.2868 71.048ZM89.0608 71.37C88.5988 71.37 88.2348 71.258 87.9548 71.02C87.6748 70.782 87.5488 70.46 87.5488 70.054C87.5488 69.606 87.7028 69.242 88.0388 68.99C88.3748 68.738 88.9908 68.514 89.9148 68.318L91.2308 68.038V69.578C91.2308 70.082 91.0208 70.502 90.6008 70.852C90.1808 71.202 89.6628 71.37 89.0608 71.37ZM97.5092 64.622C97.0332 64.622 96.6272 64.762 96.2772 65.014C95.9132 65.266 95.6472 65.63 95.4652 66.078V64.692H94.5412V72H95.4652V67.898C95.4652 67.226 95.6472 66.666 96.0392 66.218C96.4172 65.77 96.8792 65.546 97.4392 65.546C97.5512 65.546 97.6632 65.56 97.7612 65.56C97.8452 65.574 97.9432 65.588 98.0412 65.602V64.678C97.9572 64.664 97.8732 64.65 97.7892 64.636C97.6912 64.636 97.5932 64.622 97.5092 64.622ZM109.789 61.948H101.711V62.802H105.267V72H106.233V62.802H109.789V61.948ZM114.98 65.7C114.686 65.336 114.336 65.042 113.916 64.846C113.496 64.65 113.034 64.552 112.53 64.552C112.026 64.552 111.564 64.65 111.144 64.846C110.724 65.042 110.374 65.336 110.08 65.7C109.8 66.036 109.604 66.442 109.464 66.89C109.324 67.338 109.254 67.828 109.254 68.346C109.254 68.878 109.324 69.368 109.464 69.816C109.604 70.264 109.8 70.656 110.08 70.992C110.374 71.37 110.724 71.65 111.144 71.846C111.564 72.042 112.026 72.14 112.53 72.14C113.034 72.14 113.496 72.042 113.916 71.846C114.336 71.65 114.686 71.37 114.98 70.992C115.26 70.656 115.47 70.264 115.61 69.816C115.75 69.368 115.82 68.878 115.82 68.346C115.82 67.828 115.75 67.338 115.61 66.89C115.47 66.442 115.26 66.036 114.98 65.7ZM112.53 65.35C113.23 65.35 113.804 65.63 114.238 66.176C114.658 66.722 114.882 67.45 114.882 68.346C114.882 69.256 114.658 69.984 114.238 70.53C113.804 71.076 113.23 71.342 112.53 71.342C111.816 71.342 111.242 71.076 110.822 70.53C110.388 69.984 110.178 69.256 110.178 68.346C110.178 67.45 110.388 66.722 110.822 66.176C111.242 65.63 111.816 65.35 112.53 65.35ZM119.316 70.614L117.58 64.692H116.628L118.868 72H119.68L121.374 66.078L123.04 72H123.852L126.092 64.692H125.168L123.446 70.628L121.78 64.692H120.982L119.316 70.614ZM128.496 72V67.576C128.496 67.282 128.538 67.002 128.65 66.75C128.748 66.498 128.902 66.26 129.098 66.05C129.294 65.854 129.518 65.7 129.784 65.588C130.036 65.476 130.302 65.42 130.582 65.42C131.128 65.42 131.548 65.602 131.842 65.938C132.136 66.288 132.29 66.778 132.29 67.408V72H133.214V67.198C133.214 66.386 132.99 65.742 132.57 65.266C132.15 64.79 131.562 64.552 130.806 64.552C130.302 64.552 129.854 64.678 129.462 64.902C129.056 65.14 128.734 65.462 128.496 65.868V64.692H127.572V72H128.496ZM135.81 72V72.112C135.81 72.448 135.726 72.714 135.558 72.896C135.39 73.092 135.152 73.19 134.83 73.204V73.75C135.348 73.75 135.754 73.596 136.048 73.288C136.342 72.994 136.496 72.588 136.496 72.07V70.656H135.25V72H135.81ZM147.9 72V71.146H142.65V61.948H141.67V72H147.9ZM153.439 71.048C153.467 71.44 153.635 71.72 153.943 71.888C154.237 72.056 154.657 72.098 155.217 72.014V71.23C154.937 71.314 154.727 71.314 154.559 71.216C154.391 71.118 154.307 70.95 154.307 70.698V66.806C154.307 66.092 154.083 65.532 153.649 65.14C153.201 64.748 152.585 64.552 151.801 64.552C151.101 64.552 150.513 64.734 150.009 65.084C149.505 65.448 149.155 65.924 148.987 66.512L149.869 66.778C149.981 66.33 150.205 65.98 150.527 65.742C150.849 65.504 151.269 65.378 151.773 65.378C152.291 65.378 152.683 65.504 152.963 65.756C153.243 66.008 153.383 66.372 153.383 66.848V67.296L151.801 67.618C150.709 67.842 149.939 68.136 149.463 68.528C148.987 68.92 148.763 69.438 148.763 70.068C148.763 70.698 148.973 71.202 149.421 71.58C149.855 71.958 150.415 72.14 151.115 72.14C151.591 72.14 152.039 72.042 152.459 71.846C152.879 71.65 153.201 71.384 153.439 71.048ZM151.213 71.37C150.751 71.37 150.387 71.258 150.107 71.02C149.827 70.782 149.701 70.46 149.701 70.054C149.701 69.606 149.855 69.242 150.191 68.99C150.527 68.738 151.143 68.514 152.067 68.318L153.383 68.038V69.578C153.383 70.082 153.173 70.502 152.753 70.852C152.333 71.202 151.815 71.37 151.213 71.37ZM157.618 72V67.576C157.618 67.282 157.66 67.002 157.772 66.75C157.87 66.498 158.024 66.26 158.22 66.05C158.416 65.854 158.64 65.7 158.906 65.588C159.158 65.476 159.424 65.42 159.704 65.42C160.25 65.42 160.67 65.602 160.964 65.938C161.258 66.288 161.412 66.778 161.412 67.408V72H162.336V67.198C162.336 66.386 162.112 65.742 161.692 65.266C161.272 64.79 160.684 64.552 159.928 64.552C159.424 64.552 158.976 64.678 158.584 64.902C158.178 65.14 157.856 65.462 157.618 65.868V61.948H156.694V72H157.618ZM169.831 65.7C169.537 65.336 169.187 65.042 168.767 64.846C168.347 64.65 167.885 64.552 167.381 64.552C166.877 64.552 166.415 64.65 165.995 64.846C165.575 65.042 165.225 65.336 164.931 65.7C164.651 66.036 164.455 66.442 164.315 66.89C164.175 67.338 164.105 67.828 164.105 68.346C164.105 68.878 164.175 69.368 164.315 69.816C164.455 70.264 164.651 70.656 164.931 70.992C165.225 71.37 165.575 71.65 165.995 71.846C166.415 72.042 166.877 72.14 167.381 72.14C167.885 72.14 168.347 72.042 168.767 71.846C169.187 71.65 169.537 71.37 169.831 70.992C170.111 70.656 170.321 70.264 170.461 69.816C170.601 69.368 170.671 68.878 170.671 68.346C170.671 67.828 170.601 67.338 170.461 66.89C170.321 66.442 170.111 66.036 169.831 65.7ZM167.381 65.35C168.081 65.35 168.655 65.63 169.089 66.176C169.509 66.722 169.733 67.45 169.733 68.346C169.733 69.256 169.509 69.984 169.089 70.53C168.655 71.076 168.081 71.342 167.381 71.342C166.667 71.342 166.093 71.076 165.673 70.53C165.239 69.984 165.029 69.256 165.029 68.346C165.029 67.45 165.239 66.722 165.673 66.176C166.093 65.63 166.667 65.35 167.381 65.35ZM175.453 64.622C174.977 64.622 174.571 64.762 174.221 65.014C173.857 65.266 173.591 65.63 173.409 66.078V64.692H172.485V72H173.409V67.898C173.409 67.226 173.591 66.666 173.983 66.218C174.361 65.77 174.823 65.546 175.383 65.546C175.495 65.546 175.607 65.56 175.705 65.56C175.789 65.574 175.887 65.588 175.985 65.602V64.678C175.901 64.664 175.817 64.65 175.733 64.636C175.635 64.636 175.537 64.622 175.453 64.622ZM180.083 72.14C180.797 72.14 181.413 71.958 181.917 71.58C182.421 71.216 182.785 70.684 182.981 70.012L182.141 69.746C182.029 70.25 181.791 70.628 181.427 70.908C181.063 71.188 180.615 71.328 180.083 71.328C179.355 71.328 178.781 71.062 178.333 70.53C177.885 69.998 177.661 69.298 177.661 68.416H183.037V68.108C183.037 67.03 182.771 66.162 182.239 65.518C181.707 64.874 180.965 64.552 180.041 64.552C179.537 64.552 179.089 64.65 178.669 64.846C178.249 65.042 177.899 65.336 177.605 65.714C177.325 66.05 177.129 66.442 176.989 66.89C176.849 67.338 176.779 67.828 176.779 68.346C176.779 69.48 177.073 70.39 177.689 71.09C178.291 71.79 179.089 72.14 180.083 72.14ZM180.041 65.364C180.657 65.364 181.161 65.574 181.525 65.994C181.889 66.414 182.071 66.988 182.099 67.688H177.703C177.801 66.974 178.067 66.414 178.487 65.994C178.907 65.574 179.425 65.364 180.041 65.364Z" fill="black" fill-opacity="0.6"/>
</svg>
