<svg width="122" height="40" viewBox="0 0 122 40" fill="none" xmlns="http://www.w3.org/2000/svg">
<circle cx="20" cy="20" r="20" fill="#FFE1DA"/>
<path d="M19.8 9C14.96 9 11 12.96 11 17.8C11 23.74 18.7 30.45 19.03 30.78C19.25 30.89 19.58 31 19.8 31C20.02 31 20.35 30.89 20.57 30.78C20.9 30.45 28.6 23.74 28.6 17.8C28.6 12.96 24.64 9 19.8 9ZM19.8 28.47C17.49 26.27 13.2 21.54 13.2 17.8C13.2 14.17 16.17 11.2 19.8 11.2C23.43 11.2 26.4 14.17 26.4 17.8C26.4 21.43 22.11 26.27 19.8 28.47ZM19.8 13.4C17.38 13.4 15.4 15.38 15.4 17.8C15.4 20.22 17.38 22.2 19.8 22.2C22.22 22.2 24.2 20.22 24.2 17.8C24.2 15.38 22.22 13.4 19.8 13.4ZM19.8 20C18.59 20 17.6 19.01 17.6 17.8C17.6 16.59 18.59 15.6 19.8 15.6C21.01 15.6 22 16.59 22 17.8C22 19.01 21.01 20 19.8 20Z" fill="#FF6A49"/>
<path d="M57.1061 26V25.024H51.1061V14.512H49.9861V26H57.1061ZM63.4371 24.912C63.4691 25.36 63.6611 25.68 64.0131 25.872C64.3491 26.064 64.8291 26.112 65.4691 26.016V25.12C65.1491 25.216 64.9091 25.216 64.7171 25.104C64.5251 24.992 64.4291 24.8 64.4291 24.512V20.064C64.4291 19.248 64.1731 18.608 63.6771 18.16C63.1651 17.712 62.4611 17.488 61.5651 17.488C60.7651 17.488 60.0931 17.696 59.5171 18.096C58.9411 18.512 58.5411 19.056 58.3491 19.728L59.3571 20.032C59.4851 19.52 59.7411 19.12 60.1091 18.848C60.4771 18.576 60.9571 18.432 61.5331 18.432C62.1251 18.432 62.5731 18.576 62.8931 18.864C63.2131 19.152 63.3731 19.568 63.3731 20.112V20.624L61.5651 20.992C60.3171 21.248 59.4371 21.584 58.8931 22.032C58.3491 22.48 58.0931 23.072 58.0931 23.792C58.0931 24.512 58.3331 25.088 58.8451 25.52C59.3411 25.952 59.9811 26.16 60.7811 26.16C61.3251 26.16 61.8371 26.048 62.3171 25.824C62.7971 25.6 63.1651 25.296 63.4371 24.912ZM60.8931 25.28C60.3651 25.28 59.9491 25.152 59.6291 24.88C59.3091 24.608 59.1651 24.24 59.1651 23.776C59.1651 23.264 59.3411 22.848 59.7251 22.56C60.1091 22.272 60.8131 22.016 61.8691 21.792L63.3731 21.472V23.232C63.3731 23.808 63.1331 24.288 62.6531 24.688C62.1731 25.088 61.5811 25.28 60.8931 25.28ZM68.2125 26V20.944C68.2125 20.608 68.2605 20.288 68.3885 20C68.5005 19.712 68.6765 19.44 68.9005 19.2C69.1245 18.976 69.3805 18.8 69.6845 18.672C69.9725 18.544 70.2765 18.48 70.5965 18.48C71.2205 18.48 71.7005 18.688 72.0365 19.072C72.3725 19.472 72.5485 20.032 72.5485 20.752V26H73.6045V20.512C73.6045 19.584 73.3485 18.848 72.8685 18.304C72.3885 17.76 71.7165 17.488 70.8525 17.488C70.2765 17.488 69.7645 17.632 69.3165 17.888C68.8525 18.16 68.4845 18.528 68.2125 18.992V14.512H67.1565V26H68.2125ZM82.171 18.8C81.835 18.384 81.435 18.048 80.955 17.824C80.475 17.6 79.947 17.488 79.371 17.488C78.795 17.488 78.267 17.6 77.787 17.824C77.307 18.048 76.907 18.384 76.571 18.8C76.251 19.184 76.027 19.648 75.867 20.16C75.707 20.672 75.627 21.232 75.627 21.824C75.627 22.432 75.707 22.992 75.867 23.504C76.027 24.016 76.251 24.464 76.571 24.848C76.907 25.28 77.307 25.6 77.787 25.824C78.267 26.048 78.795 26.16 79.371 26.16C79.947 26.16 80.475 26.048 80.955 25.824C81.435 25.6 81.835 25.28 82.171 24.848C82.491 24.464 82.731 24.016 82.891 23.504C83.051 22.992 83.131 22.432 83.131 21.824C83.131 21.232 83.051 20.672 82.891 20.16C82.731 19.648 82.491 19.184 82.171 18.8ZM79.371 18.4C80.171 18.4 80.827 18.72 81.323 19.344C81.803 19.968 82.059 20.8 82.059 21.824C82.059 22.864 81.803 23.696 81.323 24.32C80.827 24.944 80.171 25.248 79.371 25.248C78.555 25.248 77.899 24.944 77.419 24.32C76.923 23.696 76.683 22.864 76.683 21.824C76.683 20.8 76.923 19.968 77.419 19.344C77.899 18.72 78.555 18.4 79.371 18.4ZM88.5954 17.568C88.0514 17.568 87.5874 17.728 87.1874 18.016C86.7714 18.304 86.4674 18.72 86.2594 19.232V17.648H85.2034V26H86.2594V21.312C86.2594 20.544 86.4674 19.904 86.9154 19.392C87.3474 18.88 87.8754 18.624 88.5154 18.624C88.6434 18.624 88.7714 18.64 88.8834 18.64C88.9794 18.656 89.0914 18.672 89.2034 18.688V17.632C89.1074 17.616 89.0114 17.6 88.9154 17.584C88.8034 17.584 88.6914 17.568 88.5954 17.568ZM93.8874 26.16C94.7034 26.16 95.4074 25.952 95.9834 25.52C96.5594 25.104 96.9754 24.496 97.1994 23.728L96.2394 23.424C96.1114 24 95.8394 24.432 95.4234 24.752C95.0074 25.072 94.4954 25.232 93.8874 25.232C93.0554 25.232 92.3994 24.928 91.8874 24.32C91.3754 23.712 91.1194 22.912 91.1194 21.904H97.2634V21.552C97.2634 20.32 96.9594 19.328 96.3514 18.592C95.7434 17.856 94.8954 17.488 93.8394 17.488C93.2634 17.488 92.7514 17.6 92.2714 17.824C91.7914 18.048 91.3914 18.384 91.0554 18.816C90.7354 19.2 90.5114 19.648 90.3514 20.16C90.1914 20.672 90.1114 21.232 90.1114 21.824C90.1114 23.12 90.4474 24.16 91.1514 24.96C91.8394 25.76 92.7514 26.16 93.8874 26.16ZM93.8394 18.416C94.5434 18.416 95.1194 18.656 95.5354 19.136C95.9514 19.616 96.1594 20.272 96.1914 21.072H91.1674C91.2794 20.256 91.5834 19.616 92.0634 19.136C92.5434 18.656 93.1354 18.416 93.8394 18.416Z" fill="#FF6A49"/>
<path d="M118.998 17.326L114 22.198L109.002 17.326C108.913 17.2388 108.793 17.19 108.668 17.19C108.543 17.19 108.423 17.2388 108.334 17.326C108.291 17.3684 108.256 17.4189 108.233 17.4748C108.209 17.5306 108.197 17.5905 108.197 17.651C108.197 17.7116 108.209 17.7715 108.233 17.8273C108.256 17.8831 108.291 17.9337 108.334 17.976L113.651 23.16C113.744 23.251 113.87 23.302 114 23.302C114.13 23.302 114.256 23.251 114.349 23.16L119.666 17.977C119.709 17.9346 119.744 17.8839 119.768 17.8279C119.791 17.7719 119.804 17.7118 119.804 17.651C119.804 17.5902 119.791 17.5301 119.768 17.4741C119.744 17.4181 119.709 17.3674 119.666 17.325C119.577 17.2378 119.457 17.189 119.332 17.189C119.207 17.189 119.087 17.2378 118.998 17.325V17.326Z" fill="#FF6A49"/>
</svg>
