<svg width="20" height="20" viewBox="0 0 20 20" fill="none" xmlns="http://www.w3.org/2000/svg">
<path d="M15.8333 5.83317C15.8333 4.9165 15.0833 4.1665 14.1666 4.1665H11.6666V5.83317H14.1666V8.0415L11.2666 11.6665H8.33329V7.49984H4.99996C3.15829 7.49984 1.66663 8.9915 1.66663 10.8332V13.3332H3.33329C3.33329 14.7165 4.44996 15.8332 5.83329 15.8332C7.21663 15.8332 8.33329 14.7165 8.33329 13.3332H12.0666L15.8333 8.62484V5.83317ZM3.33329 11.6665V10.8332C3.33329 9.9165 4.08329 9.1665 4.99996 9.1665H6.66663V11.6665H3.33329ZM5.83329 14.1665C5.37496 14.1665 4.99996 13.7915 4.99996 13.3332H6.66663C6.66663 13.7915 6.29163 14.1665 5.83329 14.1665Z" fill="black" fill-opacity="0.6"/>
<path d="M4.16663 5H8.33329V6.66667H4.16663V5ZM15.8333 10.8333C14.45 10.8333 13.3333 11.95 13.3333 13.3333C13.3333 14.7167 14.45 15.8333 15.8333 15.8333C17.2166 15.8333 18.3333 14.7167 18.3333 13.3333C18.3333 11.95 17.2166 10.8333 15.8333 10.8333ZM15.8333 14.1667C15.375 14.1667 15 13.7917 15 13.3333C15 12.875 15.375 12.5 15.8333 12.5C16.2916 12.5 16.6666 12.875 16.6666 13.3333C16.6666 13.7917 16.2916 14.1667 15.8333 14.1667Z" fill="black" fill-opacity="0.6"/>
</svg>
