<svg width="322" height="50" viewBox="0 0 322 50" fill="none" xmlns="http://www.w3.org/2000/svg">
<path d="M1.904 14.416C2.384 14.992 2.976 15.424 3.648 15.728C4.32 16.032 5.04 16.176 5.84 16.176C6.624 16.176 7.36 16.032 8.032 15.728C8.704 15.424 9.28 14.992 9.776 14.416C10.224 13.888 10.576 13.264 10.816 12.56C11.056 11.856 11.184 11.088 11.184 10.256C11.184 9.44 11.056 8.672 10.816 7.968C10.576 7.264 10.224 6.64 9.776 6.096C9.28 5.536 8.704 5.104 8.032 4.8C7.36 4.496 6.624 4.336 5.84 4.336C5.04 4.336 4.32 4.496 3.648 4.8C2.976 5.104 2.384 5.536 1.904 6.096C1.44 6.64 1.088 7.264 0.848 7.968C0.608 8.672 0.496 9.44 0.496 10.256C0.496 11.088 0.608 11.856 0.848 12.56C1.088 13.264 1.44 13.888 1.904 14.416ZM5.84 14.368C4.848 14.368 4.064 14 3.456 13.232C2.848 12.48 2.544 11.488 2.544 10.256C2.544 9.04 2.848 8.048 3.456 7.28C4.064 6.528 4.848 6.144 5.84 6.144C6.816 6.144 7.616 6.528 8.224 7.28C8.832 8.048 9.136 9.04 9.136 10.256C9.136 11.488 8.832 12.48 8.224 13.232C7.616 14 6.816 14.368 5.84 14.368ZM16.9195 7.552C16.3915 7.552 15.9275 7.68 15.5115 7.904C15.0955 8.144 14.8075 8.464 14.6155 8.848V7.6H12.6955V16H14.6155V11.584C14.6155 10.944 14.8075 10.432 15.2075 10.048C15.5915 9.664 16.1195 9.456 16.7595 9.456C16.8875 9.456 16.9995 9.472 17.1115 9.472C17.2075 9.472 17.3355 9.488 17.4635 9.504V7.584C17.3515 7.584 17.2555 7.568 17.1755 7.568C17.0795 7.568 16.9995 7.552 16.9195 7.552ZM21.6448 16.176C22.1408 16.176 22.5888 16.096 23.0048 15.904C23.4208 15.728 23.7728 15.472 24.0608 15.12V16H25.9808V4.512H24.0608V8.496C23.7728 8.16 23.4208 7.904 23.0048 7.712C22.5888 7.536 22.1408 7.44 21.6448 7.44C21.0688 7.44 20.5568 7.568 20.0768 7.792C19.5968 8.016 19.1968 8.352 18.8768 8.784C18.5728 9.184 18.3488 9.648 18.1888 10.16C18.0288 10.672 17.9488 11.232 17.9488 11.808C17.9488 12.4 18.0288 12.96 18.1888 13.472C18.3488 13.984 18.5728 14.448 18.8768 14.832C19.1968 15.28 19.5968 15.616 20.0768 15.84C20.5568 16.064 21.0688 16.176 21.6448 16.176ZM24.1088 12.064C24.1088 12.8 23.9168 13.392 23.5328 13.84C23.1488 14.288 22.6368 14.496 22.0288 14.496C21.3568 14.496 20.8288 14.256 20.4448 13.776C20.0608 13.296 19.8848 12.64 19.8848 11.808C19.8848 10.976 20.0608 10.32 20.4448 9.84C20.8288 9.36 21.3568 9.12 22.0288 9.12C22.6528 9.12 23.1488 9.344 23.5328 9.792C23.9168 10.24 24.1088 10.832 24.1088 11.568V12.064ZM31.5444 16.176C32.3764 16.176 33.0964 15.968 33.7364 15.552C34.3764 15.136 34.8404 14.56 35.1444 13.824L33.4964 13.2C33.3684 13.616 33.1284 13.952 32.7764 14.192C32.4244 14.432 32.0244 14.544 31.5444 14.544C30.9204 14.544 30.4084 14.336 30.0084 13.92C29.6084 13.504 29.3684 12.944 29.3044 12.224H35.1924V11.584C35.1924 10.352 34.8564 9.36 34.1844 8.592C33.5124 7.824 32.6004 7.44 31.4644 7.44C30.8884 7.44 30.3444 7.552 29.8484 7.776C29.3364 8 28.9044 8.336 28.5364 8.752C28.1844 9.152 27.9284 9.616 27.7364 10.144C27.5444 10.672 27.4644 11.232 27.4644 11.808C27.4644 12.432 27.5444 13.008 27.7364 13.536C27.9284 14.064 28.2004 14.528 28.5524 14.912C28.9204 15.328 29.3684 15.632 29.8804 15.856C30.3924 16.08 30.9364 16.176 31.5444 16.176ZM31.4484 9.056C31.9924 9.056 32.4404 9.216 32.7604 9.536C33.0804 9.856 33.2404 10.272 33.2564 10.784H29.4004C29.5284 10.24 29.7844 9.808 30.1364 9.504C30.4884 9.216 30.9364 9.056 31.4484 9.056ZM40.857 7.552C40.329 7.552 39.865 7.68 39.449 7.904C39.033 8.144 38.745 8.464 38.553 8.848V7.6H36.633V16H38.553V11.584C38.553 10.944 38.745 10.432 39.145 10.048C39.529 9.664 40.057 9.456 40.697 9.456C40.825 9.456 40.937 9.472 41.049 9.472C41.145 9.472 41.273 9.488 41.401 9.504V7.584C41.289 7.584 41.193 7.568 41.113 7.568C41.017 7.568 40.937 7.552 40.857 7.552ZM53.5916 4.512V12.56L48.2156 4.512H46.1036V16H48.0716V7.568L53.7676 16H55.5596V4.512H53.5916ZM64.1446 8.72C63.7606 8.304 63.3286 8 62.8166 7.776C62.3046 7.552 61.7606 7.44 61.1686 7.44C60.5606 7.44 60.0166 7.552 59.5046 7.776C58.9926 8 58.5606 8.304 58.1926 8.72C57.8406 9.104 57.5686 9.568 57.3926 10.096C57.2006 10.624 57.1206 11.2 57.1206 11.808C57.1206 12.432 57.2006 13.008 57.3926 13.536C57.5686 14.064 57.8406 14.512 58.1926 14.896C58.5606 15.312 58.9926 15.632 59.5046 15.856C60.0166 16.08 60.5606 16.176 61.1686 16.176C61.7606 16.176 62.3046 16.08 62.8166 15.856C63.3286 15.632 63.7606 15.312 64.1446 14.896C64.4966 14.512 64.7526 14.064 64.9446 13.536C65.1206 13.008 65.2166 12.432 65.2166 11.808C65.2166 11.2 65.1206 10.624 64.9446 10.096C64.7526 9.568 64.4966 9.104 64.1446 8.72ZM61.1686 9.056C61.8086 9.056 62.3206 9.312 62.7046 9.792C63.0886 10.288 63.2806 10.96 63.2806 11.808C63.2806 12.672 63.0886 13.344 62.7046 13.824C62.3206 14.32 61.8086 14.56 61.1686 14.56C60.5126 14.56 60.0006 14.32 59.6166 13.824C59.2326 13.344 59.0566 12.672 59.0566 11.808C59.0566 10.96 59.2326 10.288 59.6166 9.792C60.0006 9.312 60.5126 9.056 61.1686 9.056ZM69.3511 16.096C69.5751 16.096 69.7991 16.096 70.0391 16.064C70.2631 16.048 70.4871 16.016 70.6791 15.984V14.368C70.4871 14.4 70.3431 14.416 70.2471 14.416C70.1351 14.416 70.0231 14.416 69.8951 14.416C69.4471 14.416 69.1431 14.352 68.9991 14.224C68.8391 14.096 68.7751 13.888 68.7751 13.584V9.232H70.5351V7.6H68.7751V5.136H66.8871V7.6H65.7191V9.232H66.8871V13.888C66.8871 14.672 67.0631 15.232 67.4471 15.584C67.8311 15.936 68.4551 16.096 69.3511 16.096ZM75.5913 16.176C76.4233 16.176 77.1433 15.968 77.7833 15.552C78.4233 15.136 78.8873 14.56 79.1913 13.824L77.5433 13.2C77.4153 13.616 77.1753 13.952 76.8233 14.192C76.4713 14.432 76.0713 14.544 75.5913 14.544C74.9673 14.544 74.4553 14.336 74.0553 13.92C73.6553 13.504 73.4153 12.944 73.3513 12.224H79.2393V11.584C79.2393 10.352 78.9033 9.36 78.2313 8.592C77.5593 7.824 76.6473 7.44 75.5113 7.44C74.9353 7.44 74.3913 7.552 73.8953 7.776C73.3832 8 72.9513 8.336 72.5833 8.752C72.2313 9.152 71.9753 9.616 71.7833 10.144C71.5913 10.672 71.5113 11.232 71.5113 11.808C71.5113 12.432 71.5913 13.008 71.7833 13.536C71.9753 14.064 72.2473 14.528 72.5993 14.912C72.9673 15.328 73.4153 15.632 73.9273 15.856C74.4393 16.08 74.9833 16.176 75.5913 16.176ZM75.4953 9.056C76.0393 9.056 76.4873 9.216 76.8073 9.536C77.1273 9.856 77.2873 10.272 77.3033 10.784H73.4473C73.5753 10.24 73.8313 9.808 74.1833 9.504C74.5353 9.216 74.9833 9.056 75.4953 9.056Z" fill="black"/>
<path d="M5.054 47C6.062 47 6.846 46.762 7.42 46.272C7.994 45.796 8.288 45.124 8.288 44.256C8.288 43.626 8.106 43.094 7.756 42.646C7.392 42.198 6.902 41.904 6.286 41.75C6.804 41.596 7.21 41.33 7.504 40.938C7.784 40.56 7.938 40.098 7.938 39.538C7.938 38.698 7.658 38.068 7.112 37.62C6.552 37.172 5.754 36.948 4.718 36.948H1.232V47H5.054ZM2.184 37.788H4.662C5.418 37.788 6.006 37.942 6.398 38.25C6.79 38.558 6.986 39.006 6.986 39.594C6.986 40.182 6.79 40.63 6.398 40.938C6.006 41.246 5.418 41.386 4.662 41.386H2.184V37.788ZM5.026 42.24C5.754 42.24 6.314 42.422 6.72 42.758C7.126 43.108 7.336 43.584 7.336 44.2C7.336 44.816 7.126 45.306 6.72 45.642C6.314 45.992 5.754 46.16 5.026 46.16H2.184V42.24H5.026ZM11.0551 47V42.576C11.0551 42.282 11.0971 42.002 11.2091 41.75C11.3071 41.498 11.4611 41.26 11.6571 41.05C11.8531 40.854 12.0771 40.7 12.3431 40.588C12.5951 40.476 12.8611 40.42 13.1411 40.42C13.6871 40.42 14.1071 40.602 14.4011 40.938C14.6951 41.288 14.8491 41.778 14.8491 42.408V47H15.7731V42.198C15.7731 41.386 15.5491 40.742 15.1291 40.266C14.7091 39.79 14.1211 39.552 13.3651 39.552C12.8611 39.552 12.4131 39.678 12.0211 39.902C11.6151 40.14 11.2931 40.462 11.0551 40.868V36.948H10.1311V47H11.0551ZM22.1208 46.048C22.1488 46.44 22.3168 46.72 22.6248 46.888C22.9188 47.056 23.3388 47.098 23.8988 47.014V46.23C23.6188 46.314 23.4088 46.314 23.2408 46.216C23.0728 46.118 22.9888 45.95 22.9888 45.698V41.806C22.9888 41.092 22.7648 40.532 22.3308 40.14C21.8828 39.748 21.2668 39.552 20.4828 39.552C19.7828 39.552 19.1948 39.734 18.6908 40.084C18.1868 40.448 17.8368 40.924 17.6688 41.512L18.5508 41.778C18.6628 41.33 18.8868 40.98 19.2088 40.742C19.5308 40.504 19.9508 40.378 20.4548 40.378C20.9728 40.378 21.3648 40.504 21.6448 40.756C21.9248 41.008 22.0648 41.372 22.0648 41.848V42.296L20.4828 42.618C19.3908 42.842 18.6208 43.136 18.1448 43.528C17.6688 43.92 17.4448 44.438 17.4448 45.068C17.4448 45.698 17.6548 46.202 18.1028 46.58C18.5368 46.958 19.0968 47.14 19.7968 47.14C20.2728 47.14 20.7208 47.042 21.1408 46.846C21.5608 46.65 21.8828 46.384 22.1208 46.048ZM19.8948 46.37C19.4328 46.37 19.0688 46.258 18.7888 46.02C18.5088 45.782 18.3828 45.46 18.3828 45.054C18.3828 44.606 18.5368 44.242 18.8728 43.99C19.2088 43.738 19.8248 43.514 20.7488 43.318L22.0648 43.038V44.578C22.0648 45.082 21.8548 45.502 21.4348 45.852C21.0148 46.202 20.4968 46.37 19.8948 46.37ZM26.3832 38.194V36.948H25.3052V38.194H26.3832ZM25.3752 39.692V47H26.2992V39.692H25.3752ZM33.162 41.078C33.344 40.882 33.554 40.714 33.806 40.602C34.058 40.49 34.31 40.42 34.562 40.42C35.094 40.42 35.5 40.602 35.78 40.938C36.06 41.288 36.2 41.778 36.2 42.408V47H37.124V42.548C37.124 42.268 37.166 42.002 37.264 41.75C37.348 41.498 37.488 41.274 37.684 41.078C37.866 40.882 38.076 40.714 38.328 40.602C38.58 40.49 38.832 40.42 39.084 40.42C39.616 40.42 40.022 40.602 40.302 40.938C40.582 41.288 40.722 41.778 40.722 42.408V47H41.646V42.198C41.646 41.4 41.422 40.756 41.002 40.28C40.582 39.804 40.008 39.552 39.28 39.552C38.776 39.552 38.3 39.692 37.88 39.944C37.446 40.21 37.124 40.56 36.9 40.98C36.732 40.532 36.466 40.182 36.102 39.93C35.738 39.678 35.318 39.552 34.814 39.552C34.338 39.552 33.918 39.678 33.526 39.902C33.134 40.14 32.826 40.462 32.602 40.868V39.692H31.678V47H32.602V42.548C32.602 42.268 32.644 42.002 32.742 41.75C32.826 41.498 32.966 41.274 33.162 41.078ZM47.9743 46.048C48.0023 46.44 48.1703 46.72 48.4783 46.888C48.7723 47.056 49.1923 47.098 49.7523 47.014V46.23C49.4723 46.314 49.2623 46.314 49.0943 46.216C48.9263 46.118 48.8423 45.95 48.8423 45.698V41.806C48.8423 41.092 48.6183 40.532 48.1843 40.14C47.7363 39.748 47.1203 39.552 46.3363 39.552C45.6363 39.552 45.0483 39.734 44.5443 40.084C44.0403 40.448 43.6903 40.924 43.5223 41.512L44.4043 41.778C44.5163 41.33 44.7403 40.98 45.0623 40.742C45.3843 40.504 45.8043 40.378 46.3083 40.378C46.8263 40.378 47.2183 40.504 47.4983 40.756C47.7783 41.008 47.9183 41.372 47.9183 41.848V42.296L46.3363 42.618C45.2443 42.842 44.4743 43.136 43.9983 43.528C43.5223 43.92 43.2983 44.438 43.2983 45.068C43.2983 45.698 43.5083 46.202 43.9563 46.58C44.3903 46.958 44.9503 47.14 45.6503 47.14C46.1263 47.14 46.5743 47.042 46.9943 46.846C47.4143 46.65 47.7363 46.384 47.9743 46.048ZM45.7483 46.37C45.2863 46.37 44.9223 46.258 44.6423 46.02C44.3623 45.782 44.2363 45.46 44.2363 45.054C44.2363 44.606 44.3903 44.242 44.7263 43.99C45.0623 43.738 45.6783 43.514 46.6023 43.318L47.9183 43.038V44.578C47.9183 45.082 47.7083 45.502 47.2883 45.852C46.8683 46.202 46.3503 46.37 45.7483 46.37ZM56.76 39.692H55.794L53.54 45.656L51.286 39.692H50.306L53.05 46.748L52.63 47.756C52.462 48.148 52.294 48.428 52.126 48.582C51.958 48.75 51.734 48.82 51.454 48.82C51.314 48.82 51.202 48.82 51.118 48.806C51.034 48.792 50.936 48.764 50.824 48.722V49.548C50.95 49.576 51.062 49.604 51.16 49.618C51.258 49.632 51.37 49.632 51.496 49.632C51.972 49.632 52.364 49.506 52.672 49.254C52.98 49.002 53.274 48.54 53.526 47.896L56.76 39.692ZM63.177 40.7C62.883 40.336 62.533 40.042 62.113 39.846C61.693 39.65 61.231 39.552 60.727 39.552C60.223 39.552 59.761 39.65 59.341 39.846C58.921 40.042 58.571 40.336 58.277 40.7C57.997 41.036 57.801 41.442 57.661 41.89C57.521 42.338 57.451 42.828 57.451 43.346C57.451 43.878 57.521 44.368 57.661 44.816C57.801 45.264 57.997 45.656 58.277 45.992C58.571 46.37 58.921 46.65 59.341 46.846C59.761 47.042 60.223 47.14 60.727 47.14C61.231 47.14 61.693 47.042 62.113 46.846C62.533 46.65 62.883 46.37 63.177 45.992C63.457 45.656 63.667 45.264 63.807 44.816C63.947 44.368 64.017 43.878 64.017 43.346C64.017 42.828 63.947 42.338 63.807 41.89C63.667 41.442 63.457 41.036 63.177 40.7ZM60.727 40.35C61.427 40.35 62.001 40.63 62.435 41.176C62.855 41.722 63.079 42.45 63.079 43.346C63.079 44.256 62.855 44.984 62.435 45.53C62.001 46.076 61.427 46.342 60.727 46.342C60.013 46.342 59.439 46.076 59.019 45.53C58.585 44.984 58.375 44.256 58.375 43.346C58.375 42.45 58.585 41.722 59.019 41.176C59.439 40.63 60.013 40.35 60.727 40.35ZM69.4678 46.202L73.8638 40.42V39.692H68.3758V40.49H72.7718L68.3198 46.3V47H73.9058V46.202H69.4678ZM79.652 46.048C79.68 46.44 79.848 46.72 80.156 46.888C80.45 47.056 80.87 47.098 81.43 47.014V46.23C81.15 46.314 80.94 46.314 80.772 46.216C80.604 46.118 80.52 45.95 80.52 45.698V41.806C80.52 41.092 80.296 40.532 79.862 40.14C79.414 39.748 78.798 39.552 78.014 39.552C77.314 39.552 76.726 39.734 76.222 40.084C75.718 40.448 75.368 40.924 75.2 41.512L76.082 41.778C76.194 41.33 76.418 40.98 76.74 40.742C77.062 40.504 77.482 40.378 77.986 40.378C78.504 40.378 78.896 40.504 79.176 40.756C79.456 41.008 79.596 41.372 79.596 41.848V42.296L78.014 42.618C76.922 42.842 76.152 43.136 75.676 43.528C75.2 43.92 74.976 44.438 74.976 45.068C74.976 45.698 75.186 46.202 75.634 46.58C76.068 46.958 76.628 47.14 77.328 47.14C77.804 47.14 78.252 47.042 78.672 46.846C79.092 46.65 79.414 46.384 79.652 46.048ZM77.426 46.37C76.964 46.37 76.6 46.258 76.32 46.02C76.04 45.782 75.914 45.46 75.914 45.054C75.914 44.606 76.068 44.242 76.404 43.99C76.74 43.738 77.356 43.514 78.28 43.318L79.596 43.038V44.578C79.596 45.082 79.386 45.502 78.966 45.852C78.546 46.202 78.028 46.37 77.426 46.37ZM88.4378 39.692H87.4718L85.2178 45.656L82.9638 39.692H81.9838L84.7278 46.748L84.3078 47.756C84.1398 48.148 83.9718 48.428 83.8038 48.582C83.6358 48.75 83.4118 48.82 83.1318 48.82C82.9918 48.82 82.8798 48.82 82.7958 48.806C82.7118 48.792 82.6138 48.764 82.5018 48.722V49.548C82.6278 49.576 82.7398 49.604 82.8378 49.618C82.9358 49.632 83.0478 49.632 83.1738 49.632C83.6498 49.632 84.0418 49.506 84.3498 49.254C84.6578 49.002 84.9518 48.54 85.2038 47.896L88.4378 39.692ZM92.2784 47.14C92.8104 47.14 93.2864 47.014 93.7064 46.762C94.1264 46.51 94.4624 46.146 94.6864 45.698V47H95.6104V36.948H94.6864V40.994C94.4624 40.546 94.1264 40.196 93.7064 39.944C93.2864 39.692 92.8104 39.552 92.2784 39.552C91.7884 39.552 91.3404 39.664 90.9344 39.86C90.5284 40.056 90.1924 40.35 89.9124 40.742C89.6604 41.078 89.4644 41.47 89.3384 41.918C89.1984 42.366 89.1424 42.842 89.1424 43.346C89.1424 43.85 89.1984 44.326 89.3384 44.774C89.4644 45.222 89.6604 45.614 89.9124 45.95C90.1924 46.342 90.5284 46.65 90.9344 46.846C91.3404 47.042 91.7884 47.14 92.2784 47.14ZM94.7004 43.668C94.7004 44.046 94.6444 44.396 94.5604 44.704C94.4624 45.012 94.3224 45.292 94.1404 45.516C93.9164 45.782 93.6644 45.978 93.3704 46.118C93.0624 46.258 92.7544 46.328 92.4324 46.328C91.7044 46.328 91.1304 46.062 90.7104 45.516C90.2764 44.97 90.0664 44.242 90.0664 43.346C90.0664 42.45 90.2764 41.736 90.7104 41.19C91.1304 40.658 91.7044 40.378 92.4324 40.378C92.7544 40.378 93.0624 40.462 93.3704 40.602C93.6784 40.742 93.9304 40.952 94.1404 41.204C94.3224 41.442 94.4624 41.722 94.5604 42.03C94.6444 42.338 94.7004 42.688 94.7004 43.066V43.668ZM101.992 46.048C102.02 46.44 102.188 46.72 102.496 46.888C102.79 47.056 103.21 47.098 103.77 47.014V46.23C103.49 46.314 103.28 46.314 103.112 46.216C102.944 46.118 102.86 45.95 102.86 45.698V41.806C102.86 41.092 102.636 40.532 102.202 40.14C101.754 39.748 101.138 39.552 100.354 39.552C99.6539 39.552 99.0659 39.734 98.5619 40.084C98.0579 40.448 97.7079 40.924 97.5399 41.512L98.4219 41.778C98.5339 41.33 98.7579 40.98 99.0799 40.742C99.4019 40.504 99.8219 40.378 100.326 40.378C100.844 40.378 101.236 40.504 101.516 40.756C101.796 41.008 101.936 41.372 101.936 41.848V42.296L100.354 42.618C99.2619 42.842 98.4919 43.136 98.0159 43.528C97.5399 43.92 97.3159 44.438 97.3159 45.068C97.3159 45.698 97.5259 46.202 97.9739 46.58C98.4079 46.958 98.9679 47.14 99.6679 47.14C100.144 47.14 100.592 47.042 101.012 46.846C101.432 46.65 101.754 46.384 101.992 46.048ZM99.7659 46.37C99.3039 46.37 98.9399 46.258 98.6599 46.02C98.3799 45.782 98.2539 45.46 98.2539 45.054C98.2539 44.606 98.4079 44.242 98.7439 43.99C99.0799 43.738 99.6959 43.514 100.62 43.318L101.936 43.038V44.578C101.936 45.082 101.726 45.502 101.306 45.852C100.886 46.202 100.368 46.37 99.7659 46.37ZM110.886 47.14C111.418 47.14 111.894 47.014 112.314 46.762C112.734 46.51 113.07 46.146 113.294 45.698V47H114.218V36.948H113.294V40.994C113.07 40.546 112.734 40.196 112.314 39.944C111.894 39.692 111.418 39.552 110.886 39.552C110.396 39.552 109.948 39.664 109.542 39.86C109.136 40.056 108.8 40.35 108.52 40.742C108.268 41.078 108.072 41.47 107.946 41.918C107.806 42.366 107.75 42.842 107.75 43.346C107.75 43.85 107.806 44.326 107.946 44.774C108.072 45.222 108.268 45.614 108.52 45.95C108.8 46.342 109.136 46.65 109.542 46.846C109.948 47.042 110.396 47.14 110.886 47.14ZM113.308 43.668C113.308 44.046 113.252 44.396 113.168 44.704C113.07 45.012 112.93 45.292 112.748 45.516C112.524 45.782 112.272 45.978 111.978 46.118C111.67 46.258 111.362 46.328 111.04 46.328C110.312 46.328 109.738 46.062 109.318 45.516C108.884 44.97 108.674 44.242 108.674 43.346C108.674 42.45 108.884 41.736 109.318 41.19C109.738 40.658 110.312 40.378 111.04 40.378C111.362 40.378 111.67 40.462 111.978 40.602C112.286 40.742 112.538 40.952 112.748 41.204C112.93 41.442 113.07 41.722 113.168 42.03C113.252 42.338 113.308 42.688 113.308 43.066V43.668ZM120.599 46.048C120.627 46.44 120.795 46.72 121.103 46.888C121.397 47.056 121.817 47.098 122.377 47.014V46.23C122.097 46.314 121.887 46.314 121.719 46.216C121.551 46.118 121.467 45.95 121.467 45.698V41.806C121.467 41.092 121.243 40.532 120.809 40.14C120.361 39.748 119.745 39.552 118.961 39.552C118.261 39.552 117.673 39.734 117.169 40.084C116.665 40.448 116.315 40.924 116.147 41.512L117.029 41.778C117.141 41.33 117.365 40.98 117.687 40.742C118.009 40.504 118.429 40.378 118.933 40.378C119.451 40.378 119.843 40.504 120.123 40.756C120.403 41.008 120.543 41.372 120.543 41.848V42.296L118.961 42.618C117.869 42.842 117.099 43.136 116.623 43.528C116.147 43.92 115.923 44.438 115.923 45.068C115.923 45.698 116.133 46.202 116.581 46.58C117.015 46.958 117.575 47.14 118.275 47.14C118.751 47.14 119.199 47.042 119.619 46.846C120.039 46.65 120.361 46.384 120.599 46.048ZM118.373 46.37C117.911 46.37 117.547 46.258 117.267 46.02C116.987 45.782 116.861 45.46 116.861 45.054C116.861 44.606 117.015 44.242 117.351 43.99C117.687 43.738 118.303 43.514 119.227 43.318L120.543 43.038V44.578C120.543 45.082 120.333 45.502 119.913 45.852C119.493 46.202 118.975 46.37 118.373 46.37ZM127.914 46.048C127.942 46.44 128.11 46.72 128.418 46.888C128.712 47.056 129.132 47.098 129.692 47.014V46.23C129.412 46.314 129.202 46.314 129.034 46.216C128.866 46.118 128.782 45.95 128.782 45.698V41.806C128.782 41.092 128.558 40.532 128.124 40.14C127.676 39.748 127.06 39.552 126.276 39.552C125.576 39.552 124.988 39.734 124.484 40.084C123.98 40.448 123.63 40.924 123.462 41.512L124.344 41.778C124.456 41.33 124.68 40.98 125.002 40.742C125.324 40.504 125.744 40.378 126.248 40.378C126.766 40.378 127.158 40.504 127.438 40.756C127.718 41.008 127.858 41.372 127.858 41.848V42.296L126.276 42.618C125.184 42.842 124.414 43.136 123.938 43.528C123.462 43.92 123.238 44.438 123.238 45.068C123.238 45.698 123.448 46.202 123.896 46.58C124.33 46.958 124.89 47.14 125.59 47.14C126.066 47.14 126.514 47.042 126.934 46.846C127.354 46.65 127.676 46.384 127.914 46.048ZM125.688 46.37C125.226 46.37 124.862 46.258 124.582 46.02C124.302 45.782 124.176 45.46 124.176 45.054C124.176 44.606 124.33 44.242 124.666 43.99C125.002 43.738 125.618 43.514 126.542 43.318L127.858 43.038V44.578C127.858 45.082 127.648 45.502 127.228 45.852C126.808 46.202 126.29 46.37 125.688 46.37ZM131.168 36.948V47H132.092V36.948H131.168ZM140.089 47.14C140.621 47.14 141.097 47.014 141.517 46.762C141.937 46.51 142.273 46.146 142.497 45.698V47H143.421V36.948H142.497V40.994C142.273 40.546 141.937 40.196 141.517 39.944C141.097 39.692 140.621 39.552 140.089 39.552C139.599 39.552 139.151 39.664 138.745 39.86C138.339 40.056 138.003 40.35 137.723 40.742C137.471 41.078 137.275 41.47 137.149 41.918C137.009 42.366 136.953 42.842 136.953 43.346C136.953 43.85 137.009 44.326 137.149 44.774C137.275 45.222 137.471 45.614 137.723 45.95C138.003 46.342 138.339 46.65 138.745 46.846C139.151 47.042 139.599 47.14 140.089 47.14ZM142.511 43.668C142.511 44.046 142.455 44.396 142.371 44.704C142.273 45.012 142.133 45.292 141.951 45.516C141.727 45.782 141.475 45.978 141.181 46.118C140.873 46.258 140.565 46.328 140.243 46.328C139.515 46.328 138.941 46.062 138.521 45.516C138.087 44.97 137.877 44.242 137.877 43.346C137.877 42.45 138.087 41.736 138.521 41.19C138.941 40.658 139.515 40.378 140.243 40.378C140.565 40.378 140.873 40.462 141.181 40.602C141.489 40.742 141.741 40.952 141.951 41.204C142.133 41.442 142.273 41.722 142.371 42.03C142.455 42.338 142.511 42.688 142.511 43.066V43.668ZM148.528 47.14C149.242 47.14 149.858 46.958 150.362 46.58C150.866 46.216 151.23 45.684 151.426 45.012L150.586 44.746C150.474 45.25 150.236 45.628 149.872 45.908C149.508 46.188 149.06 46.328 148.528 46.328C147.8 46.328 147.226 46.062 146.778 45.53C146.33 44.998 146.106 44.298 146.106 43.416H151.482V43.108C151.482 42.03 151.216 41.162 150.684 40.518C150.152 39.874 149.41 39.552 148.486 39.552C147.982 39.552 147.534 39.65 147.114 39.846C146.694 40.042 146.344 40.336 146.05 40.714C145.77 41.05 145.574 41.442 145.434 41.89C145.294 42.338 145.224 42.828 145.224 43.346C145.224 44.48 145.518 45.39 146.134 46.09C146.736 46.79 147.534 47.14 148.528 47.14ZM148.486 40.364C149.102 40.364 149.606 40.574 149.97 40.994C150.334 41.414 150.516 41.988 150.544 42.688H146.148C146.246 41.974 146.512 41.414 146.932 40.994C147.352 40.574 147.87 40.364 148.486 40.364ZM154.227 47V42.576C154.227 42.282 154.269 42.002 154.381 41.75C154.479 41.498 154.633 41.26 154.829 41.05C155.025 40.854 155.249 40.7 155.515 40.588C155.767 40.476 156.033 40.42 156.313 40.42C156.859 40.42 157.279 40.602 157.573 40.938C157.867 41.288 158.021 41.778 158.021 42.408V47H158.945V42.198C158.945 41.386 158.721 40.742 158.301 40.266C157.881 39.79 157.293 39.552 156.537 39.552C156.033 39.552 155.585 39.678 155.193 39.902C154.787 40.14 154.465 40.462 154.227 40.868V39.692H153.303V47H154.227ZM165.293 46.048C165.321 46.44 165.489 46.72 165.797 46.888C166.091 47.056 166.511 47.098 167.071 47.014V46.23C166.791 46.314 166.581 46.314 166.413 46.216C166.245 46.118 166.161 45.95 166.161 45.698V41.806C166.161 41.092 165.937 40.532 165.503 40.14C165.055 39.748 164.439 39.552 163.655 39.552C162.955 39.552 162.367 39.734 161.863 40.084C161.359 40.448 161.009 40.924 160.841 41.512L161.723 41.778C161.835 41.33 162.059 40.98 162.381 40.742C162.703 40.504 163.123 40.378 163.627 40.378C164.145 40.378 164.537 40.504 164.817 40.756C165.097 41.008 165.237 41.372 165.237 41.848V42.296L163.655 42.618C162.563 42.842 161.793 43.136 161.317 43.528C160.841 43.92 160.617 44.438 160.617 45.068C160.617 45.698 160.827 46.202 161.275 46.58C161.709 46.958 162.269 47.14 162.969 47.14C163.445 47.14 163.893 47.042 164.313 46.846C164.733 46.65 165.055 46.384 165.293 46.048ZM163.067 46.37C162.605 46.37 162.241 46.258 161.961 46.02C161.681 45.782 161.555 45.46 161.555 45.054C161.555 44.606 161.709 44.242 162.045 43.99C162.381 43.738 162.997 43.514 163.921 43.318L165.237 43.038V44.578C165.237 45.082 165.027 45.502 164.607 45.852C164.187 46.202 163.669 46.37 163.067 46.37ZM169.76 47V45.656H168.514V47H169.76ZM174.933 47H181.303V46.146H175.913V42.226H180.491V41.372H175.913V37.802H181.303V36.948H174.933V47ZM183.039 36.948V47H183.963V44.452L185.153 43.262L187.883 47H188.975L185.797 42.618L188.737 39.692H187.547L183.963 43.374V36.948H183.039ZM199.101 45.95C199.353 45.614 199.535 45.222 199.675 44.774C199.801 44.326 199.871 43.85 199.871 43.346C199.871 42.842 199.801 42.366 199.675 41.918C199.535 41.47 199.353 41.078 199.101 40.742C198.821 40.35 198.471 40.056 198.065 39.86C197.659 39.664 197.211 39.552 196.735 39.552C196.203 39.552 195.713 39.692 195.293 39.944C194.873 40.196 194.551 40.546 194.327 40.994V39.692H193.403V49.52H194.327V45.698C194.551 46.146 194.873 46.51 195.293 46.762C195.713 47.014 196.203 47.14 196.735 47.14C197.211 47.14 197.659 47.042 198.065 46.846C198.471 46.65 198.821 46.342 199.101 45.95ZM194.873 41.204C195.069 40.952 195.321 40.742 195.629 40.602C195.937 40.462 196.245 40.378 196.581 40.378C197.295 40.378 197.869 40.658 198.303 41.19C198.723 41.736 198.947 42.45 198.947 43.346C198.947 44.242 198.723 44.97 198.303 45.516C197.869 46.062 197.295 46.328 196.581 46.328C196.245 46.328 195.937 46.258 195.643 46.118C195.335 45.978 195.083 45.782 194.873 45.516C194.677 45.292 194.537 45.012 194.453 44.704C194.355 44.396 194.313 44.046 194.313 43.668V43.066C194.313 42.688 194.355 42.338 194.453 42.03C194.537 41.722 194.677 41.442 194.873 41.204ZM204.487 47.14C205.201 47.14 205.817 46.958 206.321 46.58C206.825 46.216 207.189 45.684 207.385 45.012L206.545 44.746C206.433 45.25 206.195 45.628 205.831 45.908C205.467 46.188 205.019 46.328 204.487 46.328C203.759 46.328 203.185 46.062 202.737 45.53C202.289 44.998 202.065 44.298 202.065 43.416H207.441V43.108C207.441 42.03 207.175 41.162 206.643 40.518C206.111 39.874 205.369 39.552 204.445 39.552C203.941 39.552 203.493 39.65 203.073 39.846C202.653 40.042 202.303 40.336 202.009 40.714C201.729 41.05 201.533 41.442 201.393 41.89C201.253 42.338 201.183 42.828 201.183 43.346C201.183 44.48 201.477 45.39 202.093 46.09C202.695 46.79 203.493 47.14 204.487 47.14ZM204.445 40.364C205.061 40.364 205.565 40.574 205.929 40.994C206.293 41.414 206.475 41.988 206.503 42.688H202.107C202.205 41.974 202.471 41.414 202.891 40.994C203.311 40.574 203.829 40.364 204.445 40.364ZM214.96 45.95C215.212 45.614 215.394 45.222 215.534 44.774C215.66 44.326 215.73 43.85 215.73 43.346C215.73 42.842 215.66 42.366 215.534 41.918C215.394 41.47 215.212 41.078 214.96 40.742C214.68 40.35 214.33 40.056 213.924 39.86C213.518 39.664 213.07 39.552 212.594 39.552C212.062 39.552 211.572 39.692 211.152 39.944C210.732 40.196 210.41 40.546 210.186 40.994V39.692H209.262V49.52H210.186V45.698C210.41 46.146 210.732 46.51 211.152 46.762C211.572 47.014 212.062 47.14 212.594 47.14C213.07 47.14 213.518 47.042 213.924 46.846C214.33 46.65 214.68 46.342 214.96 45.95ZM210.732 41.204C210.928 40.952 211.18 40.742 211.488 40.602C211.796 40.462 212.104 40.378 212.44 40.378C213.154 40.378 213.728 40.658 214.162 41.19C214.582 41.736 214.806 42.45 214.806 43.346C214.806 44.242 214.582 44.97 214.162 45.516C213.728 46.062 213.154 46.328 212.44 46.328C212.104 46.328 211.796 46.258 211.502 46.118C211.194 45.978 210.942 45.782 210.732 45.516C210.536 45.292 210.396 45.012 210.312 44.704C210.214 44.396 210.172 44.046 210.172 43.668V43.066C210.172 42.688 210.214 42.338 210.312 42.03C210.396 41.722 210.536 41.442 210.732 41.204ZM219.815 47.14C220.585 47.14 221.229 46.944 221.747 46.524C222.251 46.104 222.517 45.572 222.517 44.928C222.517 44.592 222.447 44.284 222.307 44.032C222.167 43.78 221.943 43.57 221.649 43.402C221.495 43.318 221.313 43.248 221.103 43.164C220.893 43.094 220.487 42.982 219.899 42.842C219.507 42.758 219.241 42.688 219.101 42.646C218.961 42.618 218.835 42.576 218.737 42.52C218.499 42.422 218.331 42.296 218.219 42.156C218.107 42.016 218.065 41.848 218.065 41.624C218.065 41.232 218.205 40.924 218.499 40.686C218.793 40.462 219.185 40.336 219.675 40.336C220.151 40.336 220.571 40.462 220.921 40.686C221.271 40.91 221.537 41.232 221.705 41.652L222.419 41.176C222.223 40.7 221.887 40.308 221.397 40C220.907 39.706 220.347 39.552 219.717 39.552C218.975 39.552 218.359 39.762 217.883 40.154C217.407 40.546 217.169 41.05 217.169 41.666C217.169 42.002 217.225 42.296 217.365 42.534C217.491 42.772 217.687 42.968 217.967 43.122C218.107 43.206 218.275 43.29 218.485 43.36C218.681 43.43 219.059 43.528 219.619 43.654C220.067 43.766 220.375 43.836 220.515 43.878C220.655 43.92 220.795 43.962 220.907 44.004C221.159 44.116 221.341 44.242 221.453 44.396C221.565 44.55 221.621 44.746 221.621 44.984C221.621 45.404 221.439 45.74 221.103 45.992C220.767 46.244 220.333 46.37 219.815 46.37C219.269 46.37 218.779 46.23 218.359 45.95C217.939 45.67 217.645 45.306 217.477 44.83L216.721 45.334C216.945 45.894 217.337 46.342 217.897 46.664C218.457 46.986 219.087 47.14 219.815 47.14ZM225.268 38.194V36.948H224.19V38.194H225.268ZM224.26 39.692V47H225.184V39.692H224.26ZM232.929 36.808C232.271 36.808 231.753 37.004 231.389 37.396C231.011 37.788 230.829 38.334 230.829 39.02V39.692H229.681V40.49H230.829V47H231.767V40.49H233.503V39.692H231.767V39.09C231.767 38.6 231.865 38.236 232.061 37.998C232.257 37.76 232.579 37.634 232.999 37.634C233.083 37.634 233.167 37.648 233.251 37.648C233.335 37.648 233.447 37.662 233.587 37.676V36.85C233.503 36.836 233.419 36.822 233.335 36.822C233.251 36.822 233.111 36.808 232.929 36.808ZM237.796 39.622C237.32 39.622 236.914 39.762 236.564 40.014C236.2 40.266 235.934 40.63 235.752 41.078V39.692H234.828V47H235.752V42.898C235.752 42.226 235.934 41.666 236.326 41.218C236.704 40.77 237.166 40.546 237.726 40.546C237.838 40.546 237.95 40.56 238.048 40.56C238.132 40.574 238.23 40.588 238.328 40.602V39.678C238.244 39.664 238.16 39.65 238.076 39.636C237.978 39.636 237.88 39.622 237.796 39.622ZM242.427 47.14C243.141 47.14 243.757 46.958 244.261 46.58C244.765 46.216 245.129 45.684 245.325 45.012L244.485 44.746C244.373 45.25 244.135 45.628 243.771 45.908C243.407 46.188 242.959 46.328 242.427 46.328C241.699 46.328 241.125 46.062 240.677 45.53C240.229 44.998 240.005 44.298 240.005 43.416H245.381V43.108C245.381 42.03 245.115 41.162 244.583 40.518C244.051 39.874 243.309 39.552 242.385 39.552C241.881 39.552 241.433 39.65 241.013 39.846C240.593 40.042 240.243 40.336 239.949 40.714C239.669 41.05 239.473 41.442 239.333 41.89C239.193 42.338 239.123 42.828 239.123 43.346C239.123 44.48 239.417 45.39 240.033 46.09C240.635 46.79 241.433 47.14 242.427 47.14ZM242.385 40.364C243.001 40.364 243.505 40.574 243.869 40.994C244.233 41.414 244.415 41.988 244.443 42.688H240.047C240.145 41.974 240.411 41.414 240.831 40.994C241.251 40.574 241.769 40.364 242.385 40.364ZM249.987 47.14C250.701 47.14 251.317 46.958 251.821 46.58C252.325 46.216 252.689 45.684 252.885 45.012L252.045 44.746C251.933 45.25 251.695 45.628 251.331 45.908C250.967 46.188 250.519 46.328 249.987 46.328C249.259 46.328 248.685 46.062 248.237 45.53C247.789 44.998 247.565 44.298 247.565 43.416H252.941V43.108C252.941 42.03 252.675 41.162 252.143 40.518C251.611 39.874 250.869 39.552 249.945 39.552C249.441 39.552 248.993 39.65 248.573 39.846C248.153 40.042 247.803 40.336 247.509 40.714C247.229 41.05 247.033 41.442 246.893 41.89C246.753 42.338 246.683 42.828 246.683 43.346C246.683 44.48 246.977 45.39 247.593 46.09C248.195 46.79 248.993 47.14 249.987 47.14ZM249.945 40.364C250.561 40.364 251.065 40.574 251.429 40.994C251.793 41.414 251.975 41.988 252.003 42.688H247.607C247.705 41.974 247.971 41.414 248.391 40.994C248.811 40.574 249.329 40.364 249.945 40.364ZM263.481 45.95C263.733 45.614 263.915 45.222 264.055 44.774C264.181 44.326 264.251 43.85 264.251 43.346C264.251 42.842 264.181 42.366 264.055 41.918C263.915 41.47 263.733 41.078 263.481 40.742C263.201 40.35 262.851 40.056 262.445 39.86C262.039 39.664 261.591 39.552 261.115 39.552C260.583 39.552 260.093 39.692 259.673 39.944C259.253 40.196 258.931 40.546 258.707 40.994V36.948H257.783V47H258.707V45.698C258.931 46.146 259.253 46.51 259.673 46.762C260.093 47.014 260.583 47.14 261.115 47.14C261.591 47.14 262.039 47.042 262.445 46.846C262.851 46.65 263.201 46.342 263.481 45.95ZM259.253 41.204C259.449 40.952 259.701 40.742 260.009 40.602C260.317 40.462 260.625 40.378 260.961 40.378C261.675 40.378 262.249 40.658 262.683 41.19C263.103 41.736 263.327 42.45 263.327 43.346C263.327 44.242 263.103 44.97 262.683 45.516C262.249 46.062 261.675 46.328 260.961 46.328C260.625 46.328 260.317 46.258 260.023 46.118C259.715 45.978 259.463 45.782 259.253 45.516C259.057 45.292 258.917 45.012 258.833 44.704C258.735 44.396 258.693 44.046 258.693 43.668V43.066C258.693 42.688 258.735 42.338 258.833 42.03C258.917 41.722 259.057 41.442 259.253 41.204ZM268.868 47.14C269.582 47.14 270.198 46.958 270.702 46.58C271.206 46.216 271.57 45.684 271.766 45.012L270.926 44.746C270.814 45.25 270.576 45.628 270.212 45.908C269.848 46.188 269.4 46.328 268.868 46.328C268.14 46.328 267.566 46.062 267.118 45.53C266.67 44.998 266.446 44.298 266.446 43.416H271.822V43.108C271.822 42.03 271.556 41.162 271.024 40.518C270.492 39.874 269.75 39.552 268.826 39.552C268.322 39.552 267.874 39.65 267.454 39.846C267.034 40.042 266.684 40.336 266.39 40.714C266.11 41.05 265.914 41.442 265.774 41.89C265.634 42.338 265.564 42.828 265.564 43.346C265.564 44.48 265.858 45.39 266.474 46.09C267.076 46.79 267.874 47.14 268.868 47.14ZM268.826 40.364C269.442 40.364 269.946 40.574 270.31 40.994C270.674 41.414 270.856 41.988 270.884 42.688H266.488C266.586 41.974 266.852 41.414 267.272 40.994C267.692 40.574 268.21 40.364 268.826 40.364ZM274.651 38.194V36.948H273.573V38.194H274.651ZM272.579 48.75C272.481 48.75 272.397 48.75 272.327 48.736C272.243 48.736 272.159 48.722 272.061 48.694V49.534C272.187 49.562 272.299 49.576 272.383 49.576C272.467 49.576 272.579 49.576 272.691 49.576C273.293 49.576 273.755 49.408 274.077 49.072C274.399 48.736 274.567 48.246 274.567 47.616V39.692H273.643V47.476C273.643 47.924 273.559 48.26 273.391 48.456C273.223 48.652 272.943 48.75 272.579 48.75ZM277.848 47V42.576C277.848 42.282 277.89 42.002 278.002 41.75C278.1 41.498 278.254 41.26 278.45 41.05C278.646 40.854 278.87 40.7 279.136 40.588C279.388 40.476 279.654 40.42 279.934 40.42C280.48 40.42 280.9 40.602 281.194 40.938C281.488 41.288 281.642 41.778 281.642 42.408V47H282.566V42.198C282.566 41.386 282.342 40.742 281.922 40.266C281.502 39.79 280.914 39.552 280.158 39.552C279.654 39.552 279.206 39.678 278.814 39.902C278.408 40.14 278.086 40.462 277.848 40.868V36.948H276.924V47H277.848ZM290.493 47.14C291.025 47.14 291.501 47.014 291.921 46.762C292.341 46.51 292.677 46.146 292.901 45.698V47H293.825V36.948H292.901V40.994C292.677 40.546 292.341 40.196 291.921 39.944C291.501 39.692 291.025 39.552 290.493 39.552C290.003 39.552 289.555 39.664 289.149 39.86C288.743 40.056 288.407 40.35 288.127 40.742C287.875 41.078 287.679 41.47 287.553 41.918C287.413 42.366 287.357 42.842 287.357 43.346C287.357 43.85 287.413 44.326 287.553 44.774C287.679 45.222 287.875 45.614 288.127 45.95C288.407 46.342 288.743 46.65 289.149 46.846C289.555 47.042 290.003 47.14 290.493 47.14ZM292.915 43.668C292.915 44.046 292.859 44.396 292.775 44.704C292.677 45.012 292.537 45.292 292.355 45.516C292.131 45.782 291.879 45.978 291.585 46.118C291.277 46.258 290.969 46.328 290.647 46.328C289.919 46.328 289.345 46.062 288.925 45.516C288.491 44.97 288.281 44.242 288.281 43.346C288.281 42.45 288.491 41.736 288.925 41.19C289.345 40.658 289.919 40.378 290.647 40.378C290.969 40.378 291.277 40.462 291.585 40.602C291.893 40.742 292.145 40.952 292.355 41.204C292.537 41.442 292.677 41.722 292.775 42.03C292.859 42.338 292.915 42.688 292.915 43.066V43.668ZM298.933 47.14C299.647 47.14 300.263 46.958 300.767 46.58C301.271 46.216 301.635 45.684 301.831 45.012L300.991 44.746C300.879 45.25 300.641 45.628 300.277 45.908C299.913 46.188 299.465 46.328 298.933 46.328C298.205 46.328 297.631 46.062 297.183 45.53C296.735 44.998 296.511 44.298 296.511 43.416H301.887V43.108C301.887 42.03 301.621 41.162 301.089 40.518C300.557 39.874 299.815 39.552 298.891 39.552C298.387 39.552 297.939 39.65 297.519 39.846C297.099 40.042 296.749 40.336 296.455 40.714C296.175 41.05 295.979 41.442 295.839 41.89C295.699 42.338 295.629 42.828 295.629 43.346C295.629 44.48 295.923 45.39 296.539 46.09C297.141 46.79 297.939 47.14 298.933 47.14ZM298.891 40.364C299.507 40.364 300.011 40.574 300.375 40.994C300.739 41.414 300.921 41.988 300.949 42.688H296.553C296.651 41.974 296.917 41.414 297.337 40.994C297.757 40.574 298.275 40.364 298.891 40.364ZM304.631 47V42.576C304.631 42.282 304.673 42.002 304.785 41.75C304.883 41.498 305.037 41.26 305.233 41.05C305.429 40.854 305.653 40.7 305.919 40.588C306.171 40.476 306.437 40.42 306.717 40.42C307.263 40.42 307.683 40.602 307.977 40.938C308.271 41.288 308.425 41.778 308.425 42.408V47H309.349V42.198C309.349 41.386 309.125 40.742 308.705 40.266C308.285 39.79 307.697 39.552 306.941 39.552C306.437 39.552 305.989 39.678 305.597 39.902C305.191 40.14 304.869 40.462 304.631 40.868V39.692H303.707V47H304.631ZM315.697 46.048C315.725 46.44 315.893 46.72 316.201 46.888C316.495 47.056 316.915 47.098 317.475 47.014V46.23C317.195 46.314 316.985 46.314 316.817 46.216C316.649 46.118 316.565 45.95 316.565 45.698V41.806C316.565 41.092 316.341 40.532 315.907 40.14C315.459 39.748 314.843 39.552 314.059 39.552C313.359 39.552 312.771 39.734 312.267 40.084C311.763 40.448 311.413 40.924 311.245 41.512L312.127 41.778C312.239 41.33 312.463 40.98 312.785 40.742C313.107 40.504 313.527 40.378 314.031 40.378C314.549 40.378 314.941 40.504 315.221 40.756C315.501 41.008 315.641 41.372 315.641 41.848V42.296L314.059 42.618C312.967 42.842 312.197 43.136 311.721 43.528C311.245 43.92 311.021 44.438 311.021 45.068C311.021 45.698 311.231 46.202 311.679 46.58C312.113 46.958 312.673 47.14 313.373 47.14C313.849 47.14 314.297 47.042 314.717 46.846C315.137 46.65 315.459 46.384 315.697 46.048ZM313.471 46.37C313.009 46.37 312.645 46.258 312.365 46.02C312.085 45.782 311.959 45.46 311.959 45.054C311.959 44.606 312.113 44.242 312.449 43.99C312.785 43.738 313.401 43.514 314.325 43.318L315.641 43.038V44.578C315.641 45.082 315.431 45.502 315.011 45.852C314.591 46.202 314.073 46.37 313.471 46.37ZM320.164 47V45.656H318.918V47H320.164Z" fill="black" fill-opacity="0.6"/>
</svg>
