<svg width="414" height="198" viewBox="0 0 414 198" fill="none" xmlns="http://www.w3.org/2000/svg">
<rect width="414" height="198" fill="white"/>
<path d="M21.904 30.416C22.384 30.992 22.976 31.424 23.648 31.728C24.32 32.032 25.04 32.176 25.84 32.176C26.624 32.176 27.36 32.032 28.032 31.728C28.704 31.424 29.28 30.992 29.776 30.416C30.224 29.888 30.576 29.264 30.816 28.56C31.056 27.856 31.184 27.088 31.184 26.256C31.184 25.44 31.056 24.672 30.816 23.968C30.576 23.264 30.224 22.64 29.776 22.096C29.28 21.536 28.704 21.104 28.032 20.8C27.36 20.496 26.624 20.336 25.84 20.336C25.04 20.336 24.32 20.496 23.648 20.8C22.976 21.104 22.384 21.536 21.904 22.096C21.44 22.64 21.088 23.264 20.848 23.968C20.608 24.672 20.496 25.44 20.496 26.256C20.496 27.088 20.608 27.856 20.848 28.56C21.088 29.264 21.44 29.888 21.904 30.416ZM25.84 30.368C24.848 30.368 24.064 30 23.456 29.232C22.848 28.48 22.544 27.488 22.544 26.256C22.544 25.04 22.848 24.048 23.456 23.28C24.064 22.528 24.848 22.144 25.84 22.144C26.816 22.144 27.616 22.528 28.224 23.28C28.832 24.048 29.136 25.04 29.136 26.256C29.136 27.488 28.832 28.48 28.224 29.232C27.616 30 26.816 30.368 25.84 30.368ZM36.9195 23.552C36.3915 23.552 35.9275 23.68 35.5115 23.904C35.0955 24.144 34.8075 24.464 34.6155 24.848V23.6H32.6955V32H34.6155V27.584C34.6155 26.944 34.8075 26.432 35.2075 26.048C35.5915 25.664 36.1195 25.456 36.7595 25.456C36.8875 25.456 36.9995 25.472 37.1115 25.472C37.2075 25.472 37.3355 25.488 37.4635 25.504V23.584C37.3515 23.584 37.2555 23.568 37.1755 23.568C37.0795 23.568 36.9995 23.552 36.9195 23.552ZM41.6448 32.176C42.1408 32.176 42.5888 32.096 43.0048 31.904C43.4208 31.728 43.7728 31.472 44.0608 31.12V32H45.9808V20.512H44.0608V24.496C43.7728 24.16 43.4208 23.904 43.0048 23.712C42.5888 23.536 42.1408 23.44 41.6448 23.44C41.0688 23.44 40.5568 23.568 40.0768 23.792C39.5968 24.016 39.1968 24.352 38.8768 24.784C38.5728 25.184 38.3488 25.648 38.1888 26.16C38.0288 26.672 37.9488 27.232 37.9488 27.808C37.9488 28.4 38.0288 28.96 38.1888 29.472C38.3488 29.984 38.5728 30.448 38.8768 30.832C39.1968 31.28 39.5968 31.616 40.0768 31.84C40.5568 32.064 41.0688 32.176 41.6448 32.176ZM44.1088 28.064C44.1088 28.8 43.9168 29.392 43.5328 29.84C43.1488 30.288 42.6368 30.496 42.0288 30.496C41.3568 30.496 40.8288 30.256 40.4448 29.776C40.0608 29.296 39.8848 28.64 39.8848 27.808C39.8848 26.976 40.0608 26.32 40.4448 25.84C40.8288 25.36 41.3568 25.12 42.0288 25.12C42.6528 25.12 43.1488 25.344 43.5328 25.792C43.9168 26.24 44.1088 26.832 44.1088 27.568V28.064ZM51.5444 32.176C52.3764 32.176 53.0964 31.968 53.7364 31.552C54.3764 31.136 54.8404 30.56 55.1444 29.824L53.4964 29.2C53.3684 29.616 53.1284 29.952 52.7764 30.192C52.4244 30.432 52.0244 30.544 51.5444 30.544C50.9204 30.544 50.4084 30.336 50.0084 29.92C49.6084 29.504 49.3684 28.944 49.3044 28.224H55.1924V27.584C55.1924 26.352 54.8564 25.36 54.1844 24.592C53.5124 23.824 52.6004 23.44 51.4644 23.44C50.8884 23.44 50.3444 23.552 49.8484 23.776C49.3364 24 48.9044 24.336 48.5364 24.752C48.1844 25.152 47.9284 25.616 47.7364 26.144C47.5444 26.672 47.4644 27.232 47.4644 27.808C47.4644 28.432 47.5444 29.008 47.7364 29.536C47.9284 30.064 48.2004 30.528 48.5524 30.912C48.9204 31.328 49.3684 31.632 49.8804 31.856C50.3924 32.08 50.9364 32.176 51.5444 32.176ZM51.4484 25.056C51.9924 25.056 52.4404 25.216 52.7604 25.536C53.0804 25.856 53.2404 26.272 53.2564 26.784H49.4004C49.5284 26.24 49.7844 25.808 50.1364 25.504C50.4884 25.216 50.9364 25.056 51.4484 25.056ZM60.857 23.552C60.329 23.552 59.865 23.68 59.449 23.904C59.033 24.144 58.745 24.464 58.553 24.848V23.6H56.633V32H58.553V27.584C58.553 26.944 58.745 26.432 59.145 26.048C59.529 25.664 60.057 25.456 60.697 25.456C60.825 25.456 60.937 25.472 61.049 25.472C61.145 25.472 61.273 25.488 61.401 25.504V23.584C61.289 23.584 61.193 23.568 61.113 23.568C61.017 23.568 60.937 23.552 60.857 23.552ZM69.7516 32.176C70.3276 32.176 70.8716 32.096 71.3836 31.936C71.8956 31.776 72.3436 31.552 72.7436 31.264C73.1756 30.928 73.5116 30.528 73.7516 30.064C73.9756 29.6 74.1036 29.088 74.1036 28.528C74.1036 27.984 73.9916 27.504 73.7676 27.104C73.5436 26.704 73.2236 26.368 72.7756 26.096C72.5196 25.936 72.1996 25.792 71.8476 25.664C71.4956 25.536 70.8876 25.376 70.0236 25.184C69.5436 25.088 69.2076 25.008 68.9996 24.944C68.7916 24.88 68.6156 24.832 68.4876 24.768C68.1676 24.64 67.9276 24.496 67.7996 24.304C67.6556 24.128 67.5916 23.904 67.5916 23.616C67.5916 23.168 67.7836 22.8 68.1676 22.512C68.5516 22.224 69.0476 22.08 69.6716 22.08C70.2636 22.08 70.7916 22.224 71.2556 22.496C71.7036 22.768 72.1196 23.184 72.5036 23.76L74.0076 22.464C73.5916 21.824 72.9996 21.296 72.2316 20.912C71.4636 20.528 70.6316 20.336 69.7356 20.336C69.1756 20.336 68.6476 20.416 68.1676 20.56C67.6716 20.72 67.2396 20.928 66.8876 21.216C66.4556 21.536 66.1356 21.92 65.9116 22.368C65.6876 22.816 65.5916 23.296 65.5916 23.824C65.5916 24.336 65.6716 24.768 65.8636 25.136C66.0556 25.52 66.3276 25.824 66.7116 26.08C66.9676 26.256 67.2716 26.416 67.6236 26.544C67.9756 26.688 68.5036 26.832 69.1756 26.992C69.2716 27.024 69.4476 27.072 69.7356 27.136C70.0076 27.2 70.2156 27.248 70.3756 27.28C70.6476 27.36 70.8716 27.44 71.0636 27.504C71.2396 27.568 71.3996 27.648 71.5276 27.728C71.7196 27.856 71.8476 28 71.9436 28.16C72.0396 28.32 72.0876 28.512 72.0876 28.736C72.0876 29.264 71.8796 29.68 71.4636 29.984C71.0476 30.288 70.5036 30.432 69.8156 30.432C69.1596 30.432 68.5516 30.272 67.9756 29.92C67.3996 29.584 66.9036 29.104 66.5036 28.464L64.9356 29.76C65.3676 30.496 66.0236 31.072 66.9196 31.52C67.7996 31.968 68.7436 32.176 69.7516 32.176ZM80.5331 23.6V28.592C80.5331 29.136 80.3571 29.584 80.0371 29.92C79.7011 30.272 79.2851 30.432 78.8051 30.432C78.3091 30.432 77.9411 30.288 77.6851 30C77.4291 29.712 77.3171 29.296 77.3171 28.752V23.6H75.3971V29.168C75.3971 30.096 75.6531 30.816 76.1651 31.36C76.6771 31.904 77.3651 32.176 78.2451 32.176C78.6931 32.176 79.1091 32.096 79.4931 31.904C79.8771 31.728 80.2131 31.456 80.5331 31.104V32H82.4531V23.6H80.5331ZM88.0608 25.232C88.5088 25.232 88.8608 25.392 89.1008 25.696C89.3408 26 89.4688 26.448 89.4688 27.024V32H91.3888V27.072C91.3888 26.528 91.5487 26.096 91.8688 25.744C92.1888 25.408 92.5728 25.232 93.0528 25.232C93.5008 25.232 93.8528 25.392 94.0928 25.696C94.3328 26 94.4608 26.448 94.4608 27.024V32H96.3808V26.464C96.3808 25.568 96.1088 24.832 95.5968 24.272C95.0688 23.728 94.3808 23.44 93.5328 23.44C93.0208 23.44 92.5568 23.536 92.1248 23.728C91.6927 23.92 91.2928 24.224 90.9248 24.608C90.6688 24.224 90.3648 23.936 89.9808 23.744C89.5968 23.552 89.1808 23.44 88.7008 23.44C88.2208 23.44 87.7888 23.536 87.4048 23.712C87.0208 23.888 86.6848 24.144 86.3968 24.496V23.6H84.4768V32H86.3968V27.072C86.3968 26.528 86.5568 26.096 86.8768 25.744C87.1968 25.408 87.5807 25.232 88.0608 25.232ZM101.92 25.232C102.368 25.232 102.72 25.392 102.96 25.696C103.2 26 103.328 26.448 103.328 27.024V32H105.248V27.072C105.248 26.528 105.408 26.096 105.728 25.744C106.048 25.408 106.432 25.232 106.912 25.232C107.36 25.232 107.712 25.392 107.952 25.696C108.192 26 108.32 26.448 108.32 27.024V32H110.24V26.464C110.24 25.568 109.968 24.832 109.456 24.272C108.928 23.728 108.24 23.44 107.392 23.44C106.88 23.44 106.416 23.536 105.984 23.728C105.552 23.92 105.152 24.224 104.784 24.608C104.528 24.224 104.224 23.936 103.84 23.744C103.456 23.552 103.04 23.44 102.56 23.44C102.08 23.44 101.648 23.536 101.264 23.712C100.88 23.888 100.544 24.144 100.256 24.496V23.6H98.3361V32H100.256V27.072C100.256 26.528 100.416 26.096 100.736 25.744C101.056 25.408 101.44 25.232 101.92 25.232ZM116.916 31.2C117.06 31.552 117.332 31.792 117.716 31.92C118.1 32.048 118.644 32.08 119.332 32V30.512C119.06 30.544 118.868 30.528 118.756 30.432C118.644 30.352 118.596 30.192 118.596 29.952V26.336C118.596 25.408 118.308 24.688 117.764 24.192C117.204 23.696 116.404 23.44 115.364 23.44C114.5 23.44 113.748 23.664 113.124 24.112C112.5 24.56 112.084 25.168 111.86 25.92L113.668 26.336C113.78 25.92 113.972 25.6 114.228 25.408C114.484 25.216 114.836 25.104 115.284 25.104C115.764 25.104 116.116 25.216 116.356 25.44C116.596 25.664 116.724 25.984 116.724 26.4V26.544L114.404 27.024C113.444 27.232 112.724 27.552 112.276 27.984C111.812 28.416 111.588 28.976 111.588 29.664C111.588 30.4 111.844 30.992 112.388 31.456C112.916 31.92 113.588 32.144 114.42 32.144C114.948 32.144 115.428 32.064 115.86 31.904C116.292 31.744 116.644 31.504 116.916 31.2ZM114.708 30.608C114.324 30.608 114.036 30.528 113.812 30.336C113.588 30.16 113.492 29.904 113.492 29.584C113.492 29.28 113.588 29.04 113.812 28.848C114.02 28.672 114.388 28.528 114.916 28.4L116.724 28.016V29.04C116.724 29.52 116.532 29.888 116.148 30.176C115.764 30.464 115.284 30.608 114.708 30.608ZM124.92 23.552C124.391 23.552 123.928 23.68 123.512 23.904C123.096 24.144 122.808 24.464 122.616 24.848V23.6H120.696V32H122.616V27.584C122.616 26.944 122.808 26.432 123.208 26.048C123.592 25.664 124.12 25.456 124.76 25.456C124.888 25.456 125 25.472 125.112 25.472C125.208 25.472 125.336 25.488 125.464 25.504V23.584C125.352 23.584 125.256 23.568 125.176 23.568C125.08 23.568 125 23.552 124.92 23.552ZM134.05 23.6H132.066L130.049 29.488L127.986 23.6H125.97L129.026 31.696L128.706 32.48C128.578 32.8 128.418 33.024 128.258 33.152C128.082 33.28 127.826 33.328 127.49 33.328C127.394 33.328 127.298 33.328 127.218 33.328C127.122 33.328 127.01 33.312 126.85 33.28V34.896C127.042 34.928 127.186 34.944 127.282 34.944C127.378 34.944 127.49 34.944 127.634 34.944C128.37 34.944 128.978 34.784 129.458 34.448C129.922 34.128 130.306 33.568 130.594 32.784L134.05 23.6Z" fill="black"/>
<path d="M22.408 58.048C22.716 57.614 23.108 57.278 23.556 57.04C24.004 56.802 24.508 56.676 25.04 56.676C25.712 56.676 26.3 56.872 26.79 57.236C27.28 57.614 27.63 58.132 27.854 58.804L28.792 58.51C28.484 57.656 28.008 56.998 27.364 56.522C26.706 56.046 25.936 55.808 25.04 55.808C24.368 55.808 23.752 55.948 23.192 56.228C22.618 56.508 22.128 56.9 21.722 57.404C21.358 57.88 21.078 58.412 20.882 59.014C20.686 59.63 20.602 60.274 20.602 60.974C20.602 61.674 20.686 62.332 20.882 62.934C21.078 63.55 21.358 64.082 21.722 64.544C22.128 65.062 22.618 65.454 23.192 65.734C23.752 66.014 24.368 66.14 25.04 66.14C25.936 66.14 26.706 65.916 27.364 65.44C28.008 64.964 28.484 64.306 28.792 63.438L27.854 63.144C27.63 63.816 27.28 64.348 26.79 64.712C26.3 65.09 25.712 65.272 25.04 65.272C24.508 65.272 24.004 65.16 23.556 64.922C23.108 64.684 22.716 64.348 22.408 63.9C22.128 63.522 21.918 63.088 21.778 62.584C21.638 62.08 21.568 61.548 21.568 60.974C21.568 60.414 21.638 59.882 21.778 59.378C21.918 58.874 22.128 58.44 22.408 58.048ZM31.2465 66V61.576C31.2465 61.282 31.2885 61.002 31.4005 60.75C31.4985 60.498 31.6525 60.26 31.8485 60.05C32.0445 59.854 32.2685 59.7 32.5345 59.588C32.7865 59.476 33.0525 59.42 33.3325 59.42C33.8785 59.42 34.2985 59.602 34.5925 59.938C34.8865 60.288 35.0405 60.778 35.0405 61.408V66H35.9645V61.198C35.9645 60.386 35.7405 59.742 35.3205 59.266C34.9005 58.79 34.3125 58.552 33.5565 58.552C33.0525 58.552 32.6045 58.678 32.2125 58.902C31.8065 59.14 31.4845 59.462 31.2465 59.868V55.948H30.3225V66H31.2465ZM39.2602 57.194V55.948H38.1822V57.194H39.2602ZM38.2522 58.692V66H39.1762V58.692H38.2522ZM44.3334 59.364C44.8374 59.364 45.2714 59.518 45.6074 59.812C45.9434 60.106 46.1814 60.512 46.3074 61.044L47.1334 60.694C46.9514 60.036 46.6154 59.518 46.1254 59.126C45.6214 58.748 45.0334 58.552 44.3334 58.552C43.8294 58.552 43.3534 58.65 42.9334 58.846C42.5134 59.042 42.1494 59.322 41.8554 59.686C41.5754 60.022 41.3654 60.428 41.2254 60.876C41.0854 61.324 41.0154 61.814 41.0154 62.346C41.0154 62.878 41.0854 63.382 41.2254 63.83C41.3654 64.278 41.5754 64.67 41.8554 65.006C42.1494 65.384 42.5134 65.664 42.9334 65.86C43.3534 66.056 43.8294 66.14 44.3334 66.14C45.0334 66.14 45.6354 65.958 46.1394 65.566C46.6434 65.188 46.9794 64.656 47.1474 63.984L46.3074 63.648C46.1814 64.18 45.9434 64.6 45.6074 64.894C45.2714 65.188 44.8374 65.328 44.3334 65.328C43.6054 65.328 43.0314 65.062 42.5974 64.516C42.1494 63.984 41.9394 63.256 41.9394 62.346C41.9394 61.45 42.1494 60.736 42.5974 60.19C43.0314 59.644 43.6054 59.364 44.3334 59.364ZM48.8342 55.948V66H49.7582V63.452L50.9482 62.262L53.6782 66H54.7702L51.5922 61.618L54.5322 58.692H53.3422L49.7582 62.374V55.948H48.8342ZM58.7022 66.14C59.4162 66.14 60.0322 65.958 60.5362 65.58C61.0402 65.216 61.4042 64.684 61.6002 64.012L60.7602 63.746C60.6482 64.25 60.4102 64.628 60.0462 64.908C59.6822 65.188 59.2342 65.328 58.7022 65.328C57.9742 65.328 57.4002 65.062 56.9522 64.53C56.5042 63.998 56.2802 63.298 56.2802 62.416H61.6562V62.108C61.6562 61.03 61.3902 60.162 60.8582 59.518C60.3262 58.874 59.5842 58.552 58.6602 58.552C58.1562 58.552 57.7082 58.65 57.2882 58.846C56.8682 59.042 56.5182 59.336 56.2242 59.714C55.9442 60.05 55.7482 60.442 55.6082 60.89C55.4682 61.338 55.3982 61.828 55.3982 62.346C55.3982 63.48 55.6922 64.39 56.3082 65.09C56.9102 65.79 57.7082 66.14 58.7022 66.14ZM58.6602 59.364C59.2762 59.364 59.7802 59.574 60.1442 59.994C60.5082 60.414 60.6902 60.988 60.7182 61.688H56.3222C56.4202 60.974 56.6862 60.414 57.1062 59.994C57.5262 59.574 58.0442 59.364 58.6602 59.364ZM64.4008 66V61.576C64.4008 61.282 64.4428 61.002 64.5548 60.75C64.6528 60.498 64.8068 60.26 65.0028 60.05C65.1988 59.854 65.4228 59.7 65.6888 59.588C65.9408 59.476 66.2068 59.42 66.4868 59.42C67.0328 59.42 67.4528 59.602 67.7468 59.938C68.0408 60.288 68.1948 60.778 68.1948 61.408V66H69.1188V61.198C69.1188 60.386 68.8948 59.742 68.4748 59.266C68.0548 58.79 67.4668 58.552 66.7108 58.552C66.2068 58.552 65.7588 58.678 65.3668 58.902C64.9608 59.14 64.6388 59.462 64.4008 59.868V58.692H63.4768V66H64.4008ZM78.306 66C79.314 66 80.098 65.762 80.672 65.272C81.246 64.796 81.54 64.124 81.54 63.256C81.54 62.626 81.358 62.094 81.008 61.646C80.644 61.198 80.154 60.904 79.538 60.75C80.056 60.596 80.462 60.33 80.756 59.938C81.036 59.56 81.19 59.098 81.19 58.538C81.19 57.698 80.91 57.068 80.364 56.62C79.804 56.172 79.006 55.948 77.97 55.948H74.484V66H78.306ZM75.436 56.788H77.914C78.67 56.788 79.258 56.942 79.65 57.25C80.042 57.558 80.238 58.006 80.238 58.594C80.238 59.182 80.042 59.63 79.65 59.938C79.258 60.246 78.67 60.386 77.914 60.386H75.436V56.788ZM78.278 61.24C79.006 61.24 79.566 61.422 79.972 61.758C80.378 62.108 80.588 62.584 80.588 63.2C80.588 63.816 80.378 64.306 79.972 64.642C79.566 64.992 79.006 65.16 78.278 65.16H75.436V61.24H78.278ZM86.351 58.622C85.875 58.622 85.469 58.762 85.119 59.014C84.755 59.266 84.489 59.63 84.307 60.078V58.692H83.383V66H84.307V61.898C84.307 61.226 84.489 60.666 84.881 60.218C85.259 59.77 85.721 59.546 86.281 59.546C86.393 59.546 86.505 59.56 86.603 59.56C86.687 59.574 86.785 59.588 86.883 59.602V58.678C86.799 58.664 86.715 58.65 86.631 58.636C86.533 58.636 86.435 58.622 86.351 58.622ZM93.4035 59.7C93.1095 59.336 92.7595 59.042 92.3395 58.846C91.9195 58.65 91.4575 58.552 90.9535 58.552C90.4495 58.552 89.9875 58.65 89.5675 58.846C89.1475 59.042 88.7975 59.336 88.5035 59.7C88.2235 60.036 88.0275 60.442 87.8875 60.89C87.7475 61.338 87.6775 61.828 87.6775 62.346C87.6775 62.878 87.7475 63.368 87.8875 63.816C88.0275 64.264 88.2235 64.656 88.5035 64.992C88.7975 65.37 89.1475 65.65 89.5675 65.846C89.9875 66.042 90.4495 66.14 90.9535 66.14C91.4575 66.14 91.9195 66.042 92.3395 65.846C92.7595 65.65 93.1095 65.37 93.4035 64.992C93.6835 64.656 93.8935 64.264 94.0335 63.816C94.1735 63.368 94.2435 62.878 94.2435 62.346C94.2435 61.828 94.1735 61.338 94.0335 60.89C93.8935 60.442 93.6835 60.036 93.4035 59.7ZM90.9535 59.35C91.6535 59.35 92.2275 59.63 92.6615 60.176C93.0815 60.722 93.3055 61.45 93.3055 62.346C93.3055 63.256 93.0815 63.984 92.6615 64.53C92.2275 65.076 91.6535 65.342 90.9535 65.342C90.2395 65.342 89.6655 65.076 89.2455 64.53C88.8115 63.984 88.6015 63.256 88.6015 62.346C88.6015 61.45 88.8115 60.722 89.2455 60.176C89.6655 59.63 90.2395 59.35 90.9535 59.35ZM100.117 65.048C100.145 65.44 100.313 65.72 100.621 65.888C100.915 66.056 101.335 66.098 101.895 66.014V65.23C101.615 65.314 101.405 65.314 101.237 65.216C101.069 65.118 100.985 64.95 100.985 64.698V60.806C100.985 60.092 100.761 59.532 100.327 59.14C99.8789 58.748 99.2629 58.552 98.4789 58.552C97.7789 58.552 97.1909 58.734 96.6869 59.084C96.1829 59.448 95.8329 59.924 95.6649 60.512L96.5469 60.778C96.6589 60.33 96.8829 59.98 97.2049 59.742C97.5269 59.504 97.9469 59.378 98.4509 59.378C98.9689 59.378 99.3609 59.504 99.6409 59.756C99.9209 60.008 100.061 60.372 100.061 60.848V61.296L98.4789 61.618C97.3869 61.842 96.6169 62.136 96.1409 62.528C95.6649 62.92 95.4409 63.438 95.4409 64.068C95.4409 64.698 95.6509 65.202 96.0989 65.58C96.5329 65.958 97.0929 66.14 97.7929 66.14C98.2689 66.14 98.7169 66.042 99.1369 65.846C99.5569 65.65 99.8789 65.384 100.117 65.048ZM97.8909 65.37C97.4289 65.37 97.0649 65.258 96.7849 65.02C96.5049 64.782 96.3789 64.46 96.3789 64.054C96.3789 63.606 96.5329 63.242 96.8689 62.99C97.2049 62.738 97.8209 62.514 98.7449 62.318L100.061 62.038V63.578C100.061 64.082 99.8509 64.502 99.4309 64.852C99.0109 65.202 98.4929 65.37 97.8909 65.37ZM105.625 66.14C106.395 66.14 107.039 65.944 107.557 65.524C108.061 65.104 108.327 64.572 108.327 63.928C108.327 63.592 108.257 63.284 108.117 63.032C107.977 62.78 107.753 62.57 107.459 62.402C107.305 62.318 107.123 62.248 106.913 62.164C106.703 62.094 106.297 61.982 105.709 61.842C105.317 61.758 105.051 61.688 104.911 61.646C104.771 61.618 104.645 61.576 104.547 61.52C104.309 61.422 104.141 61.296 104.029 61.156C103.917 61.016 103.875 60.848 103.875 60.624C103.875 60.232 104.015 59.924 104.309 59.686C104.603 59.462 104.995 59.336 105.485 59.336C105.961 59.336 106.381 59.462 106.731 59.686C107.081 59.91 107.347 60.232 107.515 60.652L108.229 60.176C108.033 59.7 107.697 59.308 107.207 59C106.717 58.706 106.157 58.552 105.527 58.552C104.785 58.552 104.169 58.762 103.693 59.154C103.217 59.546 102.979 60.05 102.979 60.666C102.979 61.002 103.035 61.296 103.175 61.534C103.301 61.772 103.497 61.968 103.777 62.122C103.917 62.206 104.085 62.29 104.295 62.36C104.491 62.43 104.869 62.528 105.429 62.654C105.877 62.766 106.185 62.836 106.325 62.878C106.465 62.92 106.605 62.962 106.717 63.004C106.969 63.116 107.151 63.242 107.263 63.396C107.375 63.55 107.431 63.746 107.431 63.984C107.431 64.404 107.249 64.74 106.913 64.992C106.577 65.244 106.143 65.37 105.625 65.37C105.079 65.37 104.589 65.23 104.169 64.95C103.749 64.67 103.455 64.306 103.287 63.83L102.531 64.334C102.755 64.894 103.147 65.342 103.707 65.664C104.267 65.986 104.897 66.14 105.625 66.14ZM112.115 66.07C112.311 66.07 112.493 66.07 112.661 66.042C112.829 66.028 112.997 66 113.179 65.944V65.132C113.025 65.174 112.885 65.202 112.745 65.216C112.605 65.244 112.451 65.244 112.297 65.244C111.891 65.244 111.611 65.174 111.457 65.006C111.289 64.838 111.219 64.572 111.219 64.194V59.49H112.983V58.692H111.219V56.578H110.309V58.692H109.091V59.49H110.309V64.334C110.309 64.936 110.449 65.37 110.729 65.65C111.009 65.93 111.471 66.07 112.115 66.07ZM119.684 64.614L117.948 58.692H116.996L119.236 66H120.048L121.742 60.078L123.408 66H124.22L126.46 58.692H125.536L123.814 64.628L122.148 58.692H121.35L119.684 64.614ZM128.948 57.194V55.948H127.87V57.194H128.948ZM127.94 58.692V66H128.864V58.692H127.94ZM133.265 66.07C133.461 66.07 133.643 66.07 133.811 66.042C133.979 66.028 134.147 66 134.329 65.944V65.132C134.175 65.174 134.035 65.202 133.895 65.216C133.755 65.244 133.601 65.244 133.447 65.244C133.041 65.244 132.761 65.174 132.607 65.006C132.439 64.838 132.369 64.572 132.369 64.194V59.49H134.133V58.692H132.369V56.578H131.459V58.692H130.241V59.49H131.459V64.334C131.459 64.936 131.599 65.37 131.879 65.65C132.159 65.93 132.621 66.07 133.265 66.07ZM136.916 66V61.576C136.916 61.282 136.958 61.002 137.07 60.75C137.168 60.498 137.322 60.26 137.518 60.05C137.714 59.854 137.938 59.7 138.204 59.588C138.456 59.476 138.722 59.42 139.002 59.42C139.548 59.42 139.968 59.602 140.262 59.938C140.556 60.288 140.71 60.778 140.71 61.408V66H141.634V61.198C141.634 60.386 141.41 59.742 140.99 59.266C140.57 58.79 139.982 58.552 139.226 58.552C138.722 58.552 138.274 58.678 137.882 58.902C137.476 59.14 137.154 59.462 136.916 59.868V55.948H135.992V66H136.916ZM152.642 64.95C152.894 64.614 153.076 64.222 153.216 63.774C153.342 63.326 153.412 62.85 153.412 62.346C153.412 61.842 153.342 61.366 153.216 60.918C153.076 60.47 152.894 60.078 152.642 59.742C152.362 59.35 152.012 59.056 151.606 58.86C151.2 58.664 150.752 58.552 150.276 58.552C149.744 58.552 149.254 58.692 148.834 58.944C148.414 59.196 148.092 59.546 147.868 59.994V58.692H146.944V68.52H147.868V64.698C148.092 65.146 148.414 65.51 148.834 65.762C149.254 66.014 149.744 66.14 150.276 66.14C150.752 66.14 151.2 66.042 151.606 65.846C152.012 65.65 152.362 65.342 152.642 64.95ZM148.414 60.204C148.61 59.952 148.862 59.742 149.17 59.602C149.478 59.462 149.786 59.378 150.122 59.378C150.836 59.378 151.41 59.658 151.844 60.19C152.264 60.736 152.488 61.45 152.488 62.346C152.488 63.242 152.264 63.97 151.844 64.516C151.41 65.062 150.836 65.328 150.122 65.328C149.786 65.328 149.478 65.258 149.184 65.118C148.876 64.978 148.624 64.782 148.414 64.516C148.218 64.292 148.078 64.012 147.994 63.704C147.896 63.396 147.854 63.046 147.854 62.668V62.066C147.854 61.688 147.896 61.338 147.994 61.03C148.078 60.722 148.218 60.442 148.414 60.204ZM158.028 66.14C158.742 66.14 159.358 65.958 159.862 65.58C160.366 65.216 160.73 64.684 160.926 64.012L160.086 63.746C159.974 64.25 159.736 64.628 159.372 64.908C159.008 65.188 158.56 65.328 158.028 65.328C157.3 65.328 156.726 65.062 156.278 64.53C155.83 63.998 155.606 63.298 155.606 62.416H160.982V62.108C160.982 61.03 160.716 60.162 160.184 59.518C159.652 58.874 158.91 58.552 157.986 58.552C157.482 58.552 157.034 58.65 156.614 58.846C156.194 59.042 155.844 59.336 155.55 59.714C155.27 60.05 155.074 60.442 154.934 60.89C154.794 61.338 154.724 61.828 154.724 62.346C154.724 63.48 155.018 64.39 155.634 65.09C156.236 65.79 157.034 66.14 158.028 66.14ZM157.986 59.364C158.602 59.364 159.106 59.574 159.47 59.994C159.834 60.414 160.016 60.988 160.044 61.688H155.648C155.746 60.974 156.012 60.414 156.432 59.994C156.852 59.574 157.37 59.364 157.986 59.364ZM168.501 64.95C168.753 64.614 168.935 64.222 169.075 63.774C169.201 63.326 169.271 62.85 169.271 62.346C169.271 61.842 169.201 61.366 169.075 60.918C168.935 60.47 168.753 60.078 168.501 59.742C168.221 59.35 167.871 59.056 167.465 58.86C167.059 58.664 166.611 58.552 166.135 58.552C165.603 58.552 165.113 58.692 164.693 58.944C164.273 59.196 163.951 59.546 163.727 59.994V58.692H162.803V68.52H163.727V64.698C163.951 65.146 164.273 65.51 164.693 65.762C165.113 66.014 165.603 66.14 166.135 66.14C166.611 66.14 167.059 66.042 167.465 65.846C167.871 65.65 168.221 65.342 168.501 64.95ZM164.273 60.204C164.469 59.952 164.721 59.742 165.029 59.602C165.337 59.462 165.645 59.378 165.981 59.378C166.695 59.378 167.269 59.658 167.703 60.19C168.123 60.736 168.347 61.45 168.347 62.346C168.347 63.242 168.123 63.97 167.703 64.516C167.269 65.062 166.695 65.328 165.981 65.328C165.645 65.328 165.337 65.258 165.043 65.118C164.735 64.978 164.483 64.782 164.273 64.516C164.077 64.292 163.937 64.012 163.853 63.704C163.755 63.396 163.713 63.046 163.713 62.668V62.066C163.713 61.688 163.755 61.338 163.853 61.03C163.937 60.722 164.077 60.442 164.273 60.204ZM173.356 66.14C174.126 66.14 174.77 65.944 175.288 65.524C175.792 65.104 176.058 64.572 176.058 63.928C176.058 63.592 175.988 63.284 175.848 63.032C175.708 62.78 175.484 62.57 175.19 62.402C175.036 62.318 174.854 62.248 174.644 62.164C174.434 62.094 174.028 61.982 173.44 61.842C173.048 61.758 172.782 61.688 172.642 61.646C172.502 61.618 172.376 61.576 172.278 61.52C172.04 61.422 171.872 61.296 171.76 61.156C171.648 61.016 171.606 60.848 171.606 60.624C171.606 60.232 171.746 59.924 172.04 59.686C172.334 59.462 172.726 59.336 173.216 59.336C173.692 59.336 174.112 59.462 174.462 59.686C174.812 59.91 175.078 60.232 175.246 60.652L175.96 60.176C175.764 59.7 175.428 59.308 174.938 59C174.448 58.706 173.888 58.552 173.258 58.552C172.516 58.552 171.9 58.762 171.424 59.154C170.948 59.546 170.71 60.05 170.71 60.666C170.71 61.002 170.766 61.296 170.906 61.534C171.032 61.772 171.228 61.968 171.508 62.122C171.648 62.206 171.816 62.29 172.026 62.36C172.222 62.43 172.6 62.528 173.16 62.654C173.608 62.766 173.916 62.836 174.056 62.878C174.196 62.92 174.336 62.962 174.448 63.004C174.7 63.116 174.882 63.242 174.994 63.396C175.106 63.55 175.162 63.746 175.162 63.984C175.162 64.404 174.98 64.74 174.644 64.992C174.308 65.244 173.874 65.37 173.356 65.37C172.81 65.37 172.32 65.23 171.9 64.95C171.48 64.67 171.186 64.306 171.018 63.83L170.262 64.334C170.486 64.894 170.878 65.342 171.438 65.664C171.998 65.986 172.628 66.14 173.356 66.14ZM178.809 57.194V55.948H177.731V57.194H178.809ZM177.801 58.692V66H178.725V58.692H177.801Z" fill="black"/>
<path d="M26.832 82L24.088 78.164L26.566 74.692H25.53L23.542 77.478L21.582 74.692H20.518L22.996 78.164L20.252 82H21.274L23.528 78.85L25.768 82H26.832ZM30.106 71.892C30.064 72.494 29.938 72.9 29.742 73.11C29.532 73.334 29.154 73.446 28.608 73.474L27.432 73.53V74.272H29.854V82H30.834V71.892H30.106ZM37.0241 77.52C37.0241 76.456 37.2201 75.406 37.6121 74.398C38.0041 73.39 38.5641 72.48 39.2921 71.668H38.3261C37.5701 72.48 36.9821 73.39 36.5761 74.384C36.1701 75.392 35.9741 76.428 35.9741 77.52C35.9741 78.612 36.1701 79.648 36.5761 80.642C36.9681 81.65 37.5561 82.56 38.3261 83.372H39.2921C38.5641 82.588 38.0041 81.678 37.6121 80.67C37.2201 79.662 37.0241 78.612 37.0241 77.52ZM47.5328 76.372H41.6808V71.948H40.7008V82H41.6808V77.226H47.5328V82H48.5128V71.948H47.5328V76.372ZM54.9997 81.048C55.0277 81.44 55.1957 81.72 55.5037 81.888C55.7977 82.056 56.2177 82.098 56.7777 82.014V81.23C56.4977 81.314 56.2877 81.314 56.1197 81.216C55.9517 81.118 55.8677 80.95 55.8677 80.698V76.806C55.8677 76.092 55.6437 75.532 55.2097 75.14C54.7617 74.748 54.1457 74.552 53.3617 74.552C52.6617 74.552 52.0737 74.734 51.5697 75.084C51.0657 75.448 50.7157 75.924 50.5477 76.512L51.4297 76.778C51.5417 76.33 51.7657 75.98 52.0877 75.742C52.4097 75.504 52.8297 75.378 53.3337 75.378C53.8517 75.378 54.2437 75.504 54.5237 75.756C54.8037 76.008 54.9437 76.372 54.9437 76.848V77.296L53.3617 77.618C52.2697 77.842 51.4997 78.136 51.0237 78.528C50.5477 78.92 50.3237 79.438 50.3237 80.068C50.3237 80.698 50.5337 81.202 50.9817 81.58C51.4157 81.958 51.9757 82.14 52.6757 82.14C53.1517 82.14 53.5997 82.042 54.0197 81.846C54.4397 81.65 54.7617 81.384 54.9997 81.048ZM52.7737 81.37C52.3117 81.37 51.9477 81.258 51.6677 81.02C51.3877 80.782 51.2617 80.46 51.2617 80.054C51.2617 79.606 51.4157 79.242 51.7517 78.99C52.0877 78.738 52.7037 78.514 53.6277 78.318L54.9437 78.038V79.578C54.9437 80.082 54.7337 80.502 54.3137 80.852C53.8937 81.202 53.3757 81.37 52.7737 81.37ZM58.2541 71.948V82H59.1781V71.948H58.2541ZM63.9014 71.808C63.2434 71.808 62.7254 72.004 62.3614 72.396C61.9834 72.788 61.8014 73.334 61.8014 74.02V74.692H60.6534V75.49H61.8014V82H62.7394V75.49H64.4754V74.692H62.7394V74.09C62.7394 73.6 62.8374 73.236 63.0334 72.998C63.2294 72.76 63.5514 72.634 63.9714 72.634C64.0554 72.634 64.1394 72.648 64.2234 72.648C64.3074 72.648 64.4194 72.662 64.5594 72.676V71.85C64.4754 71.836 64.3914 71.822 64.3074 71.822C64.2234 71.822 64.0834 71.808 63.9014 71.808ZM67.5809 77.52C67.5809 78.612 67.3709 79.662 66.9789 80.67C66.5869 81.678 66.0269 82.588 65.3129 83.372H66.2789C67.0349 82.56 67.6229 81.65 68.0289 80.642C68.4209 79.648 68.6309 78.612 68.6309 77.52C68.6309 76.428 68.4209 75.392 68.0149 74.384C67.6089 73.39 67.0349 72.48 66.2789 71.668H65.3129C66.0269 72.48 66.5869 73.39 66.9789 74.398C67.3709 75.406 67.5809 76.456 67.5809 77.52Z" fill="black" fill-opacity="0.6"/>
<path d="M369.869 72.082C370.205 72.642 370.695 73.104 371.325 73.468C371.941 73.832 372.655 74.042 373.453 74.126V75.484H374.783V74.112C375.721 73.986 376.477 73.636 377.065 73.076C377.639 72.516 377.933 71.83 377.933 71.004C377.933 70.556 377.849 70.15 377.695 69.814C377.527 69.478 377.289 69.184 376.981 68.96C376.743 68.792 376.463 68.638 376.127 68.512C375.791 68.4 375.343 68.288 374.783 68.176V65.32C375.175 65.418 375.525 65.586 375.847 65.838C376.169 66.09 376.449 66.398 376.687 66.79L377.905 65.642C377.625 65.166 377.219 64.774 376.673 64.452C376.113 64.144 375.483 63.934 374.783 63.836V62.492H373.453V63.836C372.529 63.948 371.773 64.27 371.213 64.802C370.653 65.348 370.373 66.02 370.373 66.804C370.373 67.252 370.443 67.63 370.597 67.952C370.751 68.288 370.989 68.554 371.311 68.778C371.535 68.946 371.815 69.1 372.151 69.212C372.473 69.324 372.907 69.436 373.453 69.534V72.614C372.963 72.544 372.529 72.376 372.165 72.096C371.801 71.83 371.465 71.452 371.185 70.962L369.869 72.082ZM371.997 66.678C371.997 66.314 372.123 66.02 372.375 65.768C372.627 65.53 372.991 65.362 373.453 65.278V67.924C372.921 67.798 372.543 67.63 372.319 67.434C372.095 67.238 371.997 66.986 371.997 66.678ZM376.295 71.13C376.295 71.536 376.155 71.858 375.903 72.11C375.637 72.362 375.259 72.53 374.783 72.6V69.8C375.315 69.94 375.707 70.108 375.945 70.318C376.169 70.528 376.295 70.794 376.295 71.13ZM378.659 74H385.687V72.432H381.123L382.803 71.102C383.265 70.738 383.643 70.416 383.937 70.136C384.217 69.87 384.469 69.604 384.679 69.338C384.973 68.96 385.197 68.582 385.337 68.19C385.477 67.798 385.561 67.406 385.561 66.986C385.561 66.034 385.239 65.264 384.609 64.676C383.979 64.088 383.153 63.794 382.117 63.794C381.655 63.794 381.221 63.878 380.801 64.032C380.381 64.186 380.003 64.41 379.695 64.69C379.359 64.998 379.093 65.362 378.925 65.754C378.743 66.16 378.659 66.594 378.659 67.042C378.659 67.238 378.673 67.42 378.701 67.574C378.729 67.728 378.771 67.896 378.841 68.092H380.507C380.451 67.952 380.409 67.798 380.381 67.63C380.353 67.462 380.339 67.308 380.339 67.14C380.339 66.622 380.493 66.188 380.829 65.838C381.151 65.502 381.571 65.32 382.075 65.32C382.579 65.32 382.999 65.488 383.307 65.81C383.615 66.146 383.783 66.566 383.783 67.098C383.783 67.406 383.699 67.728 383.545 68.036C383.391 68.344 383.153 68.68 382.831 69.016C382.663 69.184 382.481 69.366 382.271 69.562C382.047 69.758 381.683 70.052 381.179 70.472L378.659 72.544V74ZM390.063 68.75C390.595 68.75 391.043 68.946 391.379 69.31C391.715 69.688 391.897 70.164 391.897 70.738C391.897 71.298 391.701 71.76 391.337 72.124C390.973 72.488 390.511 72.67 389.965 72.67C389.433 72.67 388.985 72.516 388.621 72.18C388.257 71.844 388.047 71.396 387.963 70.822L386.241 71.13C386.395 72.082 386.801 72.824 387.459 73.356C388.117 73.888 388.957 74.154 389.965 74.154C390.455 74.154 390.917 74.07 391.365 73.902C391.799 73.734 392.177 73.496 392.513 73.188C392.849 72.866 393.115 72.488 393.297 72.054C393.479 71.634 393.577 71.172 393.577 70.682C393.577 70.206 393.493 69.772 393.339 69.352C393.185 68.932 392.975 68.582 392.695 68.274C392.387 67.966 392.037 67.714 391.631 67.546C391.225 67.378 390.777 67.294 390.301 67.294C389.937 67.294 389.601 67.364 389.293 67.476C388.971 67.602 388.691 67.77 388.467 67.98L388.691 65.516H392.975V63.948H387.319L386.871 69.268L388.495 69.492C388.663 69.268 388.873 69.086 389.153 68.946C389.433 68.82 389.727 68.75 390.063 68.75Z" fill="black"/>
<path d="M22.408 106.048C22.716 105.614 23.108 105.278 23.556 105.04C24.004 104.802 24.508 104.676 25.04 104.676C25.712 104.676 26.3 104.872 26.79 105.236C27.28 105.614 27.63 106.132 27.854 106.804L28.792 106.51C28.484 105.656 28.008 104.998 27.364 104.522C26.706 104.046 25.936 103.808 25.04 103.808C24.368 103.808 23.752 103.948 23.192 104.228C22.618 104.508 22.128 104.9 21.722 105.404C21.358 105.88 21.078 106.412 20.882 107.014C20.686 107.63 20.602 108.274 20.602 108.974C20.602 109.674 20.686 110.332 20.882 110.934C21.078 111.55 21.358 112.082 21.722 112.544C22.128 113.062 22.618 113.454 23.192 113.734C23.752 114.014 24.368 114.14 25.04 114.14C25.936 114.14 26.706 113.916 27.364 113.44C28.008 112.964 28.484 112.306 28.792 111.438L27.854 111.144C27.63 111.816 27.28 112.348 26.79 112.712C26.3 113.09 25.712 113.272 25.04 113.272C24.508 113.272 24.004 113.16 23.556 112.922C23.108 112.684 22.716 112.348 22.408 111.9C22.128 111.522 21.918 111.088 21.778 110.584C21.638 110.08 21.568 109.548 21.568 108.974C21.568 108.414 21.638 107.882 21.778 107.378C21.918 106.874 22.128 106.44 22.408 106.048ZM31.2465 114V109.576C31.2465 109.282 31.2885 109.002 31.4005 108.75C31.4985 108.498 31.6525 108.26 31.8485 108.05C32.0445 107.854 32.2685 107.7 32.5345 107.588C32.7865 107.476 33.0525 107.42 33.3325 107.42C33.8785 107.42 34.2985 107.602 34.5925 107.938C34.8865 108.288 35.0405 108.778 35.0405 109.408V114H35.9645V109.198C35.9645 108.386 35.7405 107.742 35.3205 107.266C34.9005 106.79 34.3125 106.552 33.5565 106.552C33.0525 106.552 32.6045 106.678 32.2125 106.902C31.8065 107.14 31.4845 107.462 31.2465 107.868V103.948H30.3225V114H31.2465ZM39.2602 105.194V103.948H38.1822V105.194H39.2602ZM38.2522 106.692V114H39.1762V106.692H38.2522ZM44.3334 107.364C44.8374 107.364 45.2714 107.518 45.6074 107.812C45.9434 108.106 46.1814 108.512 46.3074 109.044L47.1334 108.694C46.9514 108.036 46.6154 107.518 46.1254 107.126C45.6214 106.748 45.0334 106.552 44.3334 106.552C43.8294 106.552 43.3534 106.65 42.9334 106.846C42.5134 107.042 42.1494 107.322 41.8554 107.686C41.5754 108.022 41.3654 108.428 41.2254 108.876C41.0854 109.324 41.0154 109.814 41.0154 110.346C41.0154 110.878 41.0854 111.382 41.2254 111.83C41.3654 112.278 41.5754 112.67 41.8554 113.006C42.1494 113.384 42.5134 113.664 42.9334 113.86C43.3534 114.056 43.8294 114.14 44.3334 114.14C45.0334 114.14 45.6354 113.958 46.1394 113.566C46.6434 113.188 46.9794 112.656 47.1474 111.984L46.3074 111.648C46.1814 112.18 45.9434 112.6 45.6074 112.894C45.2714 113.188 44.8374 113.328 44.3334 113.328C43.6054 113.328 43.0314 113.062 42.5974 112.516C42.1494 111.984 41.9394 111.256 41.9394 110.346C41.9394 109.45 42.1494 108.736 42.5974 108.19C43.0314 107.644 43.6054 107.364 44.3334 107.364ZM48.8342 103.948V114H49.7582V111.452L50.9482 110.262L53.6782 114H54.7702L51.5922 109.618L54.5322 106.692H53.3422L49.7582 110.374V103.948H48.8342ZM58.7022 114.14C59.4162 114.14 60.0322 113.958 60.5362 113.58C61.0402 113.216 61.4042 112.684 61.6002 112.012L60.7602 111.746C60.6482 112.25 60.4102 112.628 60.0462 112.908C59.6822 113.188 59.2342 113.328 58.7022 113.328C57.9742 113.328 57.4002 113.062 56.9522 112.53C56.5042 111.998 56.2802 111.298 56.2802 110.416H61.6562V110.108C61.6562 109.03 61.3902 108.162 60.8582 107.518C60.3262 106.874 59.5842 106.552 58.6602 106.552C58.1562 106.552 57.7082 106.65 57.2882 106.846C56.8682 107.042 56.5182 107.336 56.2242 107.714C55.9442 108.05 55.7482 108.442 55.6082 108.89C55.4682 109.338 55.3982 109.828 55.3982 110.346C55.3982 111.48 55.6922 112.39 56.3082 113.09C56.9102 113.79 57.7082 114.14 58.7022 114.14ZM58.6602 107.364C59.2762 107.364 59.7802 107.574 60.1442 107.994C60.5082 108.414 60.6902 108.988 60.7182 109.688H56.3222C56.4202 108.974 56.6862 108.414 57.1062 107.994C57.5262 107.574 58.0442 107.364 58.6602 107.364ZM64.4008 114V109.576C64.4008 109.282 64.4428 109.002 64.5548 108.75C64.6528 108.498 64.8068 108.26 65.0028 108.05C65.1988 107.854 65.4228 107.7 65.6888 107.588C65.9408 107.476 66.2068 107.42 66.4868 107.42C67.0328 107.42 67.4528 107.602 67.7468 107.938C68.0408 108.288 68.1948 108.778 68.1948 109.408V114H69.1188V109.198C69.1188 108.386 68.8948 107.742 68.4748 107.266C68.0548 106.79 67.4668 106.552 66.7108 106.552C66.2068 106.552 65.7588 106.678 65.3668 106.902C64.9608 107.14 64.6388 107.462 64.4008 107.868V106.692H63.4768V114H64.4008ZM78.306 114C79.314 114 80.098 113.762 80.672 113.272C81.246 112.796 81.54 112.124 81.54 111.256C81.54 110.626 81.358 110.094 81.008 109.646C80.644 109.198 80.154 108.904 79.538 108.75C80.056 108.596 80.462 108.33 80.756 107.938C81.036 107.56 81.19 107.098 81.19 106.538C81.19 105.698 80.91 105.068 80.364 104.62C79.804 104.172 79.006 103.948 77.97 103.948H74.484V114H78.306ZM75.436 104.788H77.914C78.67 104.788 79.258 104.942 79.65 105.25C80.042 105.558 80.238 106.006 80.238 106.594C80.238 107.182 80.042 107.63 79.65 107.938C79.258 108.246 78.67 108.386 77.914 108.386H75.436V104.788ZM78.278 109.24C79.006 109.24 79.566 109.422 79.972 109.758C80.378 110.108 80.588 110.584 80.588 111.2C80.588 111.816 80.378 112.306 79.972 112.642C79.566 112.992 79.006 113.16 78.278 113.16H75.436V109.24H78.278ZM86.351 106.622C85.875 106.622 85.469 106.762 85.119 107.014C84.755 107.266 84.489 107.63 84.307 108.078V106.692H83.383V114H84.307V109.898C84.307 109.226 84.489 108.666 84.881 108.218C85.259 107.77 85.721 107.546 86.281 107.546C86.393 107.546 86.505 107.56 86.603 107.56C86.687 107.574 86.785 107.588 86.883 107.602V106.678C86.799 106.664 86.715 106.65 86.631 106.636C86.533 106.636 86.435 106.622 86.351 106.622ZM93.4035 107.7C93.1095 107.336 92.7595 107.042 92.3395 106.846C91.9195 106.65 91.4575 106.552 90.9535 106.552C90.4495 106.552 89.9875 106.65 89.5675 106.846C89.1475 107.042 88.7975 107.336 88.5035 107.7C88.2235 108.036 88.0275 108.442 87.8875 108.89C87.7475 109.338 87.6775 109.828 87.6775 110.346C87.6775 110.878 87.7475 111.368 87.8875 111.816C88.0275 112.264 88.2235 112.656 88.5035 112.992C88.7975 113.37 89.1475 113.65 89.5675 113.846C89.9875 114.042 90.4495 114.14 90.9535 114.14C91.4575 114.14 91.9195 114.042 92.3395 113.846C92.7595 113.65 93.1095 113.37 93.4035 112.992C93.6835 112.656 93.8935 112.264 94.0335 111.816C94.1735 111.368 94.2435 110.878 94.2435 110.346C94.2435 109.828 94.1735 109.338 94.0335 108.89C93.8935 108.442 93.6835 108.036 93.4035 107.7ZM90.9535 107.35C91.6535 107.35 92.2275 107.63 92.6615 108.176C93.0815 108.722 93.3055 109.45 93.3055 110.346C93.3055 111.256 93.0815 111.984 92.6615 112.53C92.2275 113.076 91.6535 113.342 90.9535 113.342C90.2395 113.342 89.6655 113.076 89.2455 112.53C88.8115 111.984 88.6015 111.256 88.6015 110.346C88.6015 109.45 88.8115 108.722 89.2455 108.176C89.6655 107.63 90.2395 107.35 90.9535 107.35ZM100.117 113.048C100.145 113.44 100.313 113.72 100.621 113.888C100.915 114.056 101.335 114.098 101.895 114.014V113.23C101.615 113.314 101.405 113.314 101.237 113.216C101.069 113.118 100.985 112.95 100.985 112.698V108.806C100.985 108.092 100.761 107.532 100.327 107.14C99.8789 106.748 99.2629 106.552 98.4789 106.552C97.7789 106.552 97.1909 106.734 96.6869 107.084C96.1829 107.448 95.8329 107.924 95.6649 108.512L96.5469 108.778C96.6589 108.33 96.8829 107.98 97.2049 107.742C97.5269 107.504 97.9469 107.378 98.4509 107.378C98.9689 107.378 99.3609 107.504 99.6409 107.756C99.9209 108.008 100.061 108.372 100.061 108.848V109.296L98.4789 109.618C97.3869 109.842 96.6169 110.136 96.1409 110.528C95.6649 110.92 95.4409 111.438 95.4409 112.068C95.4409 112.698 95.6509 113.202 96.0989 113.58C96.5329 113.958 97.0929 114.14 97.7929 114.14C98.2689 114.14 98.7169 114.042 99.1369 113.846C99.5569 113.65 99.8789 113.384 100.117 113.048ZM97.8909 113.37C97.4289 113.37 97.0649 113.258 96.7849 113.02C96.5049 112.782 96.3789 112.46 96.3789 112.054C96.3789 111.606 96.5329 111.242 96.8689 110.99C97.2049 110.738 97.8209 110.514 98.7449 110.318L100.061 110.038V111.578C100.061 112.082 99.8509 112.502 99.4309 112.852C99.0109 113.202 98.4929 113.37 97.8909 113.37ZM105.625 114.14C106.395 114.14 107.039 113.944 107.557 113.524C108.061 113.104 108.327 112.572 108.327 111.928C108.327 111.592 108.257 111.284 108.117 111.032C107.977 110.78 107.753 110.57 107.459 110.402C107.305 110.318 107.123 110.248 106.913 110.164C106.703 110.094 106.297 109.982 105.709 109.842C105.317 109.758 105.051 109.688 104.911 109.646C104.771 109.618 104.645 109.576 104.547 109.52C104.309 109.422 104.141 109.296 104.029 109.156C103.917 109.016 103.875 108.848 103.875 108.624C103.875 108.232 104.015 107.924 104.309 107.686C104.603 107.462 104.995 107.336 105.485 107.336C105.961 107.336 106.381 107.462 106.731 107.686C107.081 107.91 107.347 108.232 107.515 108.652L108.229 108.176C108.033 107.7 107.697 107.308 107.207 107C106.717 106.706 106.157 106.552 105.527 106.552C104.785 106.552 104.169 106.762 103.693 107.154C103.217 107.546 102.979 108.05 102.979 108.666C102.979 109.002 103.035 109.296 103.175 109.534C103.301 109.772 103.497 109.968 103.777 110.122C103.917 110.206 104.085 110.29 104.295 110.36C104.491 110.43 104.869 110.528 105.429 110.654C105.877 110.766 106.185 110.836 106.325 110.878C106.465 110.92 106.605 110.962 106.717 111.004C106.969 111.116 107.151 111.242 107.263 111.396C107.375 111.55 107.431 111.746 107.431 111.984C107.431 112.404 107.249 112.74 106.913 112.992C106.577 113.244 106.143 113.37 105.625 113.37C105.079 113.37 104.589 113.23 104.169 112.95C103.749 112.67 103.455 112.306 103.287 111.83L102.531 112.334C102.755 112.894 103.147 113.342 103.707 113.664C104.267 113.986 104.897 114.14 105.625 114.14ZM112.115 114.07C112.311 114.07 112.493 114.07 112.661 114.042C112.829 114.028 112.997 114 113.179 113.944V113.132C113.025 113.174 112.885 113.202 112.745 113.216C112.605 113.244 112.451 113.244 112.297 113.244C111.891 113.244 111.611 113.174 111.457 113.006C111.289 112.838 111.219 112.572 111.219 112.194V107.49H112.983V106.692H111.219V104.578H110.309V106.692H109.091V107.49H110.309V112.334C110.309 112.936 110.449 113.37 110.729 113.65C111.009 113.93 111.471 114.07 112.115 114.07ZM119.684 112.614L117.948 106.692H116.996L119.236 114H120.048L121.742 108.078L123.408 114H124.22L126.46 106.692H125.536L123.814 112.628L122.148 106.692H121.35L119.684 112.614ZM128.948 105.194V103.948H127.87V105.194H128.948ZM127.94 106.692V114H128.864V106.692H127.94ZM133.265 114.07C133.461 114.07 133.643 114.07 133.811 114.042C133.979 114.028 134.147 114 134.329 113.944V113.132C134.175 113.174 134.035 113.202 133.895 113.216C133.755 113.244 133.601 113.244 133.447 113.244C133.041 113.244 132.761 113.174 132.607 113.006C132.439 112.838 132.369 112.572 132.369 112.194V107.49H134.133V106.692H132.369V104.578H131.459V106.692H130.241V107.49H131.459V112.334C131.459 112.936 131.599 113.37 131.879 113.65C132.159 113.93 132.621 114.07 133.265 114.07ZM136.916 114V109.576C136.916 109.282 136.958 109.002 137.07 108.75C137.168 108.498 137.322 108.26 137.518 108.05C137.714 107.854 137.938 107.7 138.204 107.588C138.456 107.476 138.722 107.42 139.002 107.42C139.548 107.42 139.968 107.602 140.262 107.938C140.556 108.288 140.71 108.778 140.71 109.408V114H141.634V109.198C141.634 108.386 141.41 107.742 140.99 107.266C140.57 106.79 139.982 106.552 139.226 106.552C138.722 106.552 138.274 106.678 137.882 106.902C137.476 107.14 137.154 107.462 136.916 107.868V103.948H135.992V114H136.916ZM152.642 112.95C152.894 112.614 153.076 112.222 153.216 111.774C153.342 111.326 153.412 110.85 153.412 110.346C153.412 109.842 153.342 109.366 153.216 108.918C153.076 108.47 152.894 108.078 152.642 107.742C152.362 107.35 152.012 107.056 151.606 106.86C151.2 106.664 150.752 106.552 150.276 106.552C149.744 106.552 149.254 106.692 148.834 106.944C148.414 107.196 148.092 107.546 147.868 107.994V106.692H146.944V116.52H147.868V112.698C148.092 113.146 148.414 113.51 148.834 113.762C149.254 114.014 149.744 114.14 150.276 114.14C150.752 114.14 151.2 114.042 151.606 113.846C152.012 113.65 152.362 113.342 152.642 112.95ZM148.414 108.204C148.61 107.952 148.862 107.742 149.17 107.602C149.478 107.462 149.786 107.378 150.122 107.378C150.836 107.378 151.41 107.658 151.844 108.19C152.264 108.736 152.488 109.45 152.488 110.346C152.488 111.242 152.264 111.97 151.844 112.516C151.41 113.062 150.836 113.328 150.122 113.328C149.786 113.328 149.478 113.258 149.184 113.118C148.876 112.978 148.624 112.782 148.414 112.516C148.218 112.292 148.078 112.012 147.994 111.704C147.896 111.396 147.854 111.046 147.854 110.668V110.066C147.854 109.688 147.896 109.338 147.994 109.03C148.078 108.722 148.218 108.442 148.414 108.204ZM158.028 114.14C158.742 114.14 159.358 113.958 159.862 113.58C160.366 113.216 160.73 112.684 160.926 112.012L160.086 111.746C159.974 112.25 159.736 112.628 159.372 112.908C159.008 113.188 158.56 113.328 158.028 113.328C157.3 113.328 156.726 113.062 156.278 112.53C155.83 111.998 155.606 111.298 155.606 110.416H160.982V110.108C160.982 109.03 160.716 108.162 160.184 107.518C159.652 106.874 158.91 106.552 157.986 106.552C157.482 106.552 157.034 106.65 156.614 106.846C156.194 107.042 155.844 107.336 155.55 107.714C155.27 108.05 155.074 108.442 154.934 108.89C154.794 109.338 154.724 109.828 154.724 110.346C154.724 111.48 155.018 112.39 155.634 113.09C156.236 113.79 157.034 114.14 158.028 114.14ZM157.986 107.364C158.602 107.364 159.106 107.574 159.47 107.994C159.834 108.414 160.016 108.988 160.044 109.688H155.648C155.746 108.974 156.012 108.414 156.432 107.994C156.852 107.574 157.37 107.364 157.986 107.364ZM168.501 112.95C168.753 112.614 168.935 112.222 169.075 111.774C169.201 111.326 169.271 110.85 169.271 110.346C169.271 109.842 169.201 109.366 169.075 108.918C168.935 108.47 168.753 108.078 168.501 107.742C168.221 107.35 167.871 107.056 167.465 106.86C167.059 106.664 166.611 106.552 166.135 106.552C165.603 106.552 165.113 106.692 164.693 106.944C164.273 107.196 163.951 107.546 163.727 107.994V106.692H162.803V116.52H163.727V112.698C163.951 113.146 164.273 113.51 164.693 113.762C165.113 114.014 165.603 114.14 166.135 114.14C166.611 114.14 167.059 114.042 167.465 113.846C167.871 113.65 168.221 113.342 168.501 112.95ZM164.273 108.204C164.469 107.952 164.721 107.742 165.029 107.602C165.337 107.462 165.645 107.378 165.981 107.378C166.695 107.378 167.269 107.658 167.703 108.19C168.123 108.736 168.347 109.45 168.347 110.346C168.347 111.242 168.123 111.97 167.703 112.516C167.269 113.062 166.695 113.328 165.981 113.328C165.645 113.328 165.337 113.258 165.043 113.118C164.735 112.978 164.483 112.782 164.273 112.516C164.077 112.292 163.937 112.012 163.853 111.704C163.755 111.396 163.713 111.046 163.713 110.668V110.066C163.713 109.688 163.755 109.338 163.853 109.03C163.937 108.722 164.077 108.442 164.273 108.204ZM173.356 114.14C174.126 114.14 174.77 113.944 175.288 113.524C175.792 113.104 176.058 112.572 176.058 111.928C176.058 111.592 175.988 111.284 175.848 111.032C175.708 110.78 175.484 110.57 175.19 110.402C175.036 110.318 174.854 110.248 174.644 110.164C174.434 110.094 174.028 109.982 173.44 109.842C173.048 109.758 172.782 109.688 172.642 109.646C172.502 109.618 172.376 109.576 172.278 109.52C172.04 109.422 171.872 109.296 171.76 109.156C171.648 109.016 171.606 108.848 171.606 108.624C171.606 108.232 171.746 107.924 172.04 107.686C172.334 107.462 172.726 107.336 173.216 107.336C173.692 107.336 174.112 107.462 174.462 107.686C174.812 107.91 175.078 108.232 175.246 108.652L175.96 108.176C175.764 107.7 175.428 107.308 174.938 107C174.448 106.706 173.888 106.552 173.258 106.552C172.516 106.552 171.9 106.762 171.424 107.154C170.948 107.546 170.71 108.05 170.71 108.666C170.71 109.002 170.766 109.296 170.906 109.534C171.032 109.772 171.228 109.968 171.508 110.122C171.648 110.206 171.816 110.29 172.026 110.36C172.222 110.43 172.6 110.528 173.16 110.654C173.608 110.766 173.916 110.836 174.056 110.878C174.196 110.92 174.336 110.962 174.448 111.004C174.7 111.116 174.882 111.242 174.994 111.396C175.106 111.55 175.162 111.746 175.162 111.984C175.162 112.404 174.98 112.74 174.644 112.992C174.308 113.244 173.874 113.37 173.356 113.37C172.81 113.37 172.32 113.23 171.9 112.95C171.48 112.67 171.186 112.306 171.018 111.83L170.262 112.334C170.486 112.894 170.878 113.342 171.438 113.664C171.998 113.986 172.628 114.14 173.356 114.14ZM178.809 105.194V103.948H177.731V105.194H178.809ZM177.801 106.692V114H178.725V106.692H177.801Z" fill="black"/>
<path d="M26.832 130L24.088 126.164L26.566 122.692H25.53L23.542 125.478L21.582 122.692H20.518L22.996 126.164L20.252 130H21.274L23.528 126.85L25.768 130H26.832ZM30.106 119.892C30.064 120.494 29.938 120.9 29.742 121.11C29.532 121.334 29.154 121.446 28.608 121.474L27.432 121.53V122.272H29.854V130H30.834V119.892H30.106ZM37.0241 125.52C37.0241 124.456 37.2201 123.406 37.6121 122.398C38.0041 121.39 38.5641 120.48 39.2921 119.668H38.3261C37.5701 120.48 36.9821 121.39 36.5761 122.384C36.1701 123.392 35.9741 124.428 35.9741 125.52C35.9741 126.612 36.1701 127.648 36.5761 128.642C36.9681 129.65 37.5561 130.56 38.3261 131.372H39.2921C38.5641 130.588 38.0041 129.678 37.6121 128.67C37.2201 127.662 37.0241 126.612 37.0241 125.52ZM47.5328 124.372H41.6808V119.948H40.7008V130H41.6808V125.226H47.5328V130H48.5128V119.948H47.5328V124.372ZM54.9997 129.048C55.0277 129.44 55.1957 129.72 55.5037 129.888C55.7977 130.056 56.2177 130.098 56.7777 130.014V129.23C56.4977 129.314 56.2877 129.314 56.1197 129.216C55.9517 129.118 55.8677 128.95 55.8677 128.698V124.806C55.8677 124.092 55.6437 123.532 55.2097 123.14C54.7617 122.748 54.1457 122.552 53.3617 122.552C52.6617 122.552 52.0737 122.734 51.5697 123.084C51.0657 123.448 50.7157 123.924 50.5477 124.512L51.4297 124.778C51.5417 124.33 51.7657 123.98 52.0877 123.742C52.4097 123.504 52.8297 123.378 53.3337 123.378C53.8517 123.378 54.2437 123.504 54.5237 123.756C54.8037 124.008 54.9437 124.372 54.9437 124.848V125.296L53.3617 125.618C52.2697 125.842 51.4997 126.136 51.0237 126.528C50.5477 126.92 50.3237 127.438 50.3237 128.068C50.3237 128.698 50.5337 129.202 50.9817 129.58C51.4157 129.958 51.9757 130.14 52.6757 130.14C53.1517 130.14 53.5997 130.042 54.0197 129.846C54.4397 129.65 54.7617 129.384 54.9997 129.048ZM52.7737 129.37C52.3117 129.37 51.9477 129.258 51.6677 129.02C51.3877 128.782 51.2617 128.46 51.2617 128.054C51.2617 127.606 51.4157 127.242 51.7517 126.99C52.0877 126.738 52.7037 126.514 53.6277 126.318L54.9437 126.038V127.578C54.9437 128.082 54.7337 128.502 54.3137 128.852C53.8937 129.202 53.3757 129.37 52.7737 129.37ZM58.2541 119.948V130H59.1781V119.948H58.2541ZM63.9014 119.808C63.2434 119.808 62.7254 120.004 62.3614 120.396C61.9834 120.788 61.8014 121.334 61.8014 122.02V122.692H60.6534V123.49H61.8014V130H62.7394V123.49H64.4754V122.692H62.7394V122.09C62.7394 121.6 62.8374 121.236 63.0334 120.998C63.2294 120.76 63.5514 120.634 63.9714 120.634C64.0554 120.634 64.1394 120.648 64.2234 120.648C64.3074 120.648 64.4194 120.662 64.5594 120.676V119.85C64.4754 119.836 64.3914 119.822 64.3074 119.822C64.2234 119.822 64.0834 119.808 63.9014 119.808ZM67.5809 125.52C67.5809 126.612 67.3709 127.662 66.9789 128.67C66.5869 129.678 66.0269 130.588 65.3129 131.372H66.2789C67.0349 130.56 67.6229 129.65 68.0289 128.642C68.4209 127.648 68.6309 126.612 68.6309 125.52C68.6309 124.428 68.4209 123.392 68.0149 122.384C67.6089 121.39 67.0349 120.48 66.2789 119.668H65.3129C66.0269 120.48 66.5869 121.39 66.9789 122.398C67.3709 123.406 67.5809 124.456 67.5809 125.52Z" fill="black" fill-opacity="0.6"/>
<path d="M369.869 120.082C370.205 120.642 370.695 121.104 371.325 121.468C371.941 121.832 372.655 122.042 373.453 122.126V123.484H374.783V122.112C375.721 121.986 376.477 121.636 377.065 121.076C377.639 120.516 377.933 119.83 377.933 119.004C377.933 118.556 377.849 118.15 377.695 117.814C377.527 117.478 377.289 117.184 376.981 116.96C376.743 116.792 376.463 116.638 376.127 116.512C375.791 116.4 375.343 116.288 374.783 116.176V113.32C375.175 113.418 375.525 113.586 375.847 113.838C376.169 114.09 376.449 114.398 376.687 114.79L377.905 113.642C377.625 113.166 377.219 112.774 376.673 112.452C376.113 112.144 375.483 111.934 374.783 111.836V110.492H373.453V111.836C372.529 111.948 371.773 112.27 371.213 112.802C370.653 113.348 370.373 114.02 370.373 114.804C370.373 115.252 370.443 115.63 370.597 115.952C370.751 116.288 370.989 116.554 371.311 116.778C371.535 116.946 371.815 117.1 372.151 117.212C372.473 117.324 372.907 117.436 373.453 117.534V120.614C372.963 120.544 372.529 120.376 372.165 120.096C371.801 119.83 371.465 119.452 371.185 118.962L369.869 120.082ZM371.997 114.678C371.997 114.314 372.123 114.02 372.375 113.768C372.627 113.53 372.991 113.362 373.453 113.278V115.924C372.921 115.798 372.543 115.63 372.319 115.434C372.095 115.238 371.997 114.986 371.997 114.678ZM376.295 119.13C376.295 119.536 376.155 119.858 375.903 120.11C375.637 120.362 375.259 120.53 374.783 120.6V117.8C375.315 117.94 375.707 118.108 375.945 118.318C376.169 118.528 376.295 118.794 376.295 119.13ZM378.659 122H385.687V120.432H381.123L382.803 119.102C383.265 118.738 383.643 118.416 383.937 118.136C384.217 117.87 384.469 117.604 384.679 117.338C384.973 116.96 385.197 116.582 385.337 116.19C385.477 115.798 385.561 115.406 385.561 114.986C385.561 114.034 385.239 113.264 384.609 112.676C383.979 112.088 383.153 111.794 382.117 111.794C381.655 111.794 381.221 111.878 380.801 112.032C380.381 112.186 380.003 112.41 379.695 112.69C379.359 112.998 379.093 113.362 378.925 113.754C378.743 114.16 378.659 114.594 378.659 115.042C378.659 115.238 378.673 115.42 378.701 115.574C378.729 115.728 378.771 115.896 378.841 116.092H380.507C380.451 115.952 380.409 115.798 380.381 115.63C380.353 115.462 380.339 115.308 380.339 115.14C380.339 114.622 380.493 114.188 380.829 113.838C381.151 113.502 381.571 113.32 382.075 113.32C382.579 113.32 382.999 113.488 383.307 113.81C383.615 114.146 383.783 114.566 383.783 115.098C383.783 115.406 383.699 115.728 383.545 116.036C383.391 116.344 383.153 116.68 382.831 117.016C382.663 117.184 382.481 117.366 382.271 117.562C382.047 117.758 381.683 118.052 381.179 118.472L378.659 120.544V122ZM390.063 116.75C390.595 116.75 391.043 116.946 391.379 117.31C391.715 117.688 391.897 118.164 391.897 118.738C391.897 119.298 391.701 119.76 391.337 120.124C390.973 120.488 390.511 120.67 389.965 120.67C389.433 120.67 388.985 120.516 388.621 120.18C388.257 119.844 388.047 119.396 387.963 118.822L386.241 119.13C386.395 120.082 386.801 120.824 387.459 121.356C388.117 121.888 388.957 122.154 389.965 122.154C390.455 122.154 390.917 122.07 391.365 121.902C391.799 121.734 392.177 121.496 392.513 121.188C392.849 120.866 393.115 120.488 393.297 120.054C393.479 119.634 393.577 119.172 393.577 118.682C393.577 118.206 393.493 117.772 393.339 117.352C393.185 116.932 392.975 116.582 392.695 116.274C392.387 115.966 392.037 115.714 391.631 115.546C391.225 115.378 390.777 115.294 390.301 115.294C389.937 115.294 389.601 115.364 389.293 115.476C388.971 115.602 388.691 115.77 388.467 115.98L388.691 113.516H392.975V111.948H387.319L386.871 117.268L388.495 117.492C388.663 117.268 388.873 117.086 389.153 116.946C389.433 116.82 389.727 116.75 390.063 116.75Z" fill="black"/>
<path d="M22.408 154.048C22.716 153.614 23.108 153.278 23.556 153.04C24.004 152.802 24.508 152.676 25.04 152.676C25.712 152.676 26.3 152.872 26.79 153.236C27.28 153.614 27.63 154.132 27.854 154.804L28.792 154.51C28.484 153.656 28.008 152.998 27.364 152.522C26.706 152.046 25.936 151.808 25.04 151.808C24.368 151.808 23.752 151.948 23.192 152.228C22.618 152.508 22.128 152.9 21.722 153.404C21.358 153.88 21.078 154.412 20.882 155.014C20.686 155.63 20.602 156.274 20.602 156.974C20.602 157.674 20.686 158.332 20.882 158.934C21.078 159.55 21.358 160.082 21.722 160.544C22.128 161.062 22.618 161.454 23.192 161.734C23.752 162.014 24.368 162.14 25.04 162.14C25.936 162.14 26.706 161.916 27.364 161.44C28.008 160.964 28.484 160.306 28.792 159.438L27.854 159.144C27.63 159.816 27.28 160.348 26.79 160.712C26.3 161.09 25.712 161.272 25.04 161.272C24.508 161.272 24.004 161.16 23.556 160.922C23.108 160.684 22.716 160.348 22.408 159.9C22.128 159.522 21.918 159.088 21.778 158.584C21.638 158.08 21.568 157.548 21.568 156.974C21.568 156.414 21.638 155.882 21.778 155.378C21.918 154.874 22.128 154.44 22.408 154.048ZM31.2465 162V157.576C31.2465 157.282 31.2885 157.002 31.4005 156.75C31.4985 156.498 31.6525 156.26 31.8485 156.05C32.0445 155.854 32.2685 155.7 32.5345 155.588C32.7865 155.476 33.0525 155.42 33.3325 155.42C33.8785 155.42 34.2985 155.602 34.5925 155.938C34.8865 156.288 35.0405 156.778 35.0405 157.408V162H35.9645V157.198C35.9645 156.386 35.7405 155.742 35.3205 155.266C34.9005 154.79 34.3125 154.552 33.5565 154.552C33.0525 154.552 32.6045 154.678 32.2125 154.902C31.8065 155.14 31.4845 155.462 31.2465 155.868V151.948H30.3225V162H31.2465ZM39.2602 153.194V151.948H38.1822V153.194H39.2602ZM38.2522 154.692V162H39.1762V154.692H38.2522ZM44.3334 155.364C44.8374 155.364 45.2714 155.518 45.6074 155.812C45.9434 156.106 46.1814 156.512 46.3074 157.044L47.1334 156.694C46.9514 156.036 46.6154 155.518 46.1254 155.126C45.6214 154.748 45.0334 154.552 44.3334 154.552C43.8294 154.552 43.3534 154.65 42.9334 154.846C42.5134 155.042 42.1494 155.322 41.8554 155.686C41.5754 156.022 41.3654 156.428 41.2254 156.876C41.0854 157.324 41.0154 157.814 41.0154 158.346C41.0154 158.878 41.0854 159.382 41.2254 159.83C41.3654 160.278 41.5754 160.67 41.8554 161.006C42.1494 161.384 42.5134 161.664 42.9334 161.86C43.3534 162.056 43.8294 162.14 44.3334 162.14C45.0334 162.14 45.6354 161.958 46.1394 161.566C46.6434 161.188 46.9794 160.656 47.1474 159.984L46.3074 159.648C46.1814 160.18 45.9434 160.6 45.6074 160.894C45.2714 161.188 44.8374 161.328 44.3334 161.328C43.6054 161.328 43.0314 161.062 42.5974 160.516C42.1494 159.984 41.9394 159.256 41.9394 158.346C41.9394 157.45 42.1494 156.736 42.5974 156.19C43.0314 155.644 43.6054 155.364 44.3334 155.364ZM48.8342 151.948V162H49.7582V159.452L50.9482 158.262L53.6782 162H54.7702L51.5922 157.618L54.5322 154.692H53.3422L49.7582 158.374V151.948H48.8342ZM58.7022 162.14C59.4162 162.14 60.0322 161.958 60.5362 161.58C61.0402 161.216 61.4042 160.684 61.6002 160.012L60.7602 159.746C60.6482 160.25 60.4102 160.628 60.0462 160.908C59.6822 161.188 59.2342 161.328 58.7022 161.328C57.9742 161.328 57.4002 161.062 56.9522 160.53C56.5042 159.998 56.2802 159.298 56.2802 158.416H61.6562V158.108C61.6562 157.03 61.3902 156.162 60.8582 155.518C60.3262 154.874 59.5842 154.552 58.6602 154.552C58.1562 154.552 57.7082 154.65 57.2882 154.846C56.8682 155.042 56.5182 155.336 56.2242 155.714C55.9442 156.05 55.7482 156.442 55.6082 156.89C55.4682 157.338 55.3982 157.828 55.3982 158.346C55.3982 159.48 55.6922 160.39 56.3082 161.09C56.9102 161.79 57.7082 162.14 58.7022 162.14ZM58.6602 155.364C59.2762 155.364 59.7802 155.574 60.1442 155.994C60.5082 156.414 60.6902 156.988 60.7182 157.688H56.3222C56.4202 156.974 56.6862 156.414 57.1062 155.994C57.5262 155.574 58.0442 155.364 58.6602 155.364ZM64.4008 162V157.576C64.4008 157.282 64.4428 157.002 64.5548 156.75C64.6528 156.498 64.8068 156.26 65.0028 156.05C65.1988 155.854 65.4228 155.7 65.6888 155.588C65.9408 155.476 66.2068 155.42 66.4868 155.42C67.0328 155.42 67.4528 155.602 67.7468 155.938C68.0408 156.288 68.1948 156.778 68.1948 157.408V162H69.1188V157.198C69.1188 156.386 68.8948 155.742 68.4748 155.266C68.0548 154.79 67.4668 154.552 66.7108 154.552C66.2068 154.552 65.7588 154.678 65.3668 154.902C64.9608 155.14 64.6388 155.462 64.4008 155.868V154.692H63.4768V162H64.4008ZM78.306 162C79.314 162 80.098 161.762 80.672 161.272C81.246 160.796 81.54 160.124 81.54 159.256C81.54 158.626 81.358 158.094 81.008 157.646C80.644 157.198 80.154 156.904 79.538 156.75C80.056 156.596 80.462 156.33 80.756 155.938C81.036 155.56 81.19 155.098 81.19 154.538C81.19 153.698 80.91 153.068 80.364 152.62C79.804 152.172 79.006 151.948 77.97 151.948H74.484V162H78.306ZM75.436 152.788H77.914C78.67 152.788 79.258 152.942 79.65 153.25C80.042 153.558 80.238 154.006 80.238 154.594C80.238 155.182 80.042 155.63 79.65 155.938C79.258 156.246 78.67 156.386 77.914 156.386H75.436V152.788ZM78.278 157.24C79.006 157.24 79.566 157.422 79.972 157.758C80.378 158.108 80.588 158.584 80.588 159.2C80.588 159.816 80.378 160.306 79.972 160.642C79.566 160.992 79.006 161.16 78.278 161.16H75.436V157.24H78.278ZM86.351 154.622C85.875 154.622 85.469 154.762 85.119 155.014C84.755 155.266 84.489 155.63 84.307 156.078V154.692H83.383V162H84.307V157.898C84.307 157.226 84.489 156.666 84.881 156.218C85.259 155.77 85.721 155.546 86.281 155.546C86.393 155.546 86.505 155.56 86.603 155.56C86.687 155.574 86.785 155.588 86.883 155.602V154.678C86.799 154.664 86.715 154.65 86.631 154.636C86.533 154.636 86.435 154.622 86.351 154.622ZM93.4035 155.7C93.1095 155.336 92.7595 155.042 92.3395 154.846C91.9195 154.65 91.4575 154.552 90.9535 154.552C90.4495 154.552 89.9875 154.65 89.5675 154.846C89.1475 155.042 88.7975 155.336 88.5035 155.7C88.2235 156.036 88.0275 156.442 87.8875 156.89C87.7475 157.338 87.6775 157.828 87.6775 158.346C87.6775 158.878 87.7475 159.368 87.8875 159.816C88.0275 160.264 88.2235 160.656 88.5035 160.992C88.7975 161.37 89.1475 161.65 89.5675 161.846C89.9875 162.042 90.4495 162.14 90.9535 162.14C91.4575 162.14 91.9195 162.042 92.3395 161.846C92.7595 161.65 93.1095 161.37 93.4035 160.992C93.6835 160.656 93.8935 160.264 94.0335 159.816C94.1735 159.368 94.2435 158.878 94.2435 158.346C94.2435 157.828 94.1735 157.338 94.0335 156.89C93.8935 156.442 93.6835 156.036 93.4035 155.7ZM90.9535 155.35C91.6535 155.35 92.2275 155.63 92.6615 156.176C93.0815 156.722 93.3055 157.45 93.3055 158.346C93.3055 159.256 93.0815 159.984 92.6615 160.53C92.2275 161.076 91.6535 161.342 90.9535 161.342C90.2395 161.342 89.6655 161.076 89.2455 160.53C88.8115 159.984 88.6015 159.256 88.6015 158.346C88.6015 157.45 88.8115 156.722 89.2455 156.176C89.6655 155.63 90.2395 155.35 90.9535 155.35ZM100.117 161.048C100.145 161.44 100.313 161.72 100.621 161.888C100.915 162.056 101.335 162.098 101.895 162.014V161.23C101.615 161.314 101.405 161.314 101.237 161.216C101.069 161.118 100.985 160.95 100.985 160.698V156.806C100.985 156.092 100.761 155.532 100.327 155.14C99.8789 154.748 99.2629 154.552 98.4789 154.552C97.7789 154.552 97.1909 154.734 96.6869 155.084C96.1829 155.448 95.8329 155.924 95.6649 156.512L96.5469 156.778C96.6589 156.33 96.8829 155.98 97.2049 155.742C97.5269 155.504 97.9469 155.378 98.4509 155.378C98.9689 155.378 99.3609 155.504 99.6409 155.756C99.9209 156.008 100.061 156.372 100.061 156.848V157.296L98.4789 157.618C97.3869 157.842 96.6169 158.136 96.1409 158.528C95.6649 158.92 95.4409 159.438 95.4409 160.068C95.4409 160.698 95.6509 161.202 96.0989 161.58C96.5329 161.958 97.0929 162.14 97.7929 162.14C98.2689 162.14 98.7169 162.042 99.1369 161.846C99.5569 161.65 99.8789 161.384 100.117 161.048ZM97.8909 161.37C97.4289 161.37 97.0649 161.258 96.7849 161.02C96.5049 160.782 96.3789 160.46 96.3789 160.054C96.3789 159.606 96.5329 159.242 96.8689 158.99C97.2049 158.738 97.8209 158.514 98.7449 158.318L100.061 158.038V159.578C100.061 160.082 99.8509 160.502 99.4309 160.852C99.0109 161.202 98.4929 161.37 97.8909 161.37ZM105.625 162.14C106.395 162.14 107.039 161.944 107.557 161.524C108.061 161.104 108.327 160.572 108.327 159.928C108.327 159.592 108.257 159.284 108.117 159.032C107.977 158.78 107.753 158.57 107.459 158.402C107.305 158.318 107.123 158.248 106.913 158.164C106.703 158.094 106.297 157.982 105.709 157.842C105.317 157.758 105.051 157.688 104.911 157.646C104.771 157.618 104.645 157.576 104.547 157.52C104.309 157.422 104.141 157.296 104.029 157.156C103.917 157.016 103.875 156.848 103.875 156.624C103.875 156.232 104.015 155.924 104.309 155.686C104.603 155.462 104.995 155.336 105.485 155.336C105.961 155.336 106.381 155.462 106.731 155.686C107.081 155.91 107.347 156.232 107.515 156.652L108.229 156.176C108.033 155.7 107.697 155.308 107.207 155C106.717 154.706 106.157 154.552 105.527 154.552C104.785 154.552 104.169 154.762 103.693 155.154C103.217 155.546 102.979 156.05 102.979 156.666C102.979 157.002 103.035 157.296 103.175 157.534C103.301 157.772 103.497 157.968 103.777 158.122C103.917 158.206 104.085 158.29 104.295 158.36C104.491 158.43 104.869 158.528 105.429 158.654C105.877 158.766 106.185 158.836 106.325 158.878C106.465 158.92 106.605 158.962 106.717 159.004C106.969 159.116 107.151 159.242 107.263 159.396C107.375 159.55 107.431 159.746 107.431 159.984C107.431 160.404 107.249 160.74 106.913 160.992C106.577 161.244 106.143 161.37 105.625 161.37C105.079 161.37 104.589 161.23 104.169 160.95C103.749 160.67 103.455 160.306 103.287 159.83L102.531 160.334C102.755 160.894 103.147 161.342 103.707 161.664C104.267 161.986 104.897 162.14 105.625 162.14ZM112.115 162.07C112.311 162.07 112.493 162.07 112.661 162.042C112.829 162.028 112.997 162 113.179 161.944V161.132C113.025 161.174 112.885 161.202 112.745 161.216C112.605 161.244 112.451 161.244 112.297 161.244C111.891 161.244 111.611 161.174 111.457 161.006C111.289 160.838 111.219 160.572 111.219 160.194V155.49H112.983V154.692H111.219V152.578H110.309V154.692H109.091V155.49H110.309V160.334C110.309 160.936 110.449 161.37 110.729 161.65C111.009 161.93 111.471 162.07 112.115 162.07ZM119.684 160.614L117.948 154.692H116.996L119.236 162H120.048L121.742 156.078L123.408 162H124.22L126.46 154.692H125.536L123.814 160.628L122.148 154.692H121.35L119.684 160.614ZM128.948 153.194V151.948H127.87V153.194H128.948ZM127.94 154.692V162H128.864V154.692H127.94ZM133.265 162.07C133.461 162.07 133.643 162.07 133.811 162.042C133.979 162.028 134.147 162 134.329 161.944V161.132C134.175 161.174 134.035 161.202 133.895 161.216C133.755 161.244 133.601 161.244 133.447 161.244C133.041 161.244 132.761 161.174 132.607 161.006C132.439 160.838 132.369 160.572 132.369 160.194V155.49H134.133V154.692H132.369V152.578H131.459V154.692H130.241V155.49H131.459V160.334C131.459 160.936 131.599 161.37 131.879 161.65C132.159 161.93 132.621 162.07 133.265 162.07ZM136.916 162V157.576C136.916 157.282 136.958 157.002 137.07 156.75C137.168 156.498 137.322 156.26 137.518 156.05C137.714 155.854 137.938 155.7 138.204 155.588C138.456 155.476 138.722 155.42 139.002 155.42C139.548 155.42 139.968 155.602 140.262 155.938C140.556 156.288 140.71 156.778 140.71 157.408V162H141.634V157.198C141.634 156.386 141.41 155.742 140.99 155.266C140.57 154.79 139.982 154.552 139.226 154.552C138.722 154.552 138.274 154.678 137.882 154.902C137.476 155.14 137.154 155.462 136.916 155.868V151.948H135.992V162H136.916ZM152.642 160.95C152.894 160.614 153.076 160.222 153.216 159.774C153.342 159.326 153.412 158.85 153.412 158.346C153.412 157.842 153.342 157.366 153.216 156.918C153.076 156.47 152.894 156.078 152.642 155.742C152.362 155.35 152.012 155.056 151.606 154.86C151.2 154.664 150.752 154.552 150.276 154.552C149.744 154.552 149.254 154.692 148.834 154.944C148.414 155.196 148.092 155.546 147.868 155.994V154.692H146.944V164.52H147.868V160.698C148.092 161.146 148.414 161.51 148.834 161.762C149.254 162.014 149.744 162.14 150.276 162.14C150.752 162.14 151.2 162.042 151.606 161.846C152.012 161.65 152.362 161.342 152.642 160.95ZM148.414 156.204C148.61 155.952 148.862 155.742 149.17 155.602C149.478 155.462 149.786 155.378 150.122 155.378C150.836 155.378 151.41 155.658 151.844 156.19C152.264 156.736 152.488 157.45 152.488 158.346C152.488 159.242 152.264 159.97 151.844 160.516C151.41 161.062 150.836 161.328 150.122 161.328C149.786 161.328 149.478 161.258 149.184 161.118C148.876 160.978 148.624 160.782 148.414 160.516C148.218 160.292 148.078 160.012 147.994 159.704C147.896 159.396 147.854 159.046 147.854 158.668V158.066C147.854 157.688 147.896 157.338 147.994 157.03C148.078 156.722 148.218 156.442 148.414 156.204ZM158.028 162.14C158.742 162.14 159.358 161.958 159.862 161.58C160.366 161.216 160.73 160.684 160.926 160.012L160.086 159.746C159.974 160.25 159.736 160.628 159.372 160.908C159.008 161.188 158.56 161.328 158.028 161.328C157.3 161.328 156.726 161.062 156.278 160.53C155.83 159.998 155.606 159.298 155.606 158.416H160.982V158.108C160.982 157.03 160.716 156.162 160.184 155.518C159.652 154.874 158.91 154.552 157.986 154.552C157.482 154.552 157.034 154.65 156.614 154.846C156.194 155.042 155.844 155.336 155.55 155.714C155.27 156.05 155.074 156.442 154.934 156.89C154.794 157.338 154.724 157.828 154.724 158.346C154.724 159.48 155.018 160.39 155.634 161.09C156.236 161.79 157.034 162.14 158.028 162.14ZM157.986 155.364C158.602 155.364 159.106 155.574 159.47 155.994C159.834 156.414 160.016 156.988 160.044 157.688H155.648C155.746 156.974 156.012 156.414 156.432 155.994C156.852 155.574 157.37 155.364 157.986 155.364ZM168.501 160.95C168.753 160.614 168.935 160.222 169.075 159.774C169.201 159.326 169.271 158.85 169.271 158.346C169.271 157.842 169.201 157.366 169.075 156.918C168.935 156.47 168.753 156.078 168.501 155.742C168.221 155.35 167.871 155.056 167.465 154.86C167.059 154.664 166.611 154.552 166.135 154.552C165.603 154.552 165.113 154.692 164.693 154.944C164.273 155.196 163.951 155.546 163.727 155.994V154.692H162.803V164.52H163.727V160.698C163.951 161.146 164.273 161.51 164.693 161.762C165.113 162.014 165.603 162.14 166.135 162.14C166.611 162.14 167.059 162.042 167.465 161.846C167.871 161.65 168.221 161.342 168.501 160.95ZM164.273 156.204C164.469 155.952 164.721 155.742 165.029 155.602C165.337 155.462 165.645 155.378 165.981 155.378C166.695 155.378 167.269 155.658 167.703 156.19C168.123 156.736 168.347 157.45 168.347 158.346C168.347 159.242 168.123 159.97 167.703 160.516C167.269 161.062 166.695 161.328 165.981 161.328C165.645 161.328 165.337 161.258 165.043 161.118C164.735 160.978 164.483 160.782 164.273 160.516C164.077 160.292 163.937 160.012 163.853 159.704C163.755 159.396 163.713 159.046 163.713 158.668V158.066C163.713 157.688 163.755 157.338 163.853 157.03C163.937 156.722 164.077 156.442 164.273 156.204ZM173.356 162.14C174.126 162.14 174.77 161.944 175.288 161.524C175.792 161.104 176.058 160.572 176.058 159.928C176.058 159.592 175.988 159.284 175.848 159.032C175.708 158.78 175.484 158.57 175.19 158.402C175.036 158.318 174.854 158.248 174.644 158.164C174.434 158.094 174.028 157.982 173.44 157.842C173.048 157.758 172.782 157.688 172.642 157.646C172.502 157.618 172.376 157.576 172.278 157.52C172.04 157.422 171.872 157.296 171.76 157.156C171.648 157.016 171.606 156.848 171.606 156.624C171.606 156.232 171.746 155.924 172.04 155.686C172.334 155.462 172.726 155.336 173.216 155.336C173.692 155.336 174.112 155.462 174.462 155.686C174.812 155.91 175.078 156.232 175.246 156.652L175.96 156.176C175.764 155.7 175.428 155.308 174.938 155C174.448 154.706 173.888 154.552 173.258 154.552C172.516 154.552 171.9 154.762 171.424 155.154C170.948 155.546 170.71 156.05 170.71 156.666C170.71 157.002 170.766 157.296 170.906 157.534C171.032 157.772 171.228 157.968 171.508 158.122C171.648 158.206 171.816 158.29 172.026 158.36C172.222 158.43 172.6 158.528 173.16 158.654C173.608 158.766 173.916 158.836 174.056 158.878C174.196 158.92 174.336 158.962 174.448 159.004C174.7 159.116 174.882 159.242 174.994 159.396C175.106 159.55 175.162 159.746 175.162 159.984C175.162 160.404 174.98 160.74 174.644 160.992C174.308 161.244 173.874 161.37 173.356 161.37C172.81 161.37 172.32 161.23 171.9 160.95C171.48 160.67 171.186 160.306 171.018 159.83L170.262 160.334C170.486 160.894 170.878 161.342 171.438 161.664C171.998 161.986 172.628 162.14 173.356 162.14ZM178.809 153.194V151.948H177.731V153.194H178.809ZM177.801 154.692V162H178.725V154.692H177.801Z" fill="black"/>
<path d="M26.832 178L24.088 174.164L26.566 170.692H25.53L23.542 173.478L21.582 170.692H20.518L22.996 174.164L20.252 178H21.274L23.528 174.85L25.768 178H26.832ZM30.106 167.892C30.064 168.494 29.938 168.9 29.742 169.11C29.532 169.334 29.154 169.446 28.608 169.474L27.432 169.53V170.272H29.854V178H30.834V167.892H30.106ZM37.0241 173.52C37.0241 172.456 37.2201 171.406 37.6121 170.398C38.0041 169.39 38.5641 168.48 39.2921 167.668H38.3261C37.5701 168.48 36.9821 169.39 36.5761 170.384C36.1701 171.392 35.9741 172.428 35.9741 173.52C35.9741 174.612 36.1701 175.648 36.5761 176.642C36.9681 177.65 37.5561 178.56 38.3261 179.372H39.2921C38.5641 178.588 38.0041 177.678 37.6121 176.67C37.2201 175.662 37.0241 174.612 37.0241 173.52ZM47.5328 172.372H41.6808V167.948H40.7008V178H41.6808V173.226H47.5328V178H48.5128V167.948H47.5328V172.372ZM54.9997 177.048C55.0277 177.44 55.1957 177.72 55.5037 177.888C55.7977 178.056 56.2177 178.098 56.7777 178.014V177.23C56.4977 177.314 56.2877 177.314 56.1197 177.216C55.9517 177.118 55.8677 176.95 55.8677 176.698V172.806C55.8677 172.092 55.6437 171.532 55.2097 171.14C54.7617 170.748 54.1457 170.552 53.3617 170.552C52.6617 170.552 52.0737 170.734 51.5697 171.084C51.0657 171.448 50.7157 171.924 50.5477 172.512L51.4297 172.778C51.5417 172.33 51.7657 171.98 52.0877 171.742C52.4097 171.504 52.8297 171.378 53.3337 171.378C53.8517 171.378 54.2437 171.504 54.5237 171.756C54.8037 172.008 54.9437 172.372 54.9437 172.848V173.296L53.3617 173.618C52.2697 173.842 51.4997 174.136 51.0237 174.528C50.5477 174.92 50.3237 175.438 50.3237 176.068C50.3237 176.698 50.5337 177.202 50.9817 177.58C51.4157 177.958 51.9757 178.14 52.6757 178.14C53.1517 178.14 53.5997 178.042 54.0197 177.846C54.4397 177.65 54.7617 177.384 54.9997 177.048ZM52.7737 177.37C52.3117 177.37 51.9477 177.258 51.6677 177.02C51.3877 176.782 51.2617 176.46 51.2617 176.054C51.2617 175.606 51.4157 175.242 51.7517 174.99C52.0877 174.738 52.7037 174.514 53.6277 174.318L54.9437 174.038V175.578C54.9437 176.082 54.7337 176.502 54.3137 176.852C53.8937 177.202 53.3757 177.37 52.7737 177.37ZM58.2541 167.948V178H59.1781V167.948H58.2541ZM63.9014 167.808C63.2434 167.808 62.7254 168.004 62.3614 168.396C61.9834 168.788 61.8014 169.334 61.8014 170.02V170.692H60.6534V171.49H61.8014V178H62.7394V171.49H64.4754V170.692H62.7394V170.09C62.7394 169.6 62.8374 169.236 63.0334 168.998C63.2294 168.76 63.5514 168.634 63.9714 168.634C64.0554 168.634 64.1394 168.648 64.2234 168.648C64.3074 168.648 64.4194 168.662 64.5594 168.676V167.85C64.4754 167.836 64.3914 167.822 64.3074 167.822C64.2234 167.822 64.0834 167.808 63.9014 167.808ZM67.5809 173.52C67.5809 174.612 67.3709 175.662 66.9789 176.67C66.5869 177.678 66.0269 178.588 65.3129 179.372H66.2789C67.0349 178.56 67.6229 177.65 68.0289 176.642C68.4209 175.648 68.6309 174.612 68.6309 173.52C68.6309 172.428 68.4209 171.392 68.0149 170.384C67.6089 169.39 67.0349 168.48 66.2789 167.668H65.3129C66.0269 168.48 66.5869 169.39 66.9789 170.398C67.3709 171.406 67.5809 172.456 67.5809 173.52Z" fill="black" fill-opacity="0.6"/>
<path d="M369.869 168.082C370.205 168.642 370.695 169.104 371.325 169.468C371.941 169.832 372.655 170.042 373.453 170.126V171.484H374.783V170.112C375.721 169.986 376.477 169.636 377.065 169.076C377.639 168.516 377.933 167.83 377.933 167.004C377.933 166.556 377.849 166.15 377.695 165.814C377.527 165.478 377.289 165.184 376.981 164.96C376.743 164.792 376.463 164.638 376.127 164.512C375.791 164.4 375.343 164.288 374.783 164.176V161.32C375.175 161.418 375.525 161.586 375.847 161.838C376.169 162.09 376.449 162.398 376.687 162.79L377.905 161.642C377.625 161.166 377.219 160.774 376.673 160.452C376.113 160.144 375.483 159.934 374.783 159.836V158.492H373.453V159.836C372.529 159.948 371.773 160.27 371.213 160.802C370.653 161.348 370.373 162.02 370.373 162.804C370.373 163.252 370.443 163.63 370.597 163.952C370.751 164.288 370.989 164.554 371.311 164.778C371.535 164.946 371.815 165.1 372.151 165.212C372.473 165.324 372.907 165.436 373.453 165.534V168.614C372.963 168.544 372.529 168.376 372.165 168.096C371.801 167.83 371.465 167.452 371.185 166.962L369.869 168.082ZM371.997 162.678C371.997 162.314 372.123 162.02 372.375 161.768C372.627 161.53 372.991 161.362 373.453 161.278V163.924C372.921 163.798 372.543 163.63 372.319 163.434C372.095 163.238 371.997 162.986 371.997 162.678ZM376.295 167.13C376.295 167.536 376.155 167.858 375.903 168.11C375.637 168.362 375.259 168.53 374.783 168.6V165.8C375.315 165.94 375.707 166.108 375.945 166.318C376.169 166.528 376.295 166.794 376.295 167.13ZM378.659 170H385.687V168.432H381.123L382.803 167.102C383.265 166.738 383.643 166.416 383.937 166.136C384.217 165.87 384.469 165.604 384.679 165.338C384.973 164.96 385.197 164.582 385.337 164.19C385.477 163.798 385.561 163.406 385.561 162.986C385.561 162.034 385.239 161.264 384.609 160.676C383.979 160.088 383.153 159.794 382.117 159.794C381.655 159.794 381.221 159.878 380.801 160.032C380.381 160.186 380.003 160.41 379.695 160.69C379.359 160.998 379.093 161.362 378.925 161.754C378.743 162.16 378.659 162.594 378.659 163.042C378.659 163.238 378.673 163.42 378.701 163.574C378.729 163.728 378.771 163.896 378.841 164.092H380.507C380.451 163.952 380.409 163.798 380.381 163.63C380.353 163.462 380.339 163.308 380.339 163.14C380.339 162.622 380.493 162.188 380.829 161.838C381.151 161.502 381.571 161.32 382.075 161.32C382.579 161.32 382.999 161.488 383.307 161.81C383.615 162.146 383.783 162.566 383.783 163.098C383.783 163.406 383.699 163.728 383.545 164.036C383.391 164.344 383.153 164.68 382.831 165.016C382.663 165.184 382.481 165.366 382.271 165.562C382.047 165.758 381.683 166.052 381.179 166.472L378.659 168.544V170ZM390.063 164.75C390.595 164.75 391.043 164.946 391.379 165.31C391.715 165.688 391.897 166.164 391.897 166.738C391.897 167.298 391.701 167.76 391.337 168.124C390.973 168.488 390.511 168.67 389.965 168.67C389.433 168.67 388.985 168.516 388.621 168.18C388.257 167.844 388.047 167.396 387.963 166.822L386.241 167.13C386.395 168.082 386.801 168.824 387.459 169.356C388.117 169.888 388.957 170.154 389.965 170.154C390.455 170.154 390.917 170.07 391.365 169.902C391.799 169.734 392.177 169.496 392.513 169.188C392.849 168.866 393.115 168.488 393.297 168.054C393.479 167.634 393.577 167.172 393.577 166.682C393.577 166.206 393.493 165.772 393.339 165.352C393.185 164.932 392.975 164.582 392.695 164.274C392.387 163.966 392.037 163.714 391.631 163.546C391.225 163.378 390.777 163.294 390.301 163.294C389.937 163.294 389.601 163.364 389.293 163.476C388.971 163.602 388.691 163.77 388.467 163.98L388.691 161.516H392.975V159.948H387.319L386.871 165.268L388.495 165.492C388.663 165.268 388.873 165.086 389.153 164.946C389.433 164.82 389.727 164.75 390.063 164.75Z" fill="black"/>
</svg>
