<svg width="414" height="129" viewBox="0 0 414 129" fill="none" xmlns="http://www.w3.org/2000/svg">
<rect width="414" height="129" fill="white"/>
<path d="M21.666 65.614C22.086 66.118 22.604 66.496 23.192 66.762C23.78 67.028 24.41 67.154 25.11 67.154C25.796 67.154 26.44 67.028 27.028 66.762C27.616 66.496 28.12 66.118 28.554 65.614C28.946 65.152 29.254 64.606 29.464 63.99C29.674 63.374 29.786 62.702 29.786 61.974C29.786 61.26 29.674 60.588 29.464 59.972C29.254 59.356 28.946 58.81 28.554 58.334C28.12 57.844 27.616 57.466 27.028 57.2C26.44 56.934 25.796 56.794 25.11 56.794C24.41 56.794 23.78 56.934 23.192 57.2C22.604 57.466 22.086 57.844 21.666 58.334C21.26 58.81 20.952 59.356 20.742 59.972C20.532 60.588 20.434 61.26 20.434 61.974C20.434 62.702 20.532 63.374 20.742 63.99C20.952 64.606 21.26 65.152 21.666 65.614ZM25.11 65.572C24.242 65.572 23.556 65.25 23.024 64.578C22.492 63.92 22.226 63.052 22.226 61.974C22.226 60.91 22.492 60.042 23.024 59.37C23.556 58.712 24.242 58.376 25.11 58.376C25.964 58.376 26.664 58.712 27.196 59.37C27.728 60.042 27.994 60.91 27.994 61.974C27.994 63.052 27.728 63.92 27.196 64.578C26.664 65.25 25.964 65.572 25.11 65.572ZM34.8046 59.608C34.3426 59.608 33.9366 59.72 33.5726 59.916C33.2086 60.126 32.9566 60.406 32.7886 60.742V59.65H31.1086V67H32.7886V63.136C32.7886 62.576 32.9566 62.128 33.3066 61.792C33.6426 61.456 34.1046 61.274 34.6646 61.274C34.7766 61.274 34.8746 61.288 34.9726 61.288C35.0566 61.288 35.1686 61.302 35.2806 61.316V59.636C35.1826 59.636 35.0986 59.622 35.0286 59.622C34.9446 59.622 34.8746 59.608 34.8046 59.608ZM38.9392 67.154C39.3732 67.154 39.7652 67.084 40.1292 66.916C40.4932 66.762 40.8012 66.538 41.0532 66.23V67H42.7332V56.948H41.0532V60.434C40.8012 60.14 40.4932 59.916 40.1292 59.748C39.7652 59.594 39.3732 59.51 38.9392 59.51C38.4352 59.51 37.9872 59.622 37.5672 59.818C37.1472 60.014 36.7972 60.308 36.5172 60.686C36.2512 61.036 36.0552 61.442 35.9152 61.89C35.7752 62.338 35.7052 62.828 35.7052 63.332C35.7052 63.85 35.7752 64.34 35.9152 64.788C36.0552 65.236 36.2512 65.642 36.5172 65.978C36.7972 66.37 37.1472 66.664 37.5672 66.86C37.9872 67.056 38.4352 67.154 38.9392 67.154ZM41.0952 63.556C41.0952 64.2 40.9272 64.718 40.5912 65.11C40.2552 65.502 39.8072 65.684 39.2752 65.684C38.6872 65.684 38.2252 65.474 37.8892 65.054C37.5532 64.634 37.3992 64.06 37.3992 63.332C37.3992 62.604 37.5532 62.03 37.8892 61.61C38.2252 61.19 38.6872 60.98 39.2752 60.98C39.8212 60.98 40.2552 61.176 40.5912 61.568C40.9272 61.96 41.0952 62.478 41.0952 63.122V63.556ZM47.6013 67.154C48.3293 67.154 48.9593 66.972 49.5193 66.608C50.0793 66.244 50.4853 65.74 50.7513 65.096L49.3093 64.55C49.1973 64.914 48.9873 65.208 48.6793 65.418C48.3713 65.628 48.0213 65.726 47.6013 65.726C47.0553 65.726 46.6073 65.544 46.2573 65.18C45.9073 64.816 45.6973 64.326 45.6413 63.696H50.7933V63.136C50.7933 62.058 50.4993 61.19 49.9113 60.518C49.3233 59.846 48.5253 59.51 47.5313 59.51C47.0273 59.51 46.5513 59.608 46.1173 59.804C45.6693 60 45.2913 60.294 44.9693 60.658C44.6613 61.008 44.4373 61.414 44.2693 61.876C44.1013 62.338 44.0313 62.828 44.0313 63.332C44.0313 63.878 44.1013 64.382 44.2693 64.844C44.4373 65.306 44.6753 65.712 44.9833 66.048C45.3053 66.412 45.6973 66.678 46.1453 66.874C46.5933 67.07 47.0693 67.154 47.6013 67.154ZM47.5173 60.924C47.9933 60.924 48.3853 61.064 48.6653 61.344C48.9453 61.624 49.0853 61.988 49.0993 62.436H45.7253C45.8373 61.96 46.0613 61.582 46.3693 61.316C46.6773 61.064 47.0693 60.924 47.5173 60.924ZM55.7499 59.608C55.2879 59.608 54.8819 59.72 54.5179 59.916C54.1539 60.126 53.9019 60.406 53.7339 60.742V59.65H52.0539V67H53.7339V63.136C53.7339 62.576 53.9019 62.128 54.2519 61.792C54.5879 61.456 55.0499 61.274 55.6099 61.274C55.7219 61.274 55.8199 61.288 55.9179 61.288C56.0019 61.288 56.1139 61.302 56.2259 61.316V59.636C56.1279 59.636 56.0439 59.622 55.9739 59.622C55.8899 59.622 55.8199 59.608 55.7499 59.608ZM60.3407 56.948V67H62.1327V56.948H60.3407ZM67.3921 67C68.1481 67 68.8481 66.888 69.4781 66.664C70.0941 66.44 70.6261 66.09 71.0741 65.642C71.5221 65.208 71.8581 64.676 72.0961 64.046C72.3201 63.43 72.4461 62.73 72.4461 61.974C72.4461 61.218 72.3201 60.532 72.0961 59.902C71.8581 59.286 71.5221 58.754 71.0741 58.306C70.6261 57.858 70.0941 57.522 69.4781 57.298C68.8481 57.074 68.1481 56.948 67.3921 56.948H64.0321V67H67.3921ZM65.7821 58.488H67.3781C68.4001 58.488 69.2121 58.81 69.8001 59.426C70.3881 60.042 70.6821 60.896 70.6821 61.974C70.6821 63.052 70.3881 63.906 69.8001 64.522C69.2121 65.152 68.4001 65.46 67.3921 65.46H65.7821V58.488ZM75.4865 67V64.97H73.4565V67H75.4865ZM75.4865 62.114V60.084H73.4565V62.114H75.4865ZM82.0618 56.878C82.0058 57.466 81.8518 57.886 81.5718 58.138C81.2918 58.404 80.8298 58.558 80.1858 58.614L79.2058 58.698V60.028H81.6278V67H83.4198V56.878H82.0618ZM84.8305 67H91.8585V65.432H87.2945L88.9745 64.102C89.4365 63.738 89.8145 63.416 90.1085 63.136C90.3885 62.87 90.6405 62.604 90.8505 62.338C91.1445 61.96 91.3685 61.582 91.5085 61.19C91.6485 60.798 91.7325 60.406 91.7325 59.986C91.7325 59.034 91.4105 58.264 90.7805 57.676C90.1505 57.088 89.3245 56.794 88.2885 56.794C87.8265 56.794 87.3925 56.878 86.9725 57.032C86.5525 57.186 86.1745 57.41 85.8665 57.69C85.5305 57.998 85.2645 58.362 85.0965 58.754C84.9145 59.16 84.8305 59.594 84.8305 60.042C84.8305 60.238 84.8445 60.42 84.8725 60.574C84.9005 60.728 84.9425 60.896 85.0125 61.092H86.6785C86.6225 60.952 86.5805 60.798 86.5525 60.63C86.5245 60.462 86.5105 60.308 86.5105 60.14C86.5105 59.622 86.6645 59.188 87.0005 58.838C87.3225 58.502 87.7425 58.32 88.2465 58.32C88.7505 58.32 89.1705 58.488 89.4785 58.81C89.7865 59.146 89.9545 59.566 89.9545 60.098C89.9545 60.406 89.8705 60.728 89.7165 61.036C89.5625 61.344 89.3245 61.68 89.0025 62.016C88.8345 62.184 88.6525 62.366 88.4425 62.562C88.2185 62.758 87.8545 63.052 87.3505 63.472L84.8305 65.544V67ZM98.6568 66.398C99.0068 66.118 99.2868 65.796 99.4828 65.404C99.6788 65.012 99.7768 64.606 99.7768 64.158C99.7768 63.57 99.6228 63.08 99.3148 62.66C99.0068 62.254 98.5868 61.96 98.0408 61.778C98.4608 61.638 98.7968 61.358 99.0628 60.952C99.3288 60.56 99.4688 60.112 99.4688 59.608C99.4688 58.768 99.1748 58.082 98.6008 57.564C98.0128 57.06 97.2428 56.794 96.2628 56.794C95.3108 56.794 94.4988 57.074 93.8408 57.634C93.1828 58.194 92.7908 58.936 92.6508 59.832L94.2608 60.126C94.3588 59.566 94.5828 59.118 94.9328 58.782C95.2688 58.446 95.7028 58.278 96.2068 58.278C96.6968 58.278 97.0888 58.404 97.3688 58.656C97.6488 58.908 97.7888 59.258 97.7888 59.706C97.7888 60.154 97.6348 60.49 97.3408 60.714C97.0328 60.952 96.6128 61.064 96.0668 61.064H95.0868V62.576H96.0808C96.7108 62.576 97.2008 62.702 97.5368 62.954C97.8728 63.206 98.0548 63.57 98.0548 64.046C98.0548 64.55 97.8868 64.956 97.5508 65.236C97.2148 65.53 96.7528 65.67 96.1928 65.67C95.6328 65.67 95.1708 65.502 94.7928 65.152C94.4148 64.816 94.1908 64.34 94.1068 63.752L92.3848 64.074C92.5248 65.04 92.9308 65.796 93.6168 66.342C94.3028 66.888 95.1708 67.154 96.2208 67.154C96.6968 67.154 97.1308 67.098 97.5508 66.958C97.9708 66.832 98.3348 66.65 98.6568 66.398ZM106.778 64.55H108.654V63.066H106.806V56.948H104.538L100.394 63.15V64.55H105.14V67H106.778V64.55ZM105.112 58.67V63.066H102.186L105.112 58.67ZM112.901 61.75C113.433 61.75 113.881 61.946 114.217 62.31C114.553 62.688 114.735 63.164 114.735 63.738C114.735 64.298 114.539 64.76 114.175 65.124C113.811 65.488 113.349 65.67 112.803 65.67C112.271 65.67 111.823 65.516 111.459 65.18C111.095 64.844 110.885 64.396 110.801 63.822L109.079 64.13C109.233 65.082 109.639 65.824 110.297 66.356C110.955 66.888 111.795 67.154 112.803 67.154C113.293 67.154 113.755 67.07 114.203 66.902C114.637 66.734 115.015 66.496 115.351 66.188C115.687 65.866 115.953 65.488 116.135 65.054C116.317 64.634 116.415 64.172 116.415 63.682C116.415 63.206 116.331 62.772 116.177 62.352C116.023 61.932 115.813 61.582 115.533 61.274C115.225 60.966 114.875 60.714 114.469 60.546C114.063 60.378 113.615 60.294 113.139 60.294C112.775 60.294 112.439 60.364 112.131 60.476C111.809 60.602 111.529 60.77 111.305 60.98L111.529 58.516H115.813V56.948H110.157L109.709 62.268L111.333 62.492C111.501 62.268 111.711 62.086 111.991 61.946C112.271 61.82 112.565 61.75 112.901 61.75ZM121.39 56.794C120.718 56.794 120.116 56.948 119.584 57.242C119.038 57.536 118.576 57.956 118.212 58.502C117.89 58.978 117.652 59.51 117.484 60.126C117.316 60.742 117.246 61.4 117.246 62.1C117.246 62.772 117.316 63.402 117.456 63.99C117.596 64.578 117.806 65.082 118.086 65.516C118.422 66.048 118.842 66.454 119.346 66.734C119.85 67.014 120.424 67.154 121.068 67.154C121.558 67.154 122.02 67.07 122.468 66.902C122.902 66.734 123.28 66.496 123.616 66.174C123.952 65.866 124.204 65.488 124.386 65.054C124.554 64.62 124.652 64.158 124.652 63.668C124.652 63.22 124.568 62.786 124.414 62.38C124.246 61.974 124.022 61.61 123.728 61.302C123.42 60.994 123.056 60.756 122.664 60.588C122.272 60.42 121.838 60.336 121.39 60.336C120.858 60.336 120.382 60.448 119.948 60.658C119.5 60.868 119.15 61.162 118.884 61.526C118.912 60.574 119.15 59.804 119.598 59.188C120.046 58.586 120.62 58.278 121.32 58.278C121.782 58.278 122.174 58.404 122.51 58.656C122.846 58.908 123.084 59.272 123.224 59.734L124.666 59.104C124.414 58.348 124.008 57.774 123.448 57.382C122.888 56.99 122.202 56.794 121.39 56.794ZM121.068 65.712C120.508 65.712 120.032 65.53 119.668 65.166C119.29 64.802 119.108 64.326 119.108 63.766C119.108 63.22 119.29 62.758 119.682 62.38C120.06 62.002 120.522 61.806 121.082 61.806C121.628 61.806 122.09 62.002 122.468 62.38C122.832 62.758 123.028 63.22 123.028 63.766C123.028 64.326 122.832 64.802 122.468 65.166C122.09 65.53 121.628 65.712 121.068 65.712ZM130.696 58.488C129.66 59.622 128.904 60.882 128.428 62.254C127.952 63.626 127.714 65.208 127.714 67H129.534C129.534 66.048 129.576 65.208 129.688 64.48C129.786 63.752 129.94 63.066 130.164 62.422C130.388 61.736 130.71 61.078 131.102 60.434C131.494 59.79 131.998 59.146 132.586 58.502V56.948H125.236V60.084H126.79V58.488H130.696ZM133.307 59.566C133.307 60.056 133.419 60.49 133.671 60.854C133.923 61.218 134.273 61.512 134.749 61.722C134.161 61.918 133.685 62.226 133.321 62.674C132.957 63.122 132.789 63.64 132.789 64.214C132.789 65.082 133.139 65.796 133.839 66.342C134.539 66.888 135.463 67.154 136.583 67.154C137.703 67.154 138.613 66.888 139.313 66.342C140.013 65.796 140.377 65.082 140.377 64.214C140.377 63.64 140.195 63.122 139.831 62.674C139.467 62.226 139.005 61.918 138.417 61.722C138.879 61.512 139.229 61.218 139.481 60.854C139.733 60.49 139.859 60.056 139.859 59.566C139.859 58.754 139.551 58.082 138.935 57.564C138.319 57.06 137.535 56.794 136.583 56.794C135.631 56.794 134.847 57.06 134.231 57.564C133.615 58.082 133.307 58.754 133.307 59.566ZM134.903 59.594C134.903 59.174 135.057 58.838 135.365 58.572C135.673 58.32 136.079 58.18 136.583 58.18C137.087 58.18 137.493 58.32 137.801 58.572C138.109 58.838 138.263 59.174 138.263 59.594C138.263 60.028 138.109 60.378 137.801 60.63C137.493 60.882 137.087 61.008 136.583 61.008C136.079 61.008 135.673 60.882 135.365 60.616C135.057 60.364 134.903 60.014 134.903 59.594ZM138.627 64.088C138.627 64.592 138.431 64.984 138.053 65.292C137.675 65.6 137.185 65.74 136.583 65.74C135.967 65.74 135.477 65.6 135.113 65.292C134.735 64.984 134.553 64.592 134.553 64.088C134.553 63.612 134.735 63.234 135.113 62.926C135.491 62.618 135.981 62.464 136.583 62.464C137.171 62.464 137.661 62.618 138.053 62.926C138.431 63.234 138.627 63.612 138.627 64.088Z" fill="black"/>
<path d="M21.4 91.404C21.722 91.978 22.128 92.412 22.632 92.706C23.136 93 23.696 93.14 24.312 93.14C24.928 93.14 25.474 93 25.978 92.706C26.482 92.412 26.902 91.978 27.238 91.418C27.49 90.97 27.7 90.466 27.84 89.878C27.98 89.29 28.05 88.66 28.05 87.974C28.05 87.302 27.98 86.672 27.84 86.084C27.7 85.496 27.49 84.978 27.238 84.53C26.902 83.97 26.482 83.55 25.978 83.256C25.474 82.962 24.928 82.808 24.312 82.808C23.696 82.808 23.136 82.962 22.632 83.256C22.128 83.55 21.722 83.984 21.4 84.544C21.12 84.992 20.924 85.51 20.784 86.084C20.644 86.672 20.588 87.302 20.588 87.974C20.588 88.66 20.644 89.29 20.784 89.864C20.924 90.452 21.12 90.956 21.4 91.404ZM24.312 83.662C25.152 83.662 25.824 84.054 26.328 84.838C26.832 85.622 27.084 86.658 27.084 87.974C27.084 89.29 26.832 90.34 26.328 91.124C25.824 91.908 25.152 92.286 24.312 92.286C23.458 92.286 22.786 91.908 22.296 91.124C21.792 90.34 21.554 89.29 21.554 87.974C21.554 86.658 21.792 85.622 22.296 84.838C22.786 84.054 23.458 83.662 24.312 83.662ZM34.7586 83.802C33.6526 85.048 32.8406 86.42 32.3226 87.904C31.8046 89.388 31.5526 91.096 31.5526 93H32.5466C32.5466 90.998 32.7986 89.29 33.3026 87.89C33.8066 86.49 34.6466 85.118 35.8226 83.788V82.948H28.7806V85.622H29.6486V83.802H34.7586ZM40.1233 89.332V88.492H36.3573V89.332H40.1233ZM42.4 91.404C42.722 91.978 43.128 92.412 43.632 92.706C44.136 93 44.696 93.14 45.312 93.14C45.928 93.14 46.474 93 46.978 92.706C47.482 92.412 47.902 91.978 48.238 91.418C48.49 90.97 48.7 90.466 48.84 89.878C48.98 89.29 49.05 88.66 49.05 87.974C49.05 87.302 48.98 86.672 48.84 86.084C48.7 85.496 48.49 84.978 48.238 84.53C47.902 83.97 47.482 83.55 46.978 83.256C46.474 82.962 45.928 82.808 45.312 82.808C44.696 82.808 44.136 82.962 43.632 83.256C43.128 83.55 42.722 83.984 42.4 84.544C42.12 84.992 41.924 85.51 41.784 86.084C41.644 86.672 41.588 87.302 41.588 87.974C41.588 88.66 41.644 89.29 41.784 89.864C41.924 90.452 42.12 90.956 42.4 91.404ZM45.312 83.662C46.152 83.662 46.824 84.054 47.328 84.838C47.832 85.622 48.084 86.658 48.084 87.974C48.084 89.29 47.832 90.34 47.328 91.124C46.824 91.908 46.152 92.286 45.312 92.286C44.458 92.286 43.786 91.908 43.296 91.124C42.792 90.34 42.554 89.29 42.554 87.974C42.554 86.658 42.792 85.622 43.296 84.838C43.786 84.054 44.458 83.662 45.312 83.662ZM55.7866 90.242H57.8026V89.43H55.7866V82.948H54.5266L49.9206 89.486V90.242H54.8626V93H55.7866V90.242ZM54.8626 83.886V89.43H50.9426L54.8626 83.886ZM62.6682 89.332V88.492H58.9022V89.332H62.6682ZM63.8152 93H70.6472V92.146H65.1452L67.8752 89.892C68.7992 89.136 69.4572 88.45 69.8352 87.834C70.1992 87.218 70.3952 86.574 70.3952 85.902C70.3952 84.978 70.1012 84.222 69.5132 83.662C68.9252 83.102 68.1412 82.808 67.1752 82.808C66.7412 82.808 66.3352 82.892 65.9432 83.032C65.5512 83.172 65.2152 83.382 64.9212 83.662C64.6132 83.942 64.3752 84.278 64.2072 84.656C64.0392 85.034 63.9692 85.44 63.9692 85.86C63.9692 86.084 63.9832 86.308 64.0252 86.504C64.0672 86.7 64.1372 86.91 64.2212 87.106H65.1452C65.0612 86.91 64.9912 86.7 64.9492 86.504C64.9072 86.308 64.8932 86.098 64.8932 85.902C64.8932 85.258 65.1032 84.726 65.5372 84.292C65.9572 83.872 66.5032 83.648 67.1612 83.648C67.8332 83.648 68.3792 83.858 68.7992 84.278C69.2192 84.698 69.4292 85.258 69.4292 85.93C69.4292 86.28 69.3592 86.616 69.2472 86.938C69.1212 87.26 68.9252 87.582 68.6732 87.904C68.5052 88.114 68.3092 88.338 68.0712 88.562C67.8332 88.8 67.5252 89.08 67.1332 89.402L63.8152 92.174V93ZM72.4234 91.404C72.7454 91.978 73.1514 92.412 73.6554 92.706C74.1594 93 74.7194 93.14 75.3354 93.14C75.9514 93.14 76.4974 93 77.0014 92.706C77.5054 92.412 77.9254 91.978 78.2614 91.418C78.5134 90.97 78.7234 90.466 78.8634 89.878C79.0034 89.29 79.0734 88.66 79.0734 87.974C79.0734 87.302 79.0034 86.672 78.8634 86.084C78.7234 85.496 78.5134 84.978 78.2614 84.53C77.9254 83.97 77.5054 83.55 77.0014 83.256C76.4974 82.962 75.9514 82.808 75.3354 82.808C74.7194 82.808 74.1594 82.962 73.6554 83.256C73.1514 83.55 72.7454 83.984 72.4234 84.544C72.1434 84.992 71.9474 85.51 71.8074 86.084C71.6674 86.672 71.6114 87.302 71.6114 87.974C71.6114 88.66 71.6674 89.29 71.8074 89.864C71.9474 90.452 72.1434 90.956 72.4234 91.404ZM75.3354 83.662C76.1754 83.662 76.8474 84.054 77.3514 84.838C77.8554 85.622 78.1074 86.658 78.1074 87.974C78.1074 89.29 77.8554 90.34 77.3514 91.124C76.8474 91.908 76.1754 92.286 75.3354 92.286C74.4814 92.286 73.8094 91.908 73.3194 91.124C72.8154 90.34 72.5774 89.29 72.5774 87.974C72.5774 86.658 72.8154 85.622 73.3194 84.838C73.8094 84.054 74.4814 83.662 75.3354 83.662ZM80.0574 93H86.8894V92.146H81.3874L84.1174 89.892C85.0414 89.136 85.6994 88.45 86.0774 87.834C86.4414 87.218 86.6374 86.574 86.6374 85.902C86.6374 84.978 86.3434 84.222 85.7554 83.662C85.1674 83.102 84.3834 82.808 83.4174 82.808C82.9834 82.808 82.5774 82.892 82.1854 83.032C81.7934 83.172 81.4574 83.382 81.1634 83.662C80.8554 83.942 80.6174 84.278 80.4494 84.656C80.2814 85.034 80.2114 85.44 80.2114 85.86C80.2114 86.084 80.2254 86.308 80.2674 86.504C80.3094 86.7 80.3794 86.91 80.4634 87.106H81.3874C81.3034 86.91 81.2334 86.7 81.1914 86.504C81.1494 86.308 81.1354 86.098 81.1354 85.902C81.1354 85.258 81.3454 84.726 81.7794 84.292C82.1994 83.872 82.7454 83.648 83.4034 83.648C84.0754 83.648 84.6214 83.858 85.0414 84.278C85.4614 84.698 85.6714 85.258 85.6714 85.93C85.6714 86.28 85.6014 86.616 85.4894 86.938C85.3634 87.26 85.1674 87.582 84.9154 87.904C84.7474 88.114 84.5514 88.338 84.3134 88.562C84.0754 88.8 83.7674 89.08 83.3754 89.402L80.0574 92.174V93ZM87.7683 93H94.6003V92.146H89.0983L91.8283 89.892C92.7523 89.136 93.4103 88.45 93.7883 87.834C94.1523 87.218 94.3483 86.574 94.3483 85.902C94.3483 84.978 94.0543 84.222 93.4663 83.662C92.8783 83.102 92.0943 82.808 91.1283 82.808C90.6943 82.808 90.2883 82.892 89.8963 83.032C89.5043 83.172 89.1683 83.382 88.8743 83.662C88.5663 83.942 88.3283 84.278 88.1603 84.656C87.9923 85.034 87.9223 85.44 87.9223 85.86C87.9223 86.084 87.9363 86.308 87.9783 86.504C88.0203 86.7 88.0903 86.91 88.1743 87.106H89.0983C89.0143 86.91 88.9443 86.7 88.9023 86.504C88.8603 86.308 88.8463 86.098 88.8463 85.902C88.8463 85.258 89.0563 84.726 89.4903 84.292C89.9103 83.872 90.4563 83.648 91.1143 83.648C91.7863 83.648 92.3323 83.858 92.7523 84.278C93.1723 84.698 93.3823 85.258 93.3823 85.93C93.3823 86.28 93.3123 86.616 93.2003 86.938C93.0743 87.26 92.8783 87.582 92.6263 87.904C92.4583 88.114 92.2623 88.338 92.0243 88.562C91.7863 88.8 91.4783 89.08 91.0863 89.402L87.7683 92.174V93ZM96.611 93V93.112C96.611 93.448 96.527 93.714 96.359 93.896C96.191 94.092 95.953 94.19 95.631 94.204V94.75C96.149 94.75 96.555 94.596 96.849 94.288C97.143 93.994 97.297 93.588 97.297 93.07V91.656H96.051V93H96.611ZM104.262 82.892C104.22 83.494 104.094 83.9 103.898 84.11C103.688 84.334 103.31 84.446 102.764 84.474L101.588 84.53V85.272H104.01V93H104.99V82.892H104.262ZM106.69 93H113.522V92.146H108.02L110.75 89.892C111.674 89.136 112.332 88.45 112.71 87.834C113.074 87.218 113.27 86.574 113.27 85.902C113.27 84.978 112.976 84.222 112.388 83.662C111.8 83.102 111.016 82.808 110.05 82.808C109.616 82.808 109.21 82.892 108.818 83.032C108.426 83.172 108.09 83.382 107.796 83.662C107.488 83.942 107.25 84.278 107.082 84.656C106.914 85.034 106.844 85.44 106.844 85.86C106.844 86.084 106.858 86.308 106.9 86.504C106.942 86.7 107.012 86.91 107.096 87.106H108.02C107.936 86.91 107.866 86.7 107.824 86.504C107.782 86.308 107.768 86.098 107.768 85.902C107.768 85.258 107.978 84.726 108.412 84.292C108.832 83.872 109.378 83.648 110.036 83.648C110.708 83.648 111.254 83.858 111.674 84.278C112.094 84.698 112.304 85.258 112.304 85.93C112.304 86.28 112.234 86.616 112.122 86.938C111.996 87.26 111.8 87.582 111.548 87.904C111.38 88.114 111.184 88.338 110.946 88.562C110.708 88.8 110.4 89.08 110.008 89.402L106.69 92.174V93ZM116.123 91.446V90.102H114.877V91.446H116.123ZM116.123 86.196V84.852H114.877V86.196H116.123ZM122.908 92.384C123.23 92.118 123.482 91.796 123.664 91.418C123.832 91.054 123.93 90.648 123.93 90.214C123.93 89.584 123.748 89.052 123.384 88.604C123.02 88.17 122.544 87.876 121.942 87.722C122.418 87.582 122.824 87.302 123.132 86.882C123.44 86.476 123.608 86.014 123.608 85.496C123.608 84.684 123.328 84.04 122.782 83.55C122.236 83.06 121.508 82.808 120.598 82.808C119.702 82.808 118.946 83.074 118.33 83.592C117.714 84.124 117.322 84.81 117.182 85.664L118.064 85.888C118.19 85.188 118.47 84.642 118.918 84.25C119.366 83.858 119.912 83.648 120.57 83.648C121.214 83.648 121.718 83.816 122.096 84.152C122.474 84.488 122.67 84.95 122.67 85.524C122.67 86.084 122.474 86.518 122.082 86.84C121.69 87.176 121.172 87.33 120.528 87.33H119.38V88.156H120.514C121.242 88.156 121.83 88.338 122.278 88.702C122.726 89.066 122.964 89.556 122.964 90.172C122.964 90.816 122.74 91.334 122.306 91.726C121.858 92.118 121.284 92.314 120.556 92.314C119.828 92.314 119.212 92.104 118.722 91.656C118.232 91.222 117.938 90.634 117.826 89.878L116.874 90.116C117.014 91.068 117.42 91.81 118.092 92.342C118.75 92.874 119.576 93.14 120.57 93.14C121.018 93.14 121.452 93.084 121.844 92.944C122.236 92.818 122.6 92.636 122.908 92.384ZM125.785 91.404C126.107 91.978 126.513 92.412 127.017 92.706C127.521 93 128.081 93.14 128.697 93.14C129.313 93.14 129.859 93 130.363 92.706C130.867 92.412 131.287 91.978 131.623 91.418C131.875 90.97 132.085 90.466 132.225 89.878C132.365 89.29 132.435 88.66 132.435 87.974C132.435 87.302 132.365 86.672 132.225 86.084C132.085 85.496 131.875 84.978 131.623 84.53C131.287 83.97 130.867 83.55 130.363 83.256C129.859 82.962 129.313 82.808 128.697 82.808C128.081 82.808 127.521 82.962 127.017 83.256C126.513 83.55 126.107 83.984 125.785 84.544C125.505 84.992 125.309 85.51 125.169 86.084C125.029 86.672 124.973 87.302 124.973 87.974C124.973 88.66 125.029 89.29 125.169 89.864C125.309 90.452 125.505 90.956 125.785 91.404ZM128.697 83.662C129.537 83.662 130.209 84.054 130.713 84.838C131.217 85.622 131.469 86.658 131.469 87.974C131.469 89.29 131.217 90.34 130.713 91.124C130.209 91.908 129.537 92.286 128.697 92.286C127.843 92.286 127.171 91.908 126.681 91.124C126.177 90.34 125.939 89.29 125.939 87.974C125.939 86.658 126.177 85.622 126.681 84.838C127.171 84.054 127.843 83.662 128.697 83.662ZM142.921 91.95C143.173 91.614 143.355 91.222 143.495 90.774C143.621 90.326 143.691 89.85 143.691 89.346C143.691 88.842 143.621 88.366 143.495 87.918C143.355 87.47 143.173 87.078 142.921 86.742C142.641 86.35 142.291 86.056 141.885 85.86C141.479 85.664 141.031 85.552 140.555 85.552C140.023 85.552 139.533 85.692 139.113 85.944C138.693 86.196 138.371 86.546 138.147 86.994V85.692H137.223V95.52H138.147V91.698C138.371 92.146 138.693 92.51 139.113 92.762C139.533 93.014 140.023 93.14 140.555 93.14C141.031 93.14 141.479 93.042 141.885 92.846C142.291 92.65 142.641 92.342 142.921 91.95ZM138.693 87.204C138.889 86.952 139.141 86.742 139.449 86.602C139.757 86.462 140.065 86.378 140.401 86.378C141.115 86.378 141.689 86.658 142.123 87.19C142.543 87.736 142.767 88.45 142.767 89.346C142.767 90.242 142.543 90.97 142.123 91.516C141.689 92.062 141.115 92.328 140.401 92.328C140.065 92.328 139.757 92.258 139.463 92.118C139.155 91.978 138.903 91.782 138.693 91.516C138.497 91.292 138.357 91.012 138.273 90.704C138.175 90.396 138.133 90.046 138.133 89.668V89.066C138.133 88.688 138.175 88.338 138.273 88.03C138.357 87.722 138.497 87.442 138.693 87.204ZM147.006 87.078C147.188 86.882 147.398 86.714 147.65 86.602C147.902 86.49 148.154 86.42 148.406 86.42C148.938 86.42 149.344 86.602 149.624 86.938C149.904 87.288 150.044 87.778 150.044 88.408V93H150.968V88.548C150.968 88.268 151.01 88.002 151.108 87.75C151.192 87.498 151.332 87.274 151.528 87.078C151.71 86.882 151.92 86.714 152.172 86.602C152.424 86.49 152.676 86.42 152.928 86.42C153.46 86.42 153.866 86.602 154.146 86.938C154.426 87.288 154.566 87.778 154.566 88.408V93H155.49V88.198C155.49 87.4 155.266 86.756 154.846 86.28C154.426 85.804 153.852 85.552 153.124 85.552C152.62 85.552 152.144 85.692 151.724 85.944C151.29 86.21 150.968 86.56 150.744 86.98C150.576 86.532 150.31 86.182 149.946 85.93C149.582 85.678 149.162 85.552 148.658 85.552C148.182 85.552 147.762 85.678 147.37 85.902C146.978 86.14 146.67 86.462 146.446 86.868V85.692H145.522V93H146.446V88.548C146.446 88.268 146.488 88.002 146.586 87.75C146.67 87.498 146.81 87.274 147.006 87.078Z" fill="black" fill-opacity="0.6"/>
<path d="M24.284 115C25.026 115 25.698 114.888 26.314 114.65C26.93 114.426 27.448 114.076 27.896 113.614C28.33 113.18 28.666 112.648 28.89 112.032C29.114 111.416 29.226 110.73 29.226 109.974C29.226 109.232 29.114 108.546 28.89 107.93C28.666 107.314 28.33 106.782 27.896 106.334C27.448 105.886 26.93 105.536 26.314 105.298C25.698 105.074 25.026 104.948 24.284 104.948H21.232V115H24.284ZM22.198 105.802H24.27C25.488 105.802 26.454 106.18 27.182 106.936C27.896 107.692 28.26 108.7 28.26 109.974C28.26 111.248 27.896 112.256 27.182 113.012C26.454 113.768 25.488 114.146 24.284 114.146H22.198V105.802ZM33.7921 115.14C34.5061 115.14 35.1221 114.958 35.6261 114.58C36.1301 114.216 36.4941 113.684 36.6901 113.012L35.8501 112.746C35.7381 113.25 35.5001 113.628 35.1361 113.908C34.7721 114.188 34.3241 114.328 33.7921 114.328C33.0641 114.328 32.4901 114.062 32.0421 113.53C31.5941 112.998 31.3701 112.298 31.3701 111.416H36.7461V111.108C36.7461 110.03 36.4801 109.162 35.9481 108.518C35.4161 107.874 34.6741 107.552 33.7501 107.552C33.2461 107.552 32.7981 107.65 32.3781 107.846C31.9581 108.042 31.6081 108.336 31.3141 108.714C31.0341 109.05 30.8381 109.442 30.6981 109.89C30.5581 110.338 30.4881 110.828 30.4881 111.346C30.4881 112.48 30.7821 113.39 31.3981 114.09C32.0001 114.79 32.7981 115.14 33.7921 115.14ZM33.7501 108.364C34.3661 108.364 34.8701 108.574 35.2341 108.994C35.5981 109.414 35.7801 109.988 35.8081 110.688H31.4121C31.5101 109.974 31.7761 109.414 32.1961 108.994C32.6161 108.574 33.1341 108.364 33.7501 108.364ZM38.5666 104.948V115H39.4906V104.948H38.5666ZM42.8559 106.194V104.948H41.7779V106.194H42.8559ZM41.8479 107.692V115H42.7719V107.692H41.8479ZM50.7151 107.692H49.7491L47.4951 113.838L45.2411 107.692H44.2611L47.0471 115H47.9291L50.7151 107.692ZM54.7921 115.14C55.5061 115.14 56.1221 114.958 56.6261 114.58C57.1301 114.216 57.4941 113.684 57.6901 113.012L56.8501 112.746C56.7381 113.25 56.5001 113.628 56.1361 113.908C55.7721 114.188 55.3241 114.328 54.7921 114.328C54.0641 114.328 53.4901 114.062 53.0421 113.53C52.5941 112.998 52.3701 112.298 52.3701 111.416H57.7461V111.108C57.7461 110.03 57.4801 109.162 56.9481 108.518C56.4161 107.874 55.6741 107.552 54.7501 107.552C54.2461 107.552 53.7981 107.65 53.3781 107.846C52.9581 108.042 52.6081 108.336 52.3141 108.714C52.0341 109.05 51.8381 109.442 51.6981 109.89C51.5581 110.338 51.4881 110.828 51.4881 111.346C51.4881 112.48 51.7821 113.39 52.3981 114.09C53.0001 114.79 53.7981 115.14 54.7921 115.14ZM54.7501 108.364C55.3661 108.364 55.8701 108.574 56.2341 108.994C56.5981 109.414 56.7801 109.988 56.8081 110.688H52.4121C52.5101 109.974 52.7761 109.414 53.1961 108.994C53.6161 108.574 54.1341 108.364 54.7501 108.364ZM62.5346 107.622C62.0586 107.622 61.6526 107.762 61.3026 108.014C60.9386 108.266 60.6726 108.63 60.4906 109.078V107.692H59.5666V115H60.4906V110.898C60.4906 110.226 60.6726 109.666 61.0646 109.218C61.4426 108.77 61.9046 108.546 62.4646 108.546C62.5766 108.546 62.6886 108.56 62.7866 108.56C62.8706 108.574 62.9686 108.588 63.0666 108.602V107.678C62.9826 107.664 62.8986 107.65 62.8146 107.636C62.7166 107.636 62.6186 107.622 62.5346 107.622ZM67.1651 115.14C67.8791 115.14 68.4951 114.958 68.9991 114.58C69.5031 114.216 69.8671 113.684 70.0631 113.012L69.2231 112.746C69.1111 113.25 68.8731 113.628 68.5091 113.908C68.1451 114.188 67.6971 114.328 67.1651 114.328C66.4371 114.328 65.8631 114.062 65.4151 113.53C64.9671 112.998 64.7431 112.298 64.7431 111.416H70.1191V111.108C70.1191 110.03 69.8531 109.162 69.3211 108.518C68.7891 107.874 68.0471 107.552 67.1231 107.552C66.6191 107.552 66.1711 107.65 65.7511 107.846C65.3311 108.042 64.9811 108.336 64.6871 108.714C64.4071 109.05 64.2111 109.442 64.0711 109.89C63.9311 110.338 63.8611 110.828 63.8611 111.346C63.8611 112.48 64.1551 113.39 64.7711 114.09C65.3731 114.79 66.1711 115.14 67.1651 115.14ZM67.1231 108.364C67.7391 108.364 68.2431 108.574 68.6071 108.994C68.9711 109.414 69.1531 109.988 69.1811 110.688H64.7851C64.8831 109.974 65.1491 109.414 65.5691 108.994C65.9891 108.574 66.5071 108.364 67.1231 108.364ZM74.5577 115.14C75.0897 115.14 75.5657 115.014 75.9857 114.762C76.4057 114.51 76.7417 114.146 76.9657 113.698V115H77.8897V104.948H76.9657V108.994C76.7417 108.546 76.4057 108.196 75.9857 107.944C75.5657 107.692 75.0897 107.552 74.5577 107.552C74.0677 107.552 73.6197 107.664 73.2137 107.86C72.8077 108.056 72.4717 108.35 72.1917 108.742C71.9397 109.078 71.7437 109.47 71.6177 109.918C71.4777 110.366 71.4217 110.842 71.4217 111.346C71.4217 111.85 71.4777 112.326 71.6177 112.774C71.7437 113.222 71.9397 113.614 72.1917 113.95C72.4717 114.342 72.8077 114.65 73.2137 114.846C73.6197 115.042 74.0677 115.14 74.5577 115.14ZM76.9797 111.668C76.9797 112.046 76.9237 112.396 76.8397 112.704C76.7417 113.012 76.6017 113.292 76.4197 113.516C76.1957 113.782 75.9437 113.978 75.6497 114.118C75.3417 114.258 75.0337 114.328 74.7117 114.328C73.9837 114.328 73.4097 114.062 72.9897 113.516C72.5557 112.97 72.3457 112.242 72.3457 111.346C72.3457 110.45 72.5557 109.736 72.9897 109.19C73.4097 108.658 73.9837 108.378 74.7117 108.378C75.0337 108.378 75.3417 108.462 75.6497 108.602C75.9577 108.742 76.2097 108.952 76.4197 109.204C76.6017 109.442 76.7417 109.722 76.8397 110.03C76.9237 110.338 76.9797 110.688 76.9797 111.066V111.668Z" fill="black" fill-opacity="0.6"/>
<path d="M330.999 17.0909C329.681 17.0907 328.391 17.4672 327.28 18.1759C326.17 18.8846 325.285 19.896 324.73 21.0909H326.455C326.599 21.0909 326.738 21.1484 326.84 21.2507C326.943 21.353 327 21.4917 327 21.6364C327 21.781 326.943 21.9198 326.84 22.0221C326.738 22.1244 326.599 22.1818 326.455 22.1818H323.727C323.535 22.1818 323.35 22.1052 323.213 21.9688C323.077 21.8324 323 21.6474 323 21.4545V18.7273C323 18.5826 323.058 18.4439 323.16 18.3416C323.262 18.2393 323.401 18.1818 323.546 18.1818C323.69 18.1818 323.829 18.2393 323.931 18.3416C324.034 18.4439 324.091 18.5826 324.091 18.7273V19.9615C324.796 18.7553 325.805 17.755 327.017 17.0599C328.229 16.3649 329.602 15.9995 330.999 16C335.418 16 339 19.5818 339 24C339 28.4182 335.418 32 330.999 32C326.647 32 323.106 28.5258 323 24.2C322.997 24.0553 323.051 23.9152 323.15 23.8104C323.25 23.7055 323.388 23.6447 323.532 23.6411C323.677 23.6375 323.817 23.6916 323.922 23.7913C324.027 23.8911 324.088 24.0284 324.091 24.1731C324.136 25.9751 324.884 27.6881 326.174 28.9465C327.465 30.205 329.196 30.9093 330.999 30.9091C334.815 30.9091 337.909 27.816 337.909 24C337.909 20.184 334.815 17.0909 330.999 17.0909Z" fill="#FF6A49"/>
<path d="M331.364 20.5455C331.364 20.4008 331.306 20.2621 331.204 20.1598C331.102 20.0575 330.963 20 330.818 20C330.674 20 330.535 20.0575 330.433 20.1598C330.33 20.2621 330.273 20.4008 330.273 20.5455V24.5455C330.273 24.7418 330.378 24.9222 330.548 25.0189L333.093 26.4735C333.219 26.5412 333.365 26.5572 333.502 26.5181C333.639 26.479 333.756 26.3879 333.826 26.2642C333.897 26.1406 333.916 25.9942 333.88 25.8563C333.845 25.7185 333.756 25.6001 333.634 25.5265L331.364 24.2291V20.5455Z" fill="#FF6A49"/>
<path d="M347.635 25.164L349.735 28.5H351.487L349.267 25.044C349.915 24.9 350.407 24.6 350.755 24.168C351.091 23.736 351.271 23.196 351.271 22.524C351.271 21.684 350.995 21.036 350.455 20.58C349.903 20.124 349.135 19.884 348.151 19.884H344.707V28.5H346.243V25.164H347.635ZM346.243 21.204H348.067C348.619 21.204 349.039 21.324 349.327 21.54C349.615 21.768 349.759 22.092 349.759 22.524C349.759 22.956 349.603 23.28 349.315 23.508C349.027 23.736 348.607 23.844 348.067 23.844H346.243V21.204ZM355.033 28.632C355.657 28.632 356.197 28.476 356.677 28.164C357.157 27.852 357.505 27.42 357.733 26.868L356.497 26.4C356.401 26.712 356.221 26.964 355.957 27.144C355.693 27.324 355.393 27.408 355.033 27.408C354.565 27.408 354.181 27.252 353.881 26.94C353.581 26.628 353.401 26.208 353.353 25.668H357.769V25.188C357.769 24.264 357.517 23.52 357.013 22.944C356.509 22.368 355.825 22.08 354.973 22.08C354.541 22.08 354.133 22.164 353.761 22.332C353.377 22.5 353.053 22.752 352.777 23.064C352.513 23.364 352.321 23.712 352.177 24.108C352.033 24.504 351.973 24.924 351.973 25.356C351.973 25.824 352.033 26.256 352.177 26.652C352.321 27.048 352.525 27.396 352.789 27.684C353.065 27.996 353.401 28.224 353.785 28.392C354.169 28.56 354.577 28.632 355.033 28.632ZM354.961 23.292C355.369 23.292 355.705 23.412 355.945 23.652C356.185 23.892 356.305 24.204 356.317 24.588H353.425C353.521 24.18 353.713 23.856 353.977 23.628C354.241 23.412 354.577 23.292 354.961 23.292ZM362.11 25.644V24.36H358.75V25.644H362.11ZM364.139 27.312C364.499 27.744 364.943 28.068 365.447 28.296C365.951 28.524 366.491 28.632 367.091 28.632C367.679 28.632 368.231 28.524 368.735 28.296C369.239 28.068 369.671 27.744 370.043 27.312C370.379 26.916 370.643 26.448 370.823 25.92C371.003 25.392 371.099 24.816 371.099 24.192C371.099 23.58 371.003 23.004 370.823 22.476C370.643 21.948 370.379 21.48 370.043 21.072C369.671 20.652 369.239 20.328 368.735 20.1C368.231 19.872 367.679 19.752 367.091 19.752C366.491 19.752 365.951 19.872 365.447 20.1C364.943 20.328 364.499 20.652 364.139 21.072C363.791 21.48 363.527 21.948 363.347 22.476C363.167 23.004 363.083 23.58 363.083 24.192C363.083 24.816 363.167 25.392 363.347 25.92C363.527 26.448 363.791 26.916 364.139 27.312ZM367.091 27.276C366.347 27.276 365.759 27 365.303 26.424C364.847 25.86 364.619 25.116 364.619 24.192C364.619 23.28 364.847 22.536 365.303 21.96C365.759 21.396 366.347 21.108 367.091 21.108C367.823 21.108 368.423 21.396 368.879 21.96C369.335 22.536 369.563 23.28 369.563 24.192C369.563 25.116 369.335 25.86 368.879 26.424C368.423 27 367.823 27.276 367.091 27.276ZM375.401 22.164C375.005 22.164 374.657 22.26 374.345 22.428C374.033 22.608 373.817 22.848 373.673 23.136V22.2H372.233V28.5H373.673V25.188C373.673 24.708 373.817 24.324 374.117 24.036C374.405 23.748 374.801 23.592 375.281 23.592C375.377 23.592 375.461 23.604 375.545 23.604C375.617 23.604 375.713 23.616 375.809 23.628V22.188C375.725 22.188 375.653 22.176 375.593 22.176C375.521 22.176 375.461 22.164 375.401 22.164ZM378.945 28.632C379.317 28.632 379.653 28.572 379.965 28.428C380.277 28.296 380.541 28.104 380.757 27.84V28.5H382.197V19.884H380.757V22.872C380.541 22.62 380.277 22.428 379.965 22.284C379.653 22.152 379.317 22.08 378.945 22.08C378.513 22.08 378.129 22.176 377.769 22.344C377.409 22.512 377.109 22.764 376.869 23.088C376.641 23.388 376.473 23.736 376.353 24.12C376.233 24.504 376.173 24.924 376.173 25.356C376.173 25.8 376.233 26.22 376.353 26.604C376.473 26.988 376.641 27.336 376.869 27.624C377.109 27.96 377.409 28.212 377.769 28.38C378.129 28.548 378.513 28.632 378.945 28.632ZM380.793 25.548C380.793 26.1 380.649 26.544 380.361 26.88C380.073 27.216 379.689 27.372 379.233 27.372C378.729 27.372 378.333 27.192 378.045 26.832C377.757 26.472 377.625 25.98 377.625 25.356C377.625 24.732 377.757 24.24 378.045 23.88C378.333 23.52 378.729 23.34 379.233 23.34C379.701 23.34 380.073 23.508 380.361 23.844C380.649 24.18 380.793 24.624 380.793 25.176V25.548ZM386.369 28.632C386.993 28.632 387.533 28.476 388.013 28.164C388.493 27.852 388.841 27.42 389.069 26.868L387.833 26.4C387.737 26.712 387.557 26.964 387.293 27.144C387.029 27.324 386.729 27.408 386.369 27.408C385.901 27.408 385.517 27.252 385.217 26.94C384.917 26.628 384.737 26.208 384.689 25.668H389.105V25.188C389.105 24.264 388.853 23.52 388.349 22.944C387.845 22.368 387.161 22.08 386.309 22.08C385.877 22.08 385.469 22.164 385.097 22.332C384.713 22.5 384.389 22.752 384.113 23.064C383.849 23.364 383.657 23.712 383.513 24.108C383.369 24.504 383.309 24.924 383.309 25.356C383.309 25.824 383.369 26.256 383.513 26.652C383.657 27.048 383.861 27.396 384.125 27.684C384.401 27.996 384.737 28.224 385.121 28.392C385.505 28.56 385.913 28.632 386.369 28.632ZM386.297 23.292C386.705 23.292 387.041 23.412 387.281 23.652C387.521 23.892 387.641 24.204 387.653 24.588H384.761C384.857 24.18 385.049 23.856 385.313 23.628C385.577 23.412 385.913 23.292 386.297 23.292ZM393.354 22.164C392.958 22.164 392.61 22.26 392.298 22.428C391.986 22.608 391.77 22.848 391.626 23.136V22.2H390.186V28.5H391.626V25.188C391.626 24.708 391.77 24.324 392.07 24.036C392.358 23.748 392.754 23.592 393.234 23.592C393.33 23.592 393.414 23.604 393.498 23.604C393.57 23.604 393.666 23.616 393.762 23.628V22.188C393.678 22.188 393.606 22.176 393.546 22.176C393.474 22.176 393.414 22.164 393.354 22.164Z" fill="#FF6A49"/>
<path d="M52.224 20.512H50L54.16 27.264V32H56.208V27.264L60.352 20.512H58.176L55.2 25.392L52.224 20.512ZM64.4936 31.2C64.6376 31.552 64.9096 31.792 65.2936 31.92C65.6776 32.048 66.2216 32.08 66.9096 32V30.512C66.6376 30.544 66.4456 30.528 66.3336 30.432C66.2216 30.352 66.1736 30.192 66.1736 29.952V26.336C66.1736 25.408 65.8856 24.688 65.3416 24.192C64.7816 23.696 63.9816 23.44 62.9416 23.44C62.0776 23.44 61.3256 23.664 60.7016 24.112C60.0776 24.56 59.6616 25.168 59.4376 25.92L61.2456 26.336C61.3576 25.92 61.5496 25.6 61.8056 25.408C62.0616 25.216 62.4136 25.104 62.8616 25.104C63.3416 25.104 63.6936 25.216 63.9336 25.44C64.1736 25.664 64.3016 25.984 64.3016 26.4V26.544L61.9816 27.024C61.0216 27.232 60.3016 27.552 59.8536 27.984C59.3896 28.416 59.1656 28.976 59.1656 29.664C59.1656 30.4 59.4216 30.992 59.9656 31.456C60.4936 31.92 61.1656 32.144 61.9976 32.144C62.5256 32.144 63.0056 32.064 63.4376 31.904C63.8696 31.744 64.2216 31.504 64.4936 31.2ZM62.2856 30.608C61.9016 30.608 61.6136 30.528 61.3896 30.336C61.1656 30.16 61.0696 29.904 61.0696 29.584C61.0696 29.28 61.1656 29.04 61.3896 28.848C61.5976 28.672 61.9656 28.528 62.4936 28.4L64.3016 28.016V29.04C64.3016 29.52 64.1096 29.888 63.7256 30.176C63.3416 30.464 62.8616 30.608 62.2856 30.608ZM71.2496 32.176C72.2416 32.176 73.0576 31.92 73.7136 31.392C74.3696 30.88 74.7056 30.208 74.7056 29.392C74.7056 28.976 74.6096 28.608 74.4336 28.288C74.2576 27.984 73.9856 27.728 73.6336 27.52C73.4256 27.424 73.1856 27.328 72.9296 27.232C72.6576 27.136 72.1776 27.024 71.4896 26.864C71.1376 26.8 70.8976 26.736 70.7696 26.704C70.6416 26.672 70.5456 26.656 70.4656 26.624C70.2416 26.544 70.0656 26.448 69.9696 26.336C69.8736 26.24 69.8256 26.096 69.8256 25.92C69.8256 25.648 69.9376 25.424 70.1776 25.264C70.4016 25.104 70.7216 25.008 71.1216 25.008C71.5696 25.008 72.0016 25.12 72.3856 25.328C72.7696 25.536 73.0736 25.824 73.3296 26.192L74.6256 25.024C74.3056 24.544 73.8416 24.16 73.2336 23.872C72.6096 23.584 71.9376 23.44 71.2336 23.44C70.2736 23.44 69.4736 23.696 68.8656 24.192C68.2576 24.688 67.9536 25.328 67.9536 26.096C67.9536 26.496 68.0176 26.832 68.1776 27.12C68.3216 27.408 68.5456 27.664 68.8496 27.856C69.0416 27.984 69.2816 28.096 69.5696 28.192C69.8416 28.288 70.2576 28.384 70.8016 28.496C71.1376 28.576 71.4096 28.64 71.6176 28.672C71.8256 28.72 71.9696 28.752 72.0336 28.768C72.3216 28.864 72.5296 28.96 72.6576 29.088C72.7696 29.216 72.8336 29.376 72.8336 29.568C72.8336 29.904 72.6896 30.16 72.4016 30.336C72.1136 30.528 71.7456 30.608 71.2656 30.608C70.7856 30.608 70.3216 30.496 69.8736 30.24C69.4256 29.984 69.0736 29.664 68.8336 29.248L67.3936 30.4C67.7456 30.944 68.2736 31.376 68.9776 31.696C69.6656 32.016 70.4176 32.176 71.2496 32.176ZM78.1319 22.48V20.512H76.1479V22.48H78.1319ZM76.1799 23.6V32H78.0999V23.6H76.1799ZM84.3414 23.552C83.8134 23.552 83.3494 23.68 82.9334 23.904C82.5174 24.144 82.2294 24.464 82.0374 24.848V23.6H80.1174V32H82.0374V27.584C82.0374 26.944 82.2294 26.432 82.6294 26.048C83.0134 25.664 83.5414 25.456 84.1814 25.456C84.3094 25.456 84.4214 25.472 84.5334 25.472C84.6294 25.472 84.7574 25.488 84.8854 25.504V23.584C84.7734 23.584 84.6774 23.568 84.5974 23.568C84.5014 23.568 84.4214 23.552 84.3414 23.552ZM94.436 32C95.62 32 96.564 31.728 97.252 31.152C97.94 30.576 98.292 29.792 98.292 28.8C98.292 28.128 98.116 27.552 97.764 27.056C97.412 26.576 96.916 26.224 96.292 26.016C96.804 25.824 97.204 25.504 97.492 25.072C97.78 24.656 97.924 24.144 97.924 23.536C97.924 22.56 97.588 21.808 96.948 21.296C96.308 20.784 95.364 20.512 94.148 20.512H89.588V32H94.436ZM91.556 22.24H93.956C94.628 22.24 95.124 22.368 95.476 22.624C95.812 22.88 95.988 23.264 95.988 23.744C95.988 24.256 95.812 24.624 95.46 24.88C95.108 25.136 94.612 25.264 93.956 25.264H91.556V22.24ZM94.324 26.992C94.932 26.992 95.428 27.152 95.78 27.44C96.132 27.728 96.324 28.128 96.324 28.624C96.324 29.136 96.132 29.552 95.78 29.84C95.428 30.128 94.932 30.272 94.324 30.272H91.556V26.992H94.324ZM103.951 23.552C103.423 23.552 102.959 23.68 102.543 23.904C102.127 24.144 101.839 24.464 101.647 24.848V23.6H99.7268V32H101.647V27.584C101.647 26.944 101.839 26.432 102.239 26.048C102.623 25.664 103.151 25.456 103.791 25.456C103.919 25.456 104.031 25.472 104.143 25.472C104.239 25.472 104.367 25.488 104.495 25.504V23.584C104.383 23.584 104.287 23.568 104.207 23.568C104.111 23.568 104.031 23.552 103.951 23.552ZM111.91 24.72C111.526 24.304 111.094 24 110.582 23.776C110.07 23.552 109.526 23.44 108.934 23.44C108.326 23.44 107.782 23.552 107.27 23.776C106.758 24 106.326 24.304 105.958 24.72C105.606 25.104 105.334 25.568 105.158 26.096C104.966 26.624 104.886 27.2 104.886 27.808C104.886 28.432 104.966 29.008 105.158 29.536C105.334 30.064 105.606 30.512 105.958 30.896C106.326 31.312 106.758 31.632 107.27 31.856C107.782 32.08 108.326 32.176 108.934 32.176C109.526 32.176 110.07 32.08 110.582 31.856C111.094 31.632 111.526 31.312 111.91 30.896C112.262 30.512 112.518 30.064 112.71 29.536C112.886 29.008 112.982 28.432 112.982 27.808C112.982 27.2 112.886 26.624 112.71 26.096C112.518 25.568 112.262 25.104 111.91 24.72ZM108.934 25.056C109.574 25.056 110.086 25.312 110.47 25.792C110.854 26.288 111.046 26.96 111.046 27.808C111.046 28.672 110.854 29.344 110.47 29.824C110.086 30.32 109.574 30.56 108.934 30.56C108.278 30.56 107.766 30.32 107.382 29.824C106.998 29.344 106.822 28.672 106.822 27.808C106.822 26.96 106.998 26.288 107.382 25.792C107.766 25.312 108.278 25.056 108.934 25.056ZM119.197 31.2C119.341 31.552 119.613 31.792 119.997 31.92C120.381 32.048 120.925 32.08 121.613 32V30.512C121.341 30.544 121.149 30.528 121.037 30.432C120.925 30.352 120.877 30.192 120.877 29.952V26.336C120.877 25.408 120.589 24.688 120.045 24.192C119.485 23.696 118.685 23.44 117.645 23.44C116.781 23.44 116.029 23.664 115.405 24.112C114.781 24.56 114.365 25.168 114.141 25.92L115.949 26.336C116.061 25.92 116.253 25.6 116.509 25.408C116.765 25.216 117.117 25.104 117.565 25.104C118.045 25.104 118.397 25.216 118.637 25.44C118.877 25.664 119.005 25.984 119.005 26.4V26.544L116.685 27.024C115.725 27.232 115.005 27.552 114.557 27.984C114.093 28.416 113.869 28.976 113.869 29.664C113.869 30.4 114.125 30.992 114.669 31.456C115.197 31.92 115.869 32.144 116.701 32.144C117.229 32.144 117.709 32.064 118.141 31.904C118.573 31.744 118.925 31.504 119.197 31.2ZM116.989 30.608C116.605 30.608 116.317 30.528 116.093 30.336C115.869 30.16 115.773 29.904 115.773 29.584C115.773 29.28 115.869 29.04 116.093 28.848C116.301 28.672 116.669 28.528 117.197 28.4L119.005 28.016V29.04C119.005 29.52 118.813 29.888 118.429 30.176C118.045 30.464 117.565 30.608 116.989 30.608ZM125.953 32.176C126.945 32.176 127.761 31.92 128.417 31.392C129.073 30.88 129.409 30.208 129.409 29.392C129.409 28.976 129.313 28.608 129.137 28.288C128.961 27.984 128.689 27.728 128.337 27.52C128.129 27.424 127.889 27.328 127.633 27.232C127.361 27.136 126.881 27.024 126.193 26.864C125.841 26.8 125.601 26.736 125.473 26.704C125.345 26.672 125.249 26.656 125.169 26.624C124.945 26.544 124.769 26.448 124.673 26.336C124.577 26.24 124.529 26.096 124.529 25.92C124.529 25.648 124.641 25.424 124.881 25.264C125.105 25.104 125.425 25.008 125.825 25.008C126.273 25.008 126.705 25.12 127.089 25.328C127.473 25.536 127.777 25.824 128.033 26.192L129.329 25.024C129.009 24.544 128.545 24.16 127.937 23.872C127.313 23.584 126.641 23.44 125.937 23.44C124.977 23.44 124.177 23.696 123.569 24.192C122.961 24.688 122.657 25.328 122.657 26.096C122.657 26.496 122.721 26.832 122.881 27.12C123.025 27.408 123.249 27.664 123.553 27.856C123.745 27.984 123.985 28.096 124.273 28.192C124.545 28.288 124.961 28.384 125.505 28.496C125.841 28.576 126.113 28.64 126.321 28.672C126.529 28.72 126.673 28.752 126.737 28.768C127.025 28.864 127.233 28.96 127.361 29.088C127.473 29.216 127.537 29.376 127.537 29.568C127.537 29.904 127.393 30.16 127.105 30.336C126.817 30.528 126.449 30.608 125.969 30.608C125.489 30.608 125.025 30.496 124.577 30.24C124.129 29.984 123.777 29.664 123.537 29.248L122.097 30.4C122.449 30.944 122.977 31.376 123.681 31.696C124.369 32.016 125.121 32.176 125.953 32.176ZM133.523 32.096C133.747 32.096 133.971 32.096 134.211 32.064C134.435 32.048 134.659 32.016 134.851 31.984V30.368C134.659 30.4 134.515 30.416 134.419 30.416C134.307 30.416 134.195 30.416 134.067 30.416C133.619 30.416 133.315 30.352 133.171 30.224C133.011 30.096 132.947 29.888 132.947 29.584V25.232H134.707V23.6H132.947V21.136H131.059V23.6H129.891V25.232H131.059V29.888C131.059 30.672 131.235 31.232 131.619 31.584C132.003 31.936 132.627 32.096 133.523 32.096Z" fill="black"/>
<path d="M37.325 21.6023V18.72C37.325 18.3217 37.0033 18 36.605 18H21.395C20.9968 18 20.675 18.3217 20.675 18.72V21.6023C20.2993 21.6248 20 21.9375 20 22.32V25.2833C19.9986 25.8278 20.1088 26.367 20.324 26.8673C20.4208 27.0968 20.54 27.3127 20.675 27.5175V35.28C20.675 35.676 20.9968 36 21.395 36H36.605C37.0033 36 37.325 35.6782 37.325 35.28V27.5175C37.4621 27.3122 37.5797 27.0945 37.676 26.8673C37.8898 26.3655 38 25.8323 38 25.2833V22.32C38 21.9375 37.7008 21.6248 37.325 21.6023ZM22.295 19.62H35.705V21.6H22.295V19.62ZM30.44 34.3822H27.56V32.04H30.44V34.3822ZM31.88 34.3822V31.32C31.88 30.9218 31.5583 30.6 31.16 30.6H26.84C26.4418 30.6 26.12 30.9218 26.12 31.32V34.3822H22.295V28.9328C22.3603 28.9643 22.4278 28.9958 22.4975 29.0227C22.9993 29.2343 23.5325 29.34 24.0815 29.34C24.6305 29.34 25.1615 29.2343 25.6655 29.0227C25.976 28.8923 26.2685 28.7257 26.5363 28.5255C26.5408 28.5232 26.5453 28.5232 26.5498 28.5255C26.8183 28.7266 27.1108 28.8936 27.4205 29.0227C27.9223 29.2343 28.4555 29.34 29.0045 29.34C29.5535 29.34 30.0845 29.2343 30.5885 29.0227C30.899 28.8923 31.1915 28.7257 31.4593 28.5255C31.4638 28.5232 31.4683 28.5232 31.4728 28.5255C31.7413 28.7266 32.0338 28.8936 32.3435 29.0227C32.8453 29.2343 33.3785 29.34 33.9275 29.34C34.4765 29.34 35.0075 29.2343 35.5115 29.0227C35.579 28.9935 35.6465 28.9643 35.714 28.9328V34.3822H31.88ZM36.38 25.2833C36.38 26.6287 35.2775 27.72 33.9208 27.72C33.0028 27.72 32.2018 27.2227 31.7788 26.4847C31.7135 26.3723 31.5965 26.3025 31.466 26.3025H31.4525C31.3243 26.3025 31.205 26.3723 31.1398 26.4847C30.9239 26.8612 30.6122 27.1738 30.2364 27.3908C29.8605 27.6077 29.434 27.7213 29 27.72C28.0843 27.72 27.2855 27.225 26.8625 26.4892C26.795 26.3745 26.6735 26.3025 26.5408 26.3025C26.408 26.3025 26.2843 26.3745 26.219 26.4892C26.0019 26.8643 25.6898 27.1755 25.3142 27.3915C24.9385 27.6076 24.5126 27.7209 24.0793 27.72C22.7225 27.72 21.62 26.6287 21.62 25.2833V23.2312C21.62 23.2245 21.6245 23.22 21.6313 23.22H36.3688C36.3755 23.22 36.38 23.2245 36.38 23.2312V25.2833Z" fill="black"/>
</svg>
