<svg width="86" height="32" viewBox="0 0 86 32" fill="none" xmlns="http://www.w3.org/2000/svg">
<rect width="86" height="32" rx="4" fill="#FFE1DA"/>
<circle cx="20" cy="16" r="9" stroke="black" stroke-width="2"/>
<path d="M20.05 23L22.9 20.175L20.05 17.35L19 18.4L20.075 19.475C19.6083 19.4917 19.1543 19.4167 18.713 19.25C18.271 19.0833 17.875 18.825 17.525 18.475C17.1917 18.1417 16.9373 17.7583 16.762 17.325C16.5873 16.8917 16.5 16.4583 16.5 16.025C16.5 15.7417 16.5377 15.4583 16.613 15.175C16.6877 14.8917 16.7917 14.6167 16.925 14.35L15.825 13.25C15.5417 13.6667 15.3333 14.1083 15.2 14.575C15.0667 15.0417 15 15.5167 15 16C15 16.6333 15.125 17.2583 15.375 17.875C15.625 18.4917 15.9917 19.0417 16.475 19.525C16.9583 20.0083 17.5 20.371 18.1 20.613C18.7 20.8543 19.3167 20.9833 19.95 21L19 21.95L20.05 23ZM24.175 18.75C24.4583 18.3333 24.6667 17.8917 24.8 17.425C24.9333 16.9583 25 16.4833 25 16C25 15.3667 24.8793 14.7373 24.638 14.112C24.396 13.4873 24.0333 12.9333 23.55 12.45C23.0667 11.9667 22.521 11.6083 21.913 11.375C21.3043 11.1417 20.6833 11.025 20.05 11.025L21 10.05L19.95 9L17.1 11.825L19.95 14.65L21 13.6L19.9 12.5C20.35 12.5 20.8083 12.5873 21.275 12.762C21.7417 12.9373 22.1417 13.1917 22.475 13.525C22.8083 13.8583 23.0627 14.2417 23.238 14.675C23.4127 15.1083 23.5 15.5417 23.5 15.975C23.5 16.2583 23.4623 16.5417 23.387 16.825C23.3123 17.1083 23.2083 17.3833 23.075 17.65L24.175 18.75Z" fill="#FF6A49"/>
<path d="M38.484 14.604C38.7 14.292 38.964 14.04 39.288 13.872C39.6 13.704 39.948 13.608 40.332 13.608C40.824 13.608 41.244 13.752 41.604 14.04C41.952 14.328 42.192 14.724 42.336 15.228L43.776 14.736C43.512 13.944 43.08 13.332 42.48 12.9C41.88 12.468 41.172 12.252 40.332 12.252C39.744 12.252 39.204 12.372 38.7 12.6C38.196 12.84 37.764 13.164 37.404 13.596C37.068 14.004 36.804 14.46 36.636 14.988C36.456 15.516 36.372 16.092 36.372 16.692C36.372 17.304 36.456 17.868 36.636 18.396C36.804 18.924 37.068 19.392 37.404 19.788C37.764 20.22 38.196 20.556 38.7 20.784C39.204 21.024 39.744 21.132 40.332 21.132C41.172 21.132 41.88 20.916 42.48 20.484C43.08 20.052 43.512 19.44 43.776 18.648L42.336 18.156C42.192 18.672 41.952 19.068 41.604 19.356C41.244 19.644 40.824 19.776 40.332 19.776C39.948 19.776 39.6 19.692 39.288 19.524C38.964 19.356 38.7 19.104 38.484 18.78C38.292 18.516 38.148 18.204 38.052 17.844C37.956 17.484 37.908 17.1 37.908 16.692C37.908 16.284 37.956 15.912 38.052 15.552C38.148 15.192 38.292 14.88 38.484 14.604ZM46.1999 21V17.304C46.1999 16.896 46.3199 16.572 46.5719 16.308C46.8239 16.056 47.1359 15.924 47.5079 15.924C47.8679 15.924 48.1319 16.044 48.3239 16.272C48.5159 16.512 48.6119 16.836 48.6119 17.268V21H50.0519V16.848C50.0519 16.164 49.8599 15.612 49.4759 15.204C49.0919 14.796 48.5879 14.58 47.9399 14.58C47.5799 14.58 47.2559 14.652 46.9679 14.784C46.6799 14.928 46.4159 15.12 46.1999 15.372V12.384H44.7599V21H46.1999ZM55.0616 20.4C55.1696 20.664 55.3736 20.844 55.6616 20.94C55.9496 21.036 56.3576 21.06 56.8736 21V19.884C56.6696 19.908 56.5256 19.896 56.4416 19.824C56.3576 19.764 56.3216 19.644 56.3216 19.464V16.752C56.3216 16.056 56.1056 15.516 55.6976 15.144C55.2776 14.772 54.6776 14.58 53.8976 14.58C53.2496 14.58 52.6856 14.748 52.2176 15.084C51.7496 15.42 51.4376 15.876 51.2696 16.44L52.6256 16.752C52.7096 16.44 52.8536 16.2 53.0456 16.056C53.2376 15.912 53.5016 15.828 53.8376 15.828C54.1976 15.828 54.4616 15.912 54.6416 16.08C54.8216 16.248 54.9176 16.488 54.9176 16.8V16.908L53.1776 17.268C52.4576 17.424 51.9176 17.664 51.5816 17.988C51.2336 18.312 51.0656 18.732 51.0656 19.248C51.0656 19.8 51.2576 20.244 51.6656 20.592C52.0616 20.94 52.5656 21.108 53.1896 21.108C53.5856 21.108 53.9456 21.048 54.2696 20.928C54.5936 20.808 54.8576 20.628 55.0616 20.4ZM53.4056 19.956C53.1176 19.956 52.9016 19.896 52.7336 19.752C52.5656 19.62 52.4936 19.428 52.4936 19.188C52.4936 18.96 52.5656 18.78 52.7336 18.636C52.8896 18.504 53.1656 18.396 53.5616 18.3L54.9176 18.012V18.78C54.9176 19.14 54.7736 19.416 54.4856 19.632C54.1976 19.848 53.8376 19.956 53.4056 19.956ZM59.3366 21V17.304C59.3366 16.896 59.4566 16.572 59.7086 16.308C59.9606 16.056 60.2726 15.924 60.6446 15.924C61.0046 15.924 61.2686 16.044 61.4606 16.272C61.6526 16.512 61.7486 16.836 61.7486 17.268V21H63.1886V16.848C63.1886 16.164 62.9966 15.612 62.6126 15.204C62.2286 14.796 61.7246 14.58 61.0766 14.58C60.7166 14.58 60.3926 14.652 60.1046 14.784C59.8166 14.928 59.5526 15.12 59.3366 15.372V14.7H57.8966V21H59.3366ZM70.2623 14.7H68.8223V15.372C68.6303 15.132 68.3783 14.94 68.0663 14.796C67.7543 14.652 67.4063 14.58 67.0463 14.58C66.6263 14.58 66.2423 14.664 65.8943 14.82C65.5343 14.988 65.2343 15.216 64.9943 15.528C64.7543 15.816 64.5863 16.14 64.4663 16.512C64.3463 16.896 64.2863 17.292 64.2863 17.712C64.2863 18.144 64.3463 18.54 64.4663 18.912C64.5863 19.296 64.7543 19.62 64.9943 19.896C65.2343 20.208 65.5343 20.448 65.8943 20.604C66.2423 20.772 66.6263 20.844 67.0463 20.844C67.4063 20.844 67.7543 20.784 68.0663 20.64C68.3783 20.496 68.6303 20.304 68.8223 20.052V20.496C68.8223 21.036 68.6783 21.444 68.4023 21.72C68.1143 21.996 67.7183 22.128 67.1903 22.128C66.8063 22.128 66.4703 22.032 66.2063 21.828C65.9423 21.636 65.7623 21.348 65.6663 20.976L64.3223 21.456C64.5143 22.056 64.8503 22.512 65.3423 22.824C65.8223 23.136 66.4463 23.292 67.1903 23.292C68.1263 23.292 68.8703 23.028 69.4223 22.5C69.9743 21.972 70.2623 21.264 70.2623 20.364V14.7ZM68.8463 17.796C68.8463 18.348 68.7023 18.792 68.4263 19.104C68.1503 19.428 67.7783 19.584 67.3223 19.584C66.8183 19.584 66.4343 19.428 66.1583 19.092C65.8703 18.756 65.7383 18.3 65.7383 17.712C65.7383 17.124 65.8703 16.668 66.1583 16.332C66.4343 16.008 66.8183 15.84 67.3223 15.84C67.7783 15.84 68.1503 16.008 68.4263 16.332C68.7023 16.656 68.8463 17.1 68.8463 17.652V17.796ZM74.4473 21.132C75.0713 21.132 75.6113 20.976 76.0913 20.664C76.5713 20.352 76.9193 19.92 77.1473 19.368L75.9113 18.9C75.8153 19.212 75.6353 19.464 75.3713 19.644C75.1073 19.824 74.8073 19.908 74.4473 19.908C73.9793 19.908 73.5953 19.752 73.2953 19.44C72.9953 19.128 72.8153 18.708 72.7673 18.168H77.1833V17.688C77.1833 16.764 76.9313 16.02 76.4273 15.444C75.9233 14.868 75.2393 14.58 74.3873 14.58C73.9553 14.58 73.5473 14.664 73.1753 14.832C72.7913 15 72.4673 15.252 72.1913 15.564C71.9273 15.864 71.7353 16.212 71.5913 16.608C71.4473 17.004 71.3873 17.424 71.3873 17.856C71.3873 18.324 71.4473 18.756 71.5913 19.152C71.7353 19.548 71.9393 19.896 72.2033 20.184C72.4793 20.496 72.8153 20.724 73.1993 20.892C73.5833 21.06 73.9913 21.132 74.4473 21.132ZM74.3753 15.792C74.7833 15.792 75.1193 15.912 75.3593 16.152C75.5993 16.392 75.7193 16.704 75.7313 17.088H72.8393C72.9353 16.68 73.1273 16.356 73.3913 16.128C73.6553 15.912 73.9913 15.792 74.3753 15.792Z" fill="black"/>
</svg>
