<svg width="20" height="20" viewBox="0 0 20 20" fill="none" xmlns="http://www.w3.org/2000/svg">
<path d="M14.7638 10.6231L6.27781 19.7623C6.13622 19.9149 5.9481 20 5.75248 20C5.55686 20 5.36874 19.9149 5.22715 19.7623L5.21801 19.752C5.14913 19.678 5.09429 19.589 5.05681 19.4903C5.01933 19.3916 5 19.2854 5 19.178C5 19.0706 5.01933 18.9643 5.05681 18.8657C5.09429 18.767 5.14913 18.678 5.21801 18.604L13.2092 9.99828L5.21801 1.39601C5.14913 1.32205 5.09429 1.23302 5.05681 1.13434C5.01933 1.03566 5 0.929399 5 0.822011C5 0.714623 5.01933 0.608359 5.05681 0.50968C5.09429 0.411002 5.14913 0.321973 5.21801 0.24801L5.22715 0.237683C5.36874 0.0851124 5.55686 0 5.75248 0C5.9481 0 6.13622 0.0851124 6.27781 0.237683L14.7638 9.37695C14.8385 9.45732 14.8979 9.55399 14.9385 9.66108C14.9791 9.76818 15 9.88349 15 10C15 10.1165 14.9791 10.2318 14.9385 10.3389C14.8979 10.446 14.8385 10.5427 14.7638 10.6231Z" fill="black" fill-opacity="0.6"/>
</svg>
