<svg width="40" height="40" viewBox="0 0 40 40" fill="none" xmlns="http://www.w3.org/2000/svg">
<circle cx="20" cy="20" r="20" fill="#FFE1DA"/>
<g clip-path="url(#clip0_403_2788)">
<path d="M18.4641 11.2819C18.643 11.0672 18.865 10.8924 19.1157 10.7688C19.3663 10.6452 19.6401 10.5754 19.9194 10.5641C20.1987 10.5528 20.4772 10.6002 20.7371 10.7032C20.9969 10.8061 21.2323 10.9624 21.4281 11.1619L21.5361 11.2819L25.4681 15.9999H28.4531C28.6629 15.9995 28.8705 16.0434 29.0622 16.1287C29.2539 16.2141 29.4255 16.339 29.5656 16.4952C29.7057 16.6515 29.8112 16.8355 29.8752 17.0354C29.9392 17.2352 29.9603 17.4464 29.9371 17.6549L29.8451 18.4209L29.7451 19.1609L29.6631 19.7149L29.5681 20.3099L29.4601 20.9349L29.3381 21.5829L29.2021 22.2439C29.1301 22.5769 29.0531 22.9109 28.9701 23.2419C28.7487 24.1203 28.4708 24.9834 28.1381 25.8259L27.9171 26.3659L27.7031 26.8539L27.5011 27.2879L27.4071 27.4819L27.1581 27.9719C26.8381 28.5819 26.2341 28.9419 25.5951 28.9939L25.4351 28.9999H14.5551C14.2054 29.0027 13.8616 28.9103 13.5604 28.7328C13.2593 28.5552 13.012 28.2991 12.8451 27.9919L12.6131 27.5419L12.4331 27.1719C12.401 27.1038 12.3693 27.0354 12.3381 26.9669L12.1381 26.5179C11.6815 25.4574 11.311 24.3619 11.0301 23.2419C10.9758 23.0245 10.9238 22.8065 10.8741 22.5879L10.7321 21.9399L10.6051 21.3059L10.4931 20.6929L10.3931 20.1059L10.3061 19.5519L10.2321 19.0389L10.1421 18.3559L10.0761 17.7999C10.0703 17.7489 10.0646 17.6979 10.0591 17.6469C10.0381 17.4504 10.0565 17.2517 10.1132 17.0624C10.1698 16.8731 10.2636 16.6969 10.3891 16.5442C10.5146 16.3916 10.6693 16.2654 10.844 16.1732C11.0188 16.0809 11.2102 16.0244 11.4071 16.0069L11.5431 15.9999H14.5321L18.4641 11.2819ZM27.8831 17.9999H12.1131L12.1751 18.4839L12.2511 19.0319L12.3431 19.6359L12.4511 20.2839C12.4911 20.5059 12.5321 20.7339 12.5771 20.9659L12.7201 21.6729C12.7961 22.0309 12.8801 22.3949 12.9701 22.7569C13.224 23.7677 13.5584 24.7565 13.9701 25.7139L14.1661 26.1549L14.3481 26.5389L14.5111 26.8619L14.5831 26.9999H25.4101L25.5641 26.6969L25.7411 26.3319L25.9351 25.9089C26.3021 25.0839 26.7221 23.9909 27.0301 22.7569C27.1551 22.2569 27.2661 21.7489 27.3651 21.2499L27.5051 20.5119L27.6251 19.8029L27.6781 19.4639L27.7731 18.8269L27.8501 18.2569L27.8831 17.9999ZM17.9861 20.8359L18.4861 23.8359C18.521 24.0936 18.4542 24.3547 18.2998 24.5639C18.1454 24.7731 17.9157 24.914 17.6592 24.9567C17.4027 24.9993 17.1397 24.9404 16.9259 24.7924C16.7122 24.6444 16.5644 24.419 16.5141 24.1639L16.0141 21.1639C15.9881 21.0326 15.9888 20.8974 16.0161 20.7664C16.0434 20.6353 16.0967 20.5111 16.1729 20.401C16.2491 20.291 16.3466 20.1973 16.4596 20.1256C16.5727 20.054 16.699 20.0057 16.831 19.9838C16.9631 19.9618 17.0982 19.9666 17.2284 19.9978C17.3585 20.029 17.4811 20.086 17.5888 20.1655C17.6965 20.245 17.7872 20.3453 17.8554 20.4604C17.9237 20.5756 17.9681 20.7033 17.9861 20.8359ZM23.0481 19.9999L23.1641 20.0129C23.4061 20.0529 23.625 20.1804 23.7792 20.3712C23.9333 20.5621 24.0119 20.8029 24.0001 21.0479L23.9871 21.1639L23.4871 24.1639C23.4446 24.415 23.308 24.6405 23.105 24.7944C22.9021 24.9482 22.6481 25.0188 22.3948 24.9917C22.1416 24.9647 21.9082 24.842 21.7423 24.6488C21.5764 24.4556 21.4905 24.2063 21.5021 23.9519L21.5151 23.8359L22.0151 20.8359C22.055 20.5942 22.1822 20.3756 22.3726 20.2215C22.563 20.0674 22.8034 19.9886 23.0481 19.9999ZM20.0001 12.5619L17.1351 15.9999H22.8651L20.0001 12.5619Z" fill="#FF6A49"/>
</g>
<defs>
<clipPath id="clip0_403_2788">
<rect width="24" height="24" fill="white" transform="translate(8 8)"/>
</clipPath>
</defs>
</svg>
