<svg width="16" height="20" viewBox="0 0 16 20" fill="none" xmlns="http://www.w3.org/2000/svg">
<path d="M6.20005 0.400391H9.80005C10.1724 0.400196 10.5357 0.515504 10.8398 0.730424C11.1439 0.945345 11.3739 1.2493 11.498 1.60039H13.4C13.8774 1.60039 14.3353 1.79003 14.6728 2.1276C15.0104 2.46516 15.2 2.923 15.2 3.40039V17.8004C15.2 18.2778 15.0104 18.7356 14.6728 19.0732C14.3353 19.4107 13.8774 19.6004 13.4 19.6004H2.60005C2.12266 19.6004 1.66482 19.4107 1.32726 19.0732C0.989691 18.7356 0.800049 18.2778 0.800049 17.8004V3.40039C0.800049 2.923 0.989691 2.46516 1.32726 2.1276C1.66482 1.79003 2.12266 1.60039 2.60005 1.60039H4.50205C4.62618 1.2493 4.85615 0.945345 5.16026 0.730424C5.46437 0.515504 5.82766 0.400196 6.20005 0.400391ZM5.60005 2.20039C5.60005 2.35952 5.66326 2.51213 5.77578 2.62465C5.88831 2.73718 6.04092 2.80039 6.20005 2.80039H9.80005C9.95918 2.80039 10.1118 2.73718 10.2243 2.62465C10.3368 2.51213 10.4 2.35952 10.4 2.20039C10.4 2.04126 10.3368 1.88865 10.2243 1.77613C10.1118 1.66361 9.95918 1.60039 9.80005 1.60039H6.20005C6.04092 1.60039 5.88831 1.66361 5.77578 1.77613C5.66326 1.88865 5.60005 2.04126 5.60005 2.20039ZM11.3 9.10039C11.5387 9.10039 11.7677 9.00557 11.9364 8.83679C12.1052 8.668 12.2 8.43909 12.2 8.20039C12.2 7.9617 12.1052 7.73278 11.9364 7.56399C11.7677 7.39521 11.5387 7.30039 11.3 7.30039C11.0614 7.30039 10.8324 7.39521 10.6637 7.56399C10.4949 7.73278 10.4 7.9617 10.4 8.20039C10.4 8.43909 10.4949 8.668 10.6637 8.83679C10.8324 9.00557 11.0614 9.10039 11.3 9.10039ZM11.3 12.7004C11.5387 12.7004 11.7677 12.6056 11.9364 12.4368C12.1052 12.268 12.2 12.0391 12.2 11.8004C12.2 11.5617 12.1052 11.3328 11.9364 11.164C11.7677 10.9952 11.5387 10.9004 11.3 10.9004C11.0614 10.9004 10.8324 10.9952 10.6637 11.164C10.4949 11.3328 10.4 11.5617 10.4 11.8004C10.4 12.0391 10.4949 12.268 10.6637 12.4368C10.8324 12.6056 11.0614 12.7004 11.3 12.7004ZM10.4 15.4004C10.4 15.6391 10.4949 15.868 10.6637 16.0368C10.8324 16.2056 11.0614 16.3004 11.3 16.3004C11.5387 16.3004 11.7677 16.2056 11.9364 16.0368C12.1052 15.868 12.2 15.6391 12.2 15.4004C12.2 15.1617 12.1052 14.9328 11.9364 14.764C11.7677 14.5952 11.5387 14.5004 11.3 14.5004C11.0614 14.5004 10.8324 14.5952 10.6637 14.764C10.4949 14.9328 10.4 15.1617 10.4 15.4004ZM9.20005 8.20039C9.20005 8.04126 9.13684 7.88865 9.02431 7.77613C8.91179 7.6636 8.75918 7.60039 8.60005 7.60039H4.40005C4.24092 7.60039 4.08831 7.6636 3.97578 7.77613C3.86326 7.88865 3.80005 8.04126 3.80005 8.20039C3.80005 8.35952 3.86326 8.51213 3.97578 8.62465C4.08831 8.73718 4.24092 8.80039 4.40005 8.80039H8.60005C8.75918 8.80039 8.91179 8.73718 9.02431 8.62465C9.13684 8.51213 9.20005 8.35952 9.20005 8.20039ZM9.20005 11.8004C9.20005 11.6413 9.13684 11.4886 9.02431 11.3761C8.91179 11.2636 8.75918 11.2004 8.60005 11.2004H4.40005C4.24092 11.2004 4.08831 11.2636 3.97578 11.3761C3.86326 11.4886 3.80005 11.6413 3.80005 11.8004C3.80005 11.9595 3.86326 12.1121 3.97578 12.2247C4.08831 12.3372 4.24092 12.4004 4.40005 12.4004H8.60005C8.75918 12.4004 8.91179 12.3372 9.02431 12.2247C9.13684 12.1121 9.20005 11.9595 9.20005 11.8004ZM9.20005 15.4004C9.20005 15.2413 9.13684 15.0886 9.02431 14.9761C8.91179 14.8636 8.75918 14.8004 8.60005 14.8004H4.40005C4.24092 14.8004 4.08831 14.8636 3.97578 14.9761C3.86326 15.0886 3.80005 15.2413 3.80005 15.4004C3.80005 15.5595 3.86326 15.7121 3.97578 15.8247C4.08831 15.9372 4.24092 16.0004 4.40005 16.0004H8.60005C8.75918 16.0004 8.91179 15.9372 9.02431 15.8247C9.13684 15.7121 9.20005 15.5595 9.20005 15.4004Z" fill="#FF6A49"/>
</svg>
