<svg width="15" height="15" viewBox="0 0 15 15" fill="none" xmlns="http://www.w3.org/2000/svg">
<path d="M7.588 3.1L9.013 4.5L2.413 11.1V12.525H3.813L10.438 5.9L11.863 7.3L5.238 13.925C5.05467 14.1083 4.84233 14.2543 4.601 14.363C4.359 14.471 4.10467 14.525 3.838 14.525H1.413C1.12967 14.525 0.892334 14.4293 0.701 14.238C0.509 14.046 0.413 13.8083 0.413 13.525V11.1C0.413 10.8333 0.463 10.579 0.563 10.337C0.663 10.0957 0.804667 9.88333 0.988 9.7L7.588 3.1ZM11.863 7.3L7.588 3.1L10.088 0.6C10.488 0.2 10.9673 0 11.526 0C12.084 0 12.5547 0.2 12.938 0.6L14.338 2.025C14.7213 2.40833 14.913 2.875 14.913 3.425C14.913 3.975 14.7213 4.44167 14.338 4.825L11.863 7.3Z" fill="#E13743"/>
</svg>
